<svg width="77" height="44" viewBox="0 0 77 44" fill="none" xmlns="http://www.w3.org/2000/svg">
<path d="M10.3368 8.61548C12.0762 8.61548 12.6228 9.87613 13.0796 11.1366C13.2737 11.6707 17.7916 24.188 17.9262 24.5636C17.9641 24.6674 17.9393 24.8406 17.7795 24.9021C17.6195 24.9629 15.2719 25.8872 15.1423 25.9366C15.0126 25.9857 14.8664 25.9127 14.8187 25.7822C14.7706 25.6524 13.7974 22.9235 13.6876 22.6184C13.364 22.6184 7.31709 22.6184 6.99404 22.6184C6.88372 22.9235 5.90052 25.6579 5.85527 25.7822C5.81061 25.9078 5.6693 25.9914 5.53222 25.9366C5.39457 25.8815 3.03637 24.9571 2.89699 24.9021C2.76222 24.8499 2.70004 24.6945 2.74836 24.5636C2.91393 24.0941 7.3631 11.7786 7.59086 11.1366C8.03135 9.8962 8.59794 8.61548 10.3368 8.61548ZM2.39027 31.0112C2.24992 31.0112 2.13672 31.1294 2.13672 31.2745V34.1991C2.13672 34.3452 2.25011 34.4616 2.39027 34.4616H18.2835C18.4227 34.4616 18.5349 34.3452 18.5349 34.1991V31.2745C18.5349 31.1296 18.4227 31.0112 18.2835 31.0112H2.39027ZM10.3235 12.7027L8.05965 19.5786H12.6228L10.3512 12.7027H10.3235ZM44.2828 23.9759C43.9499 24.0912 43.7301 24.1193 43.4675 24.1193C42.9265 24.1193 42.6254 23.9025 42.6254 23.3405C42.6254 22.7558 43.0081 22.5587 43.7574 22.5587C43.938 22.5587 44.1201 22.5857 44.204 22.6153V23.0337C44.204 23.4864 44.2275 23.7831 44.2828 23.9759ZM46.2059 24.6479C45.807 24.0332 45.7028 23.6713 45.7028 22.8964V21.3266C45.7028 20.4789 45.6058 20.1745 45.3836 19.865C45.0767 19.428 44.5646 19.2387 43.6205 19.2387C42.9542 19.2387 42.3058 19.3122 41.6791 19.473L41.9032 20.5911C42.3285 20.5313 42.7728 20.4789 43.0865 20.4789C44.0887 20.4789 44.2044 20.6264 44.2044 21.3862V21.6704C43.9817 21.6102 43.7304 21.5668 43.4397 21.5668C41.9319 21.5668 41.1358 22.3128 41.1358 23.5476C41.1358 24.7064 41.9854 25.3379 43.0227 25.3379C43.4112 25.3379 43.815 25.2656 44.1349 25.1347C44.3278 25.0484 44.4118 24.9989 44.6632 24.8337C44.8122 25.0568 45.1156 25.2831 45.2387 25.3238L46.2059 24.6479ZM61.1215 23.9759C60.7877 24.0912 60.5693 24.1193 60.3058 24.1193C59.764 24.1193 59.4577 23.9025 59.4577 23.3405C59.4577 22.7558 59.8453 22.5587 60.5961 22.5587C60.7773 22.5587 60.958 22.5857 61.0406 22.6153V23.0337C61.0404 23.4864 61.0651 23.7831 61.1215 23.9759ZM63.0448 24.6479C62.6438 24.0332 62.5408 23.6713 62.5408 22.8964V21.3266C62.5408 20.4789 62.4435 20.1745 62.2208 19.865C61.9145 19.428 61.4024 19.2387 60.4577 19.2387C59.7904 19.2387 59.1364 19.3122 58.5113 19.473L58.7344 20.5911C59.1593 20.5313 59.6054 20.4789 59.9257 20.4789C60.9247 20.4789 61.0406 20.6264 61.0406 21.3862V21.6704C60.8192 21.6102 60.5695 21.5668 60.2767 21.5668C58.7641 21.5668 57.967 22.3128 57.967 23.5476C57.967 24.7064 58.8176 25.3379 59.8607 25.3379C60.2486 25.3379 60.6525 25.2656 60.9717 25.1347C61.1665 25.0484 61.2491 24.9989 61.4992 24.8337C61.65 25.0568 61.954 25.2831 62.0764 25.3238L63.0448 24.6479ZM74.7863 25.2072C74.7863 25.2072 73.9606 23.4241 73.7592 23.0199C73.5307 22.5622 73.3206 22.246 72.8545 22.135V22.1075C73.1664 22.0477 73.4152 21.8561 73.6826 21.2733C73.9432 20.7043 74.0187 20.5818 74.1693 20.4476C74.3187 20.3112 74.5216 20.362 74.5216 20.362L74.599 19.309C74.3818 19.2802 74.1415 19.2794 73.894 19.2938C73.4845 19.3186 73.2717 19.4364 73.0702 19.6431C72.9138 19.8007 72.806 20.0358 72.6738 20.305C72.5319 20.5995 72.4202 20.8371 72.2758 21.1375C72.1316 21.4439 72.0598 21.5816 71.668 21.5816H71.4141V16.927H69.9013V25.207H71.4141V22.8267L71.6193 22.8222C72.0531 22.8222 72.1281 22.9307 72.3565 23.3925C72.6254 23.9442 73.1372 25.2072 73.1372 25.2072H74.7863ZM32.2558 25.2072H33.9987L31.364 17.0667C31.0875 16.9722 30.7425 16.9132 30.3762 16.9132C29.9761 16.9132 29.834 16.9671 29.5204 17.0667L26.7337 25.2072H28.4046C28.4046 25.2072 28.6294 24.4935 28.8966 23.607H31.7852C32.0442 24.4927 32.2558 25.2072 32.2558 25.2072ZM29.3212 22.2419C29.3212 22.2419 29.8019 20.609 29.8762 20.3535C30.071 19.6961 30.3615 18.6501 30.3615 18.6501H30.4101C30.4101 18.6501 30.678 19.7343 30.8546 20.3437C30.9216 20.5845 31.3827 22.2419 31.3827 22.2419H29.3212ZM48.7785 21.3124C48.2451 21.3124 47.8125 21.7517 47.8125 22.2914C47.8125 22.8335 48.2449 23.2694 48.7785 23.2694C49.3114 23.2694 49.7435 22.8335 49.7435 22.2914C49.7435 21.7517 49.3113 21.3124 48.7785 21.3124ZM36.0679 16.927H34.5547V25.207H36.0679V16.927ZM66.1419 20.5543C66.977 20.5736 67.0797 20.7471 67.0797 21.4581V25.2072H68.579V21.3264C68.579 20.4787 68.482 20.1743 68.2596 19.8648C67.9529 19.4279 67.3463 19.2385 66.3238 19.2385C65.3121 19.2385 64.6685 19.3474 63.8378 19.5973V25.207H65.3527V20.6264C65.7522 20.5679 65.8204 20.5543 66.1419 20.5543ZM39.8103 16.7801C38.8662 16.7801 38.3529 16.9683 38.0466 17.4054C37.8244 17.7147 37.727 18.0273 37.727 18.8756V19.5973H36.975V20.835H37.727V25.207H39.226L39.2225 20.835H40.72V19.5973H39.2225L39.226 18.9337C39.226 18.1748 39.3423 18.0275 40.3442 18.0275C40.4518 18.0275 40.5735 18.0334 40.704 18.0435L40.9406 16.8547C40.5696 16.8041 40.1913 16.7801 39.8103 16.7801ZM51.855 16.8565C52.37 16.8263 53.5196 16.7829 54.2437 16.7829C54.3723 16.7829 54.5074 16.784 54.6458 16.7903C56.0678 16.7903 56.8808 17.8374 56.8808 19.065C56.8808 19.8998 56.5031 20.454 55.6175 20.7849C56.6612 21.0183 57.2073 21.8424 57.2073 22.8487C57.2073 23.5879 56.999 24.1742 56.6194 24.5751C56.1304 25.0648 55.3886 25.3379 54.4015 25.3375C53.5194 25.3375 52.4172 25.3108 51.8549 25.2769V16.8565H51.855ZM54.2439 18.2141C53.9903 18.2141 53.6834 18.2182 53.375 18.2295C53.375 18.3647 53.375 20.0829 53.375 20.2177C53.4994 20.2177 54.2452 20.2177 54.2452 20.2177C54.5862 20.2177 54.8643 20.1207 55.0538 19.9335C55.2321 19.7584 55.3247 19.5089 55.3247 19.2128C55.3247 18.5782 54.9854 18.2171 54.3538 18.2141C54.3014 18.2141 54.2787 18.2141 54.2439 18.2141ZM54.2725 23.9112C54.2958 23.9112 54.3193 23.9112 54.3424 23.9112C55.1248 23.9112 55.6104 23.487 55.6152 22.6333C55.6063 22.3251 55.4912 22.0432 55.2848 21.8389C55.0553 21.6075 54.7332 21.4865 54.3559 21.4865C54.3559 21.4865 53.5019 21.4865 53.3748 21.4865C53.3748 21.6235 53.3748 23.7642 53.3748 23.9015C53.6515 23.9075 53.9556 23.9099 54.2725 23.9112Z" fill="white"/>
</svg>
