<svg width="150" height="30" viewBox="0 0 150 30" fill="none" xmlns="http://www.w3.org/2000/svg">
<path d="M23.5597 19.3803C23.998 19.3803 24.2485 19.9517 24.2485 21.1581C24.2485 21.793 23.998 22.5549 23.4345 23.4438C22.9336 24.3327 22.2448 25.1581 21.3682 25.92C20.5543 26.6819 19.6151 27.3168 18.5506 27.7612C17.5488 28.2692 16.547 28.4597 15.5452 28.4597C14.2303 28.4597 13.3537 27.2533 12.8528 24.9041C12.2267 25.9835 11.3501 26.8724 10.2856 27.5708C9.22121 28.2692 7.84371 28.6501 6.02791 28.6501C4.21212 28.6501 2.95985 28.1422 1.89542 26.9993C0.830987 25.92 0.330078 24.5231 0.330078 22.9358C0.330078 18.6184 1.77019 15.1898 4.5878 12.7136C5.77746 11.6977 6.9045 10.9993 7.96894 10.6819C9.03337 10.3644 10.0978 10.1739 11.2248 10.1739C12.3519 10.1739 13.2911 10.3644 14.0425 10.8089C14.4181 10.047 14.7938 9.72949 15.2321 9.72949C16.1087 9.72949 16.9227 10.1104 17.7367 10.8723C18.5506 11.6343 18.9263 12.3962 18.9263 13.0311C18.5506 13.8565 18.0497 14.8724 17.361 16.0152C17.1731 17.1581 17.0479 18.8089 17.0479 20.9041C17.0479 22.9993 17.2984 24.0787 17.8619 24.0787C18.488 24.0787 20.116 22.7454 22.6205 20.1422C23.0588 19.6343 23.3719 19.3803 23.5597 19.3803ZM5.84007 21.666C5.84007 23.6343 6.52882 24.5866 7.96894 24.5866C9.47166 24.5866 10.7865 23.7612 11.7884 22.1104C12.164 21.539 12.4145 20.8406 12.665 20.0787C12.665 17.2216 12.9154 14.8089 13.4163 12.7771C11.4127 13.1581 9.59689 14.1739 8.09416 15.7612C6.59144 17.3485 5.84007 19.3168 5.84007 21.666Z" fill="#C7C8CA"/>
<path d="M40.1519 16.8407C40.1519 16.0153 39.651 15.5709 38.7118 15.5709C38.0857 15.5709 37.3343 16.2058 36.5203 17.4756C35.7064 18.7455 35.1428 20.1423 34.7672 21.6026V21.6661C34.7672 22.555 34.8924 23.4439 35.1428 24.3328C35.3933 25.2217 35.5185 25.8566 35.5185 26.2375C35.5185 27.1264 34.4541 27.9518 32.3252 28.7772C32.0122 28.9042 31.6991 28.9677 31.4486 28.9677C30.8225 28.9677 30.3842 28.6502 30.1338 27.9518C29.8833 27.3169 29.7581 26.428 29.7581 25.2852C29.7581 24.1423 29.8207 23.0629 29.8833 22.1105C29.9459 21.0947 30.0085 20.2058 30.0711 19.3169C30.1338 18.4915 30.1964 17.7296 30.259 17.0947C30.3216 16.4598 30.3842 15.9518 30.3842 15.5074C30.3842 14.6185 30.0085 14.2375 29.1945 14.2375C28.4432 14.2375 27.504 15.1899 26.5022 16.9677C25.5003 18.809 24.9368 20.2693 24.9368 21.3486C24.9368 22.428 25.0621 23.4439 25.3125 24.3328C25.563 25.2217 25.6882 25.8566 25.6882 26.2375C25.6882 27.1264 24.6238 27.9518 22.4949 28.7772C22.1818 28.9042 21.8688 28.9677 21.6183 28.9677C20.9922 28.9677 20.5539 28.6502 20.3034 27.9518C20.053 27.3169 19.9277 26.301 19.9277 24.9042C19.9277 21.2852 20.053 18.682 20.366 17.0947C20.7417 14.7455 21.6183 12.5233 22.9332 10.3645C23.3715 9.66611 23.8724 9.28516 24.3733 9.28516C25.1873 9.28516 25.9386 9.98357 26.69 11.3169C26.8778 11.6979 27.0657 12.0153 27.1283 12.3328C28.318 10.809 29.7581 10.0471 31.386 10.0471C32.4505 10.0471 33.4523 10.428 34.2663 11.1264C35.1428 11.8248 35.5185 12.7772 35.5185 13.8566V14.301C37.0212 12.3963 38.8997 11.3804 41.0911 11.3804C42.4686 11.3804 43.4705 11.7613 44.1592 12.4598C44.8479 13.1582 45.2236 14.0471 45.2236 15.0629C45.2236 16.0788 45.161 17.0312 44.9732 17.8566C44.848 18.682 44.6601 19.5074 44.4723 20.2058C44.2844 20.9677 44.0966 21.6026 43.9714 22.174C43.8461 22.7455 43.7209 23.1899 43.7209 23.5074C43.7209 23.8248 43.8461 24.0153 44.034 24.0153C44.4097 24.0153 44.8479 23.7613 45.4115 23.3169C45.975 22.809 46.5385 22.301 47.0394 21.7296C47.6029 21.1582 48.1039 20.6502 48.5422 20.1423C48.9804 19.6344 49.2935 19.4439 49.4814 19.4439C49.857 19.4439 49.9823 19.8883 49.9823 20.7137C49.9823 22.4915 49.1057 24.2058 47.3525 25.9201C45.5993 27.5709 43.7209 28.4598 41.7173 28.4598C39.9015 28.4598 39.0249 26.809 39.0249 23.4439C39.0249 22.6185 39.1501 21.4756 39.4632 19.9518C40.0267 18.555 40.1519 17.4756 40.1519 16.8407Z" fill="#C7C8CA"/>
<path d="M60.8149 25.158C58.8113 27.5072 56.432 28.7135 53.677 28.7135C50.922 28.7135 48.8558 28.0151 47.4783 26.5548C46.1008 25.0945 45.412 23.3167 45.4746 21.2215C45.4746 18.1739 46.4138 15.5707 48.2922 13.4119C50.1706 11.2532 52.6752 10.1104 55.7432 10.1104C57.1207 10.1104 58.2478 10.3008 59.1244 10.6183C60.6271 11.2532 61.3159 11.8246 61.3159 12.3326C61.3159 12.7135 60.2514 12.9675 58.2478 12.9675C56.1815 12.9675 54.4284 13.7294 53.0509 15.1262C51.6734 16.5865 50.9846 18.3643 50.9846 20.5865C50.9846 21.7294 51.2977 22.6818 51.9864 23.4437C52.6752 24.2056 53.6144 24.5866 54.804 24.5866C55.9937 24.5866 56.9955 24.3326 57.8095 23.8246C56.0563 22.6183 55.1171 20.8405 55.1171 18.5548C55.1171 17.3485 55.5554 16.2056 56.432 15.2532C57.3086 14.2373 58.4356 13.7294 59.8757 13.7294C61.2532 13.7294 62.2551 14.1104 62.8812 14.8723C63.5073 15.6342 63.7578 16.65 63.7578 17.9199C63.7578 19.1262 63.4447 20.4596 62.8812 21.8564H63.1317C64.2587 21.8564 65.1979 21.4119 66.0119 20.65C66.3249 20.3326 66.5754 20.0786 66.7632 19.8246C66.9511 19.5707 67.2015 19.5072 67.3894 19.5072C67.7651 19.5072 67.8903 19.9516 67.8903 20.777C67.8903 22.3008 67.452 23.5072 66.5128 24.2691C65.6362 25.031 64.6344 25.412 63.5073 25.412C62.5055 25.412 61.5663 25.285 60.8149 25.158ZM60.5019 20.7135C60.9402 19.8246 61.128 18.9358 61.128 18.0469C61.128 17.158 60.8776 16.777 60.314 16.777C60.0636 16.777 59.8757 16.9675 59.7505 17.285C59.6253 17.6024 59.5001 17.9199 59.5001 18.2373C59.5001 19.2532 59.8131 20.0786 60.5019 20.7135Z" fill="#C7C8CA"/>
<path d="M149.663 24.9042C149.663 26.9995 147.972 28.7138 145.906 28.7138C143.84 28.7138 142.149 26.9995 142.149 24.9042C142.149 22.809 143.84 21.0947 145.906 21.0947C147.972 21.0947 149.663 22.809 149.663 24.9042Z" fill="#87D6F8"/>
<path d="M107.148 20.079C107.587 20.079 107.775 20.6505 107.775 21.8568C107.775 22.4917 107.524 23.2536 106.961 24.1425C106.46 25.0314 105.771 25.8568 104.894 26.6187C104.08 27.3806 103.141 28.0155 102.077 28.46C101.075 28.9679 100.073 29.1584 99.134 29.1584C98.1947 29.1584 97.506 28.9679 96.9425 28.6505C96.4416 28.2695 96.0033 27.8251 95.6902 27.1901C95.2519 26.3012 94.9388 24.6505 94.6258 22.2378C94.3753 19.8251 94.0623 18.1108 93.8118 17.1584C93.1857 17.0314 92.6221 16.7774 92.1212 16.3965C91.6203 16.0155 91.3699 15.5076 91.3699 14.9362C91.3699 14.3647 91.6203 13.9203 92.1212 13.6663C92.6221 13.4124 93.2483 13.2854 93.8744 13.2854C94.5632 13.2854 95.1267 13.4759 95.6276 13.7933C96.3163 13.2219 96.8799 12.5235 97.3182 11.6981C97.7564 10.8727 97.9443 9.79331 97.9443 8.45998C97.9443 7.12664 97.506 6.04728 96.5668 5.22188C95.6902 4.39648 94.3753 4.01553 92.6221 4.01553C90.869 4.01553 89.5541 4.14252 88.6149 4.45998C87.6757 4.71394 86.8617 5.03141 86.2356 5.34887C85.5468 5.66633 84.9833 5.98379 84.4824 6.23775C83.9815 6.49172 83.4806 6.6822 83.0423 6.6822C82.604 6.6822 82.3535 6.55521 82.3535 6.23775C82.3535 5.92029 82.604 5.47585 83.0423 4.84093C83.5432 4.20601 84.2319 3.5076 85.1711 2.87267C87.4878 1.22188 90.1176 0.396484 93.0604 0.396484C96.0033 0.396484 98.3826 0.967913 100.324 2.11077C102.578 3.4441 103.642 5.41236 103.642 8.07902C103.642 10.2378 103.079 12.079 101.952 13.5393C100.825 14.9997 99.3844 16.0155 97.6938 16.6505C98.0695 17.4759 98.3826 18.3647 98.633 19.3806C98.8835 20.333 99.134 21.2219 99.3218 22.0473C99.5723 22.8727 99.8227 23.5076 100.073 24.079C100.386 24.587 100.699 24.9044 101.138 24.9044C101.576 24.9044 102.077 24.6505 102.64 24.1425C103.204 23.6346 103.83 23.1266 104.393 22.5552C104.957 21.9838 105.521 21.4124 105.959 20.9044C106.648 20.333 106.961 20.079 107.148 20.079ZM90.8063 6.36474C91.1194 6.36474 91.3073 6.80918 91.3073 7.63458C91.3073 8.52347 91.2446 9.28537 91.182 10.0473C90.9316 11.5076 90.6811 12.9044 90.3054 14.1743C89.4288 17.6028 88.9279 19.6346 88.9279 20.206V25.7933C88.9279 27.1901 88.427 28.079 87.3626 28.587C86.8617 28.8409 86.4234 29.0314 85.9851 29.2219C85.5468 29.4124 85.0459 29.5393 84.4824 29.5393C83.4179 29.5393 82.917 28.333 82.917 25.8568C82.917 23.3806 83.4806 20.333 84.6076 16.587C85.7347 12.8409 86.9243 9.98379 88.114 8.07902C88.3644 7.69807 88.7401 7.31712 89.1784 6.87267C89.7419 6.55521 90.2428 6.36474 90.8063 6.36474Z" fill="#87D6F8"/>
<path d="M139.52 20.079C139.958 20.079 140.146 20.6505 140.146 21.8568C140.146 22.4917 139.895 23.2536 139.332 24.1425C138.831 25.0314 138.142 25.8568 137.265 26.6187C136.452 27.3806 135.512 28.0155 134.448 28.46C133.446 28.9679 132.319 29.1584 131.192 29.1584C130.065 29.1584 129.188 28.7774 128.5 28.0155C127.873 27.2536 127.56 26.4282 127.56 25.4759C127.56 24.5235 127.686 23.5076 127.999 22.3648C128.312 21.2219 128.625 19.9521 129.001 18.6822C129.94 15.3171 130.441 12.9044 130.441 11.5711C130.441 10.9997 130.378 10.5552 130.19 10.2378C130.065 9.92031 129.752 9.72983 129.314 9.72983C128.562 9.72983 127.748 10.1743 126.934 11.1267C126.058 12.0155 125.306 13.2219 124.555 14.6187C122.802 17.8568 121.925 21.0314 121.8 24.1425C121.863 24.5235 121.925 24.8409 121.925 25.2219C121.988 25.6028 121.988 25.9838 121.988 26.3647C121.988 27.1901 121.612 27.9521 120.798 28.587C119.984 29.2854 119.108 29.6028 118.168 29.6028C117.605 29.6028 117.167 29.2854 116.916 28.714C116.666 28.1425 116.478 27.4441 116.478 26.6187C116.478 25.7933 116.666 24.6505 117.041 23.1901C117.417 21.7298 117.855 20.206 118.294 18.5552C119.483 14.2378 120.109 11.0632 120.109 8.96793C120.109 7.88856 119.984 7.06317 119.734 6.42825C119.483 5.79332 118.982 5.53936 118.231 5.53936C116.853 5.53936 115.539 6.49174 114.224 8.45999C112.909 10.4282 111.719 13.4759 110.655 17.5394C110.404 18.6187 110.154 19.5076 110.029 20.333L109.966 21.0314C110.467 23.3806 110.655 24.9044 110.655 25.6028C110.655 27.0632 110.154 28.079 109.089 28.587C108.588 28.8409 108.15 29.0314 107.712 29.2219C107.274 29.4124 106.835 29.5394 106.334 29.5394C105.082 29.5394 104.456 28.333 104.456 25.9203C104.456 23.5076 105.145 18.7457 106.46 11.6981C106.961 9.1584 107.148 7.76158 107.148 7.44412C107.148 5.41237 106.647 4.33301 105.583 4.33301C105.207 4.33301 104.894 4.45999 104.644 4.65047C104.331 4.84094 104.08 5.09491 103.767 5.28539C103.454 5.53936 103.204 5.72983 102.891 5.92031C102.578 6.11079 102.265 6.23777 101.826 6.23777C101.451 6.23777 101.263 5.92031 101.263 5.2219C101.263 3.82507 101.889 2.68221 103.204 1.79333C104.456 0.904436 105.896 0.3965 107.649 0.3965C109.903 0.3965 111.218 1.47586 111.657 3.5711C111.782 4.20602 111.844 4.90444 111.907 5.60285C113.785 2.04729 116.102 0.333008 118.92 0.333008C121.988 0.333008 123.741 1.85682 124.242 4.84094C124.367 5.72983 124.43 6.61872 124.43 7.63459V7.95205C126.058 5.66634 127.999 4.52348 130.19 4.52348C133.321 4.52348 134.949 6.42825 134.949 10.3013C134.949 11.9521 134.698 13.9203 134.197 16.206C133.697 18.4282 133.321 20.079 133.07 21.0314C132.82 21.9838 132.695 22.7457 132.695 23.3171C132.695 24.2695 133.008 24.7774 133.697 24.7774C134.385 24.7774 135.951 23.4441 138.455 20.8409C138.956 20.333 139.332 20.079 139.52 20.079Z" fill="#87D6F8"/>
<path d="M85.9853 14.9997C86.6114 14.9997 86.9245 15.6346 86.9245 16.8409C86.9245 18.0473 86.674 19.3806 86.1105 20.7774C85.547 22.1743 84.733 23.5076 83.6059 24.8409C82.4789 26.1743 81.1014 27.2536 79.3482 28.206C77.595 29.1584 75.5914 29.6028 73.2747 29.6028C70.958 29.6028 68.8917 28.8409 67.1386 27.2536C65.3854 25.6663 64.5088 23.3806 64.5088 20.3965C64.5088 17.4124 64.9471 14.6822 65.7611 12.2695C66.575 9.8568 67.7021 7.76156 69.017 5.98379C70.3945 4.20601 71.8972 2.87268 73.6504 1.8568C75.4036 0.904421 77.0315 0.396484 78.5342 0.396484C81.2266 0.396484 82.6041 1.60283 82.6041 4.07902C82.6041 5.47585 82.3537 6.61871 81.8528 7.4441C81.3518 8.2695 80.8509 8.71395 80.2874 8.71395C79.5987 8.71395 78.9725 8.45998 78.4716 7.88855C77.9707 7.31712 77.3446 7.06315 76.7184 6.99966C76.0923 6.99966 74.3391 6.93617 72.899 9.28537C71.8972 10.9362 72.0224 10.8092 71.6467 11.8885C70.8954 14.1108 70.3945 15.8885 70.3945 18.8727C70.4571 20.333 71.7094 22.5552 72.8364 23.2536C73.5878 23.7616 74.527 24.1425 75.5914 24.0155C77.8455 23.6981 79.0978 22.6187 80.037 21.6663C80.9136 20.7139 81.6649 19.8885 82.4789 18.9362C83.2929 17.9838 83.9816 17.0949 84.6078 16.333C85.2339 15.4441 85.6722 14.9997 85.9853 14.9997Z" fill="#87D6F8"/>
</svg>
