<svg width="48" height="48" viewBox="0 0 48 48" fill="none" xmlns="http://www.w3.org/2000/svg">
<path d="M0 22C0 9.84973 9.84973 0 22 0V22H0Z" fill="#59DED6"/>
<path fill-rule="evenodd" clip-rule="evenodd" d="M26 37.8582C32.1314 36.9812 36.9812 32.1314 37.8582 26H45.9103C44.9592 36.5543 36.5543 44.9592 26 45.9103V37.8582Z" fill="#F5692D"/>
<path fill-rule="evenodd" clip-rule="evenodd" d="M26 10.142C32.1311 11.0194 36.9838 15.8704 37.8587 22.0002H45.9101C45.8968 21.8533 45.8821 21.7068 45.8659 21.5607C44.7219 11.2116 36.4078 3.02746 26 2.08984V10.142Z" fill="#FBEC9E"/>
<path fill-rule="evenodd" clip-rule="evenodd" d="M2.08984 26C3.04094 36.5543 11.4459 44.9592 22.0002 45.9103V37.8582C15.8688 36.9812 11.019 32.1314 10.1419 26H2.08984Z" fill="#192966"/>
</svg>
