<svg width="80" height="80" viewBox="0 0 80 80" fill="none" xmlns="http://www.w3.org/2000/svg">
<path d="M16.3172 28.0396C15.4422 29.098 14.0422 29.9328 12.6422 29.8135C12.4672 28.3825 13.1526 26.862 13.9547 25.9229C14.8297 24.8348 16.361 24.0596 17.6006 24C17.7464 25.4906 17.1776 26.9515 16.3172 28.0396ZM17.586 30.0967C15.5589 29.9775 13.8235 31.2743 12.861 31.2743C11.8839 31.2743 10.411 30.1564 8.80681 30.1862C6.72139 30.216 4.78181 31.4234 3.71723 33.3463C1.52973 37.1922 3.14848 42.8865 5.26306 46.0168C6.29848 47.5671 7.53806 49.2664 9.17139 49.2068C10.7172 49.1472 11.3297 48.1782 13.1964 48.1782C15.0776 48.1782 15.6172 49.2068 17.2506 49.177C18.9422 49.1472 20.0068 47.6267 21.0422 46.0764C22.2235 44.3175 22.7047 42.6032 22.7339 42.5138C22.7047 42.484 19.4672 41.2169 19.4381 37.4009C19.4089 34.2109 21.9901 32.6905 22.1068 32.601C20.6485 30.3949 18.3735 30.1564 17.586 30.0967ZM29.2964 25.7739V49.013H32.8256V41.0679H37.711C42.1735 41.0679 45.3089 37.9375 45.3089 33.406C45.3089 28.8744 42.2318 25.7739 37.8276 25.7739H29.2964ZM32.8256 28.8148H36.8943C39.9568 28.8148 41.7068 30.4843 41.7068 33.4209C41.7068 36.3574 39.9568 38.0419 36.8797 38.0419H32.8256V28.8148ZM51.7547 49.1919C53.9714 49.1919 56.0276 48.0441 56.961 46.2255H57.0339V49.013H60.3006V37.4456C60.3006 34.0917 57.6756 31.9302 53.636 31.9302C49.8881 31.9302 47.1172 34.1215 47.0151 37.1326H50.1943C50.4568 35.7016 51.7547 34.7624 53.5339 34.7624C55.6922 34.7624 56.9026 35.791 56.9026 37.6841V38.9661L52.4985 39.2344C48.4006 39.4878 46.1839 41.202 46.1839 44.1833C46.1839 47.1944 48.4735 49.1919 51.7547 49.1919ZM52.7026 46.4342C50.8214 46.4342 49.6256 45.51 49.6256 44.0939C49.6256 42.633 50.7776 41.7834 52.9797 41.6492L56.9026 41.3958V42.7076C56.9026 44.8839 55.0943 46.4342 52.7026 46.4342ZM64.661 55.3333C68.1026 55.3333 69.7214 53.9918 71.136 49.9223L77.3339 32.1538H73.7464L69.5901 45.8827H69.5172L65.361 32.1538H61.6714L67.6506 49.0726L67.3297 50.1012C66.7901 51.8452 65.9151 52.516 64.3547 52.516C64.0776 52.516 63.5381 52.4862 63.3193 52.4564V55.2439C63.5235 55.3035 64.3985 55.3333 64.661 55.3333Z" fill="black"/>
</svg>
