<svg width="77" height="42" viewBox="0 0 77 42" fill="none" xmlns="http://www.w3.org/2000/svg">
<path d="M25.6465 36.7599L25.5989 35.6377H21.032L20.9844 36.7599C21.0082 36.7674 21.032 36.7753 21.0558 36.7753C21.1829 36.7753 21.27 36.6042 21.3571 36.4558C21.5394 36.1443 21.7455 36.0741 22.1026 36.0741H22.689V40.8267C22.8951 40.7879 23.1012 40.772 23.3236 40.772C23.4896 40.772 23.7515 40.7879 23.9338 40.8267V36.0741H24.5208C24.9173 36.0741 25.0996 36.1523 25.2895 36.4792C25.369 36.6196 25.4561 36.7674 25.5751 36.7674C25.5989 36.7674 25.6227 36.7674 25.6465 36.7599Z" fill="#17468B"/>
<path d="M29.483 38.6764C29.483 39.3463 29.3164 40.4999 28.4124 40.4999C27.3975 40.4999 27.2233 39.4946 27.2233 38.7078C27.2233 37.9832 27.3899 36.8844 28.3415 36.8844C29.285 36.8844 29.483 37.9518 29.483 38.6764ZM30.7278 38.7152C30.7278 37.3208 29.8162 36.4639 28.4048 36.4639C27.1124 36.4639 25.9785 37.274 25.9785 38.6217C25.9785 40.0554 26.8906 40.9278 28.3253 40.9278C29.6734 40.9278 30.7278 40.0868 30.7278 38.7152Z" fill="#17468B"/>
<path d="M34.502 39.5801C34.502 40.1803 34.2007 40.437 33.6137 40.437C33.281 40.437 33.1382 40.4057 33.1382 40.1409V38.7853H33.2967C33.5109 38.7853 33.7646 38.8013 33.8755 38.8241C34.2564 38.9023 34.502 39.167 34.502 39.5801ZM34.2483 37.5855C34.2483 38.2011 33.9231 38.3802 33.3362 38.3802C33.2653 38.3802 33.2015 38.3802 33.1382 38.3723V37.0714C33.1382 36.9545 33.1858 36.9385 33.3843 36.9385C33.7884 36.9385 34.2483 37.04 34.2483 37.5855ZM35.7387 39.6582C35.7387 38.9177 34.9937 38.5052 34.3272 38.4504C34.8666 38.4036 35.3897 38.0533 35.3897 37.4765C35.3897 36.9778 34.9304 36.7285 34.4782 36.6429C34.1136 36.5728 33.8279 36.5728 33.3681 36.5728H31.4893C31.4893 36.7205 31.6954 36.7987 31.79 36.8997C31.9648 37.0794 31.9729 37.3521 31.9729 37.5934V40.8267H33.796C34.3987 40.8267 34.7638 40.7879 35.0965 40.6242C35.4536 40.453 35.7387 40.1335 35.7387 39.6582Z" fill="#17468B"/>
<path d="M38.9517 39.1436H37.5879L38.3096 37.4839L38.9517 39.1436ZM40.8468 40.8267L39.3169 37.0789C39.1817 36.7439 39.0946 36.5728 38.7613 36.5728H37.4851C37.4851 36.8061 37.9049 36.7519 37.9049 37.0789C37.9049 37.2038 37.8178 37.4143 37.7627 37.5467L36.3193 40.8267H36.8587L37.3899 39.6035H39.1184L39.602 40.8267C39.8 40.7874 40.0142 40.7799 40.2046 40.7799C40.4183 40.7799 40.6326 40.7953 40.8468 40.8267Z" fill="#17468B"/>
<path d="M45.2696 37.7492L45.222 36.7828C44.8893 36.5882 44.4213 36.4946 43.9848 36.4946C42.6848 36.4946 41.5195 37.3362 41.5195 38.6918C41.5195 40.1101 42.6058 40.8969 43.9696 40.8969C44.3737 40.8969 44.9683 40.7954 45.2458 40.5226V39.8996C44.9683 40.1957 44.6275 40.4216 44.1752 40.4216C43.1609 40.4216 42.7643 39.5025 42.7643 38.6296C42.7643 37.8348 43.1684 36.9077 44.0724 36.9077C44.3023 36.9077 44.4927 36.9545 44.6431 37.0714C44.7703 37.165 44.8498 37.3128 44.9445 37.5541C44.9921 37.6945 45.0873 37.7726 45.1901 37.7726C45.222 37.7726 45.2458 37.7646 45.2696 37.7492Z" fill="#17468B"/>
<path d="M50.0489 37.7492L50.0013 36.7828C49.6686 36.5882 49.2006 36.4946 48.7646 36.4946C47.4641 36.4946 46.2988 37.3362 46.2988 38.6918C46.2988 40.1101 47.3851 40.8969 48.7484 40.8969C49.153 40.8969 49.7481 40.7954 50.0251 40.5226V39.8996C49.7481 40.1957 49.4068 40.4216 48.955 40.4216C47.9402 40.4216 47.5436 39.5025 47.5436 38.6296C47.5436 37.8348 47.9477 36.9077 48.8517 36.9077C49.0816 36.9077 49.2721 36.9545 49.423 37.0714C49.5496 37.165 49.6291 37.3128 49.7238 37.5541C49.7714 37.6945 49.8666 37.7726 49.9699 37.7726C50.0013 37.7726 50.0251 37.7646 50.0489 37.7492Z" fill="#17468B"/>
<path d="M54.5836 38.6764C54.5836 39.3463 54.4169 40.4999 53.513 40.4999C52.4981 40.4999 52.3239 39.4946 52.3239 38.7078C52.3239 37.9832 52.49 36.8844 53.4416 36.8844C54.385 36.8844 54.5836 37.9518 54.5836 38.6764ZM55.8284 38.7152C55.8284 37.3208 54.9163 36.4639 53.5054 36.4639C52.213 36.4639 51.0791 37.274 51.0791 38.6217C51.0791 40.0554 51.9906 40.9278 53.4259 40.9278C54.774 40.9278 55.8284 40.0868 55.8284 38.7152Z" fill="#17468B"/>
<path d="M5.99409 31.3902C5.99409 32.1227 5.63759 32.4885 4.98733 32.4885C4.5989 32.4885 4.43229 32.4502 4.43229 32.1302V30.3929H4.62271C5.02682 30.3929 5.52615 30.4476 5.7961 30.79C5.91512 30.9463 5.99409 31.1642 5.99409 31.3902ZM5.69277 29.0059C5.69277 29.7071 5.34384 29.949 4.66221 29.949C4.58268 29.949 4.51127 29.949 4.43229 29.933V28.2813C4.43229 28.141 4.48747 28.1101 4.71738 28.1101C5.28866 28.1101 5.69277 28.4296 5.69277 29.0059ZM7.31841 31.4837C7.31841 30.58 6.45393 30.1047 5.69277 30.0346C6.31111 29.9798 6.90619 29.5279 6.90619 28.8267C6.90619 28.2111 6.38252 27.9076 5.85939 27.8061C5.44717 27.7205 5.11392 27.7205 4.59079 27.7205H2.65625C2.65625 27.8996 2.91808 28.0011 3.02087 28.1176C3.20318 28.3206 3.21129 28.6242 3.21129 28.9591V32.9095H5.08254C5.77229 32.9095 6.18452 32.8627 6.57294 32.6682C6.97759 32.4502 7.31841 32.06 7.31841 31.4837Z" fill="#17468B"/>
<path d="M10.8179 29.8161C10.8179 30.3147 10.62 30.7278 10.0487 30.7278C9.85879 30.7278 9.65268 30.7198 9.65268 30.5173V29.0761C9.73166 29.0527 9.86636 29.0373 10.0806 29.0373C10.2867 29.0373 10.4852 29.0995 10.5961 29.2084C10.7465 29.3488 10.8179 29.5667 10.8179 29.8161ZM13.2286 32.8627C13.2286 32.8393 13.2123 32.8313 13.1809 32.8234C13.1333 32.8159 13.0933 32.808 13.0457 32.8C12.8001 32.7458 12.5383 32.5586 12.277 32.2859C12.0308 32.0446 11.7219 31.6629 11.3649 31.2573L10.9689 30.8054C11.4044 30.6576 12.007 30.2913 12.007 29.6991C12.007 29.4423 11.9042 29.2084 11.7457 29.0601C11.3649 28.7098 10.7703 28.655 10.2077 28.655H7.99512C7.99512 28.8188 8.16174 28.8267 8.29644 28.9745C8.39977 29.0835 8.48686 29.2706 8.48686 29.6449V32.9095C8.67729 32.8702 8.90721 32.8627 9.0814 32.8627C9.23991 32.8627 9.46225 32.8702 9.65268 32.9095V31.094C9.76358 31.1015 9.85068 31.1249 9.97727 31.2418C10.3343 31.5927 10.7622 32.4337 11.3254 32.7378C11.6505 32.9169 12.1899 32.9483 12.4436 32.9483C12.6416 32.9483 13.0457 32.9329 13.1966 32.9095C13.2204 32.9015 13.2286 32.8856 13.2286 32.8627Z" fill="#17468B"/>
<path d="M15.1443 32.9095V28.7799C15.1443 28.7023 15.1048 28.6555 15.0253 28.6555H13.4873C13.4873 28.8033 13.6458 28.8187 13.7805 28.975C13.8914 29.092 13.9791 29.2786 13.9791 29.6762V32.9095C14.1451 32.8781 14.3513 32.8627 14.5579 32.8627C14.7402 32.8627 14.9858 32.8781 15.1443 32.9095Z" fill="#17468B"/>
<path d="M20.1039 29.6369L20.072 28.655H16.2348L16.1953 29.6449C16.211 29.6449 16.2348 29.6523 16.2505 29.6523C16.3376 29.6523 16.4014 29.5667 16.4566 29.4657C16.6232 29.1617 16.726 29.0761 17.115 29.0761H17.5667V32.9095C17.7414 32.8781 17.9632 32.8627 18.1537 32.8627C18.2884 32.8627 18.5735 32.8781 18.732 32.9095V29.0761H19.1842C19.6121 29.0761 19.6998 29.185 19.8659 29.4886C19.9135 29.5822 19.9768 29.6449 20.0482 29.6449C20.072 29.6449 20.0882 29.6449 20.1039 29.6369Z" fill="#17468B"/>
<path d="M22.3543 32.9095V28.7799C22.3543 28.7023 22.3148 28.6555 22.2353 28.6555H20.6973C20.6973 28.8033 20.8558 28.8187 20.9905 28.975C21.1014 29.092 21.189 29.2786 21.189 29.6762V32.9095C21.3551 32.8781 21.5612 32.8627 21.7673 32.8627C21.9502 32.8627 22.1958 32.8781 22.3543 32.9095Z" fill="#17468B"/>
<path d="M26.6242 31.733C26.6242 30.2918 24.674 30.4088 24.674 29.4891C24.674 29.1388 25.0386 28.9596 25.3399 28.9596C25.5223 28.9596 25.6726 28.9984 25.776 29.0527C25.9583 29.1462 26.0692 29.31 26.1325 29.4577C26.2277 29.6842 26.2991 29.7772 26.4419 29.7772C26.4657 29.7772 26.4895 29.7698 26.5133 29.7538L26.4419 28.7959C26.093 28.6476 25.744 28.5774 25.308 28.5774C24.9196 28.5774 24.555 28.6555 24.2612 28.7959C23.8571 28.9905 23.5715 29.3567 23.5715 29.7618C23.5715 31.2184 25.4828 31.0318 25.4828 32.0212C25.4828 32.3874 25.1414 32.5746 24.8006 32.5746C24.1979 32.5746 23.8014 32.1769 23.4844 31.7096V32.6756C23.9442 32.9095 24.3489 32.9951 24.8801 32.9951C25.8474 32.9951 26.6242 32.5278 26.6242 31.733Z" fill="#17468B"/>
<path d="M31.8798 32.9095V28.6555H30.714V30.3774H28.978V28.7725C28.978 28.7097 28.9385 28.6555 28.859 28.6555H27.3291C27.3291 28.8187 27.5033 28.8267 27.6461 29.0058C27.7489 29.1462 27.8127 29.3179 27.8127 29.6682V32.9095C28.0026 32.8706 28.2087 32.8627 28.4073 32.8627C28.5977 32.8627 28.7876 32.8706 28.978 32.9095V30.8372H30.714V32.9095C30.9044 32.8706 31.1105 32.8627 31.3091 32.8627C31.4995 32.8627 31.6894 32.8706 31.8798 32.9095Z" fill="#17468B"/>
<path d="M38.5321 30.8835H36.8593L37.7471 28.7566L38.5321 30.8835ZM40.5618 32.9095L38.802 28.3355C38.6511 27.9304 38.532 27.7205 38.1517 27.7205H36.8512C36.8512 28.0086 37.2873 27.9071 37.2873 28.3355C37.2873 28.4918 37.1921 28.7486 37.1206 28.9123L35.416 32.9095H36.0187L36.6527 31.3742H38.7144L39.277 32.9095C39.4755 32.8702 39.6735 32.8548 39.8959 32.8548C40.1415 32.8548 40.3319 32.8702 40.5618 32.9095Z" fill="#17468B"/>
<path d="M46.881 32.9095L46.2941 29.8394C46.2465 29.5906 46.1994 29.2786 46.1994 29.0138C46.1994 28.8969 46.2151 28.7485 46.2784 28.6555H45.4458C45.1764 28.6555 45.1131 28.7645 45.0017 28.9984L44.0268 31.0626L42.9957 28.8347C42.9324 28.6863 42.8929 28.6555 42.7263 28.6555H41.4182C41.4182 28.7799 41.5367 28.8421 41.6719 28.9436C41.7828 29.0292 41.8937 29.1616 41.8937 29.4035C41.8937 29.4811 41.8699 29.6294 41.8542 29.707L41.125 32.9095H41.6557L42.2984 29.9096L43.646 32.9796L45.1131 29.8474L45.7152 32.9095C45.8737 32.8781 46.1117 32.8627 46.3097 32.8627C46.4926 32.8627 46.7144 32.8781 46.881 32.9095Z" fill="#17468B"/>
<path d="M51.1966 31.9978C51.1804 31.9903 51.149 31.9823 51.1252 31.9823C50.8552 31.9823 51.0143 32.4656 50.2369 32.4656H49.2615V30.8527H50.7763V30.3848H49.2615V29.092H50.483C50.6729 29.092 50.8634 29.1462 50.9743 29.2318L50.9504 28.6555H47.6045C47.6045 28.8113 47.763 28.8347 47.8983 28.975C48.0092 29.092 48.0963 29.2706 48.0963 29.6528V32.5591C48.0963 32.8781 48.12 32.9095 48.4609 32.9095H50.911C51.0852 32.9095 51.1171 32.7691 51.1409 32.5352L51.1966 31.9978Z" fill="#17468B"/>
<path d="M54.6338 29.8161C54.6338 30.3147 54.4358 30.7278 53.8645 30.7278C53.6747 30.7278 53.468 30.7198 53.468 30.5173V29.0761C53.5475 29.0527 53.6822 29.0373 53.8964 29.0373C54.1026 29.0373 54.3006 29.0995 54.412 29.2084C54.5629 29.3488 54.6338 29.5667 54.6338 29.8161ZM57.0444 32.8627C57.0444 32.8393 57.0282 32.8313 56.9963 32.8234C56.9492 32.8159 56.9097 32.808 56.8616 32.8C56.616 32.7458 56.3547 32.5586 56.0928 32.2859C55.8472 32.0446 55.5378 31.6629 55.1807 31.2573L54.7848 30.8054C55.2208 30.6576 55.8229 30.2913 55.8229 29.6991C55.8229 29.4423 55.7201 29.2084 55.5616 29.0601C55.1807 28.7098 54.5862 28.655 54.0236 28.655H51.8115C51.8115 28.8188 51.9776 28.8267 52.1129 28.9745C52.2162 29.0835 52.3027 29.2706 52.3027 29.6449V32.9095C52.4932 32.8702 52.7231 32.8627 52.8978 32.8627C53.0563 32.8627 53.2781 32.8702 53.468 32.9095V31.094C53.5794 31.1015 53.6665 31.1249 53.7937 31.2418C54.1502 31.5927 54.5786 32.4337 55.1412 32.7378C55.4664 32.9169 56.0052 32.9483 56.2594 32.9483C56.4574 32.9483 56.8616 32.9329 57.0125 32.9095C57.0363 32.9015 57.0444 32.8856 57.0444 32.8627Z" fill="#17468B"/>
<path d="M58.9588 32.9095V28.7799C58.9588 28.7023 58.9193 28.6555 58.8398 28.6555H57.3018C57.3018 28.8033 57.4603 28.8187 57.595 28.975C57.7064 29.092 57.7935 29.2786 57.7935 29.6762V32.9095C57.9601 32.8781 58.1662 32.8627 58.3724 32.8627C58.5547 32.8627 58.8003 32.8781 58.9588 32.9095Z" fill="#17468B"/>
<path d="M63.919 29.832L63.8714 28.8655C63.5387 28.671 63.0702 28.5774 62.6342 28.5774C61.3342 28.5774 60.1689 29.4189 60.1689 30.7745C60.1689 32.1929 61.2552 32.9797 62.6185 32.9797C63.0231 32.9797 63.6177 32.8781 63.8952 32.6054V31.9824C63.6177 32.2785 63.2769 32.5044 62.8246 32.5044C61.8097 32.5044 61.4137 31.5847 61.4137 30.7123C61.4137 29.9176 61.8179 28.9905 62.7218 28.9905C62.9517 28.9905 63.1416 29.0372 63.2926 29.1542C63.4197 29.2478 63.4987 29.3955 63.5939 29.6369C63.6415 29.7772 63.7367 29.8554 63.8395 29.8554C63.8714 29.8554 63.8952 29.8474 63.919 29.832Z" fill="#17468B"/>
<path d="M67.2486 31.2264H65.8848L66.6065 29.5667L67.2486 31.2264ZM69.1437 32.9095L67.6132 29.1617C67.4785 28.8267 67.3914 28.655 67.0582 28.655H65.782C65.782 28.8889 66.2018 28.8347 66.2018 29.1617C66.2018 29.2866 66.1147 29.4966 66.059 29.6295L64.6162 32.9095H65.1556L65.6868 31.6863H67.4147L67.8989 32.9095C68.0969 32.8702 68.3111 32.8627 68.501 32.8627C68.7152 32.8627 68.9294 32.8781 69.1437 32.9095Z" fill="#17468B"/>
<path d="M73.8438 32.9095V28.6555H73.2968L73.3444 31.4991L71.0848 28.7959C71.0052 28.6943 70.9338 28.6555 70.7991 28.6555H69.5781C69.5781 28.8033 69.7842 28.8814 69.8795 28.983C70.0536 29.1616 70.0699 29.3801 70.0699 29.6762V32.9095H70.6087L70.5692 29.9021L72.5432 32.3018C72.6623 32.4496 72.8527 32.6367 72.9874 32.7149C73.1859 32.8313 73.4315 32.9095 73.741 32.9095H73.8438Z" fill="#17468B"/>
<path d="M38.4482 5.76118L37.7027 22.6446L34.4428 14.3509L36.1415 22.7371L30.8447 15.7693L34.5796 22.9364L21.4717 13.8284L33.0205 23.2905L25.6481 20.5926L31.5718 23.9454C26.063 23.9454 19.4674 19.6644 17.4414 10.7822C17.4414 10.7822 29.2169 10.9151 33.1482 16.0601C32.4081 8.81368 37.4999 1.98249 38.4482 1.05005C39.3965 1.98249 44.4882 8.81368 43.7482 16.0601C47.6795 10.9151 59.455 10.7822 59.455 10.7822C57.4295 19.6644 50.8334 23.9454 45.3246 23.9454L51.2483 20.5926L43.8753 23.2905L55.4247 13.8284L42.3167 22.9364L46.0517 15.7693L40.7555 22.7371L42.4541 14.3509L39.1937 22.6446L38.4482 5.76118Z" fill="white"/>
</svg>
