<svg width="150" height="88" viewBox="0 0 150 88" fill="none" xmlns="http://www.w3.org/2000/svg">
<path fill-rule="evenodd" clip-rule="evenodd" d="M30.6625 75.868C29.1036 75.868 27.8382 77.1619 27.8382 78.7561C27.8382 80.3539 29.1036 81.6466 30.6625 81.6466C32.2224 81.6466 33.4862 80.3539 33.4862 78.7561C33.4862 77.1619 32.2224 75.868 30.6625 75.868ZM145.575 73.7472C147.426 73.7472 148.781 74.8079 149.668 75.868V70.7465C148.214 69.7371 146.461 69.333 144.937 69.333C140.256 69.333 136.188 72.7635 136.188 78.6652C136.188 84.3161 139.885 87.9997 145.01 87.9997C146.489 87.9997 148.115 87.7705 149.668 86.6877V81.6647C148.781 82.6 147.378 83.5849 145.575 83.5849C142.816 83.5849 141.164 81.4921 141.164 78.8168C141.164 75.9158 142.914 73.7472 145.575 73.7472ZM136.718 69.8386H131.049L125.848 77.2529V69.8386H121.019L121.02 87.4947H125.848V79.9008L130.849 87.4947H136.891L130.162 78.3882L136.718 69.8386ZM106.756 80.4326V69.8386H102.098V87.4947H106.83L113.509 76.9001V87.4947H118.167V69.8386H113.434L106.756 80.4326ZM92.7589 77.7823H91.3812V73.7233H92.7589C94.8294 73.7233 95.124 74.8569 95.124 75.7403C95.124 76.4966 94.9029 77.7823 92.7589 77.7823ZM93.8175 69.8386H86.5486V87.4947H91.3812V81.6647H93.8175C98.6986 81.6647 100.104 78.1882 100.104 75.7403C100.104 73.318 98.7231 69.8386 93.8175 69.8386ZM72.1577 74.0743H75.9506V87.4947H80.7827V74.0743H84.5767V69.8386H72.1577V74.0743ZM58.7736 80.4326V69.8386H54.117V87.4947H58.8499L65.5258 76.9001V87.4947H70.1846V69.8386H65.454L58.7736 80.4326ZM44.3822 83.961H42.3128V80.2547H44.3822C45.9108 80.2547 46.7985 80.7096 46.7985 82.098C46.7985 83.5091 45.8869 83.961 44.3822 83.961ZM44.8516 76.7234H42.3128V74.0743H50.2233V69.8386H37.483L37.4824 87.4947L44.8516 87.4947C46.1068 87.4947 51.6283 87.5437 51.6283 82.0216C51.6283 76.6983 46.1575 76.7234 44.8516 76.7234ZM10.4481 78.6652C10.4481 84.3161 14.1447 87.9997 19.2702 87.9997C20.7504 87.9997 22.3765 87.7705 23.9297 86.6877V81.6647C23.0397 82.6 21.6353 83.5849 19.8371 83.5849C17.0761 83.5849 15.4261 81.4921 15.4261 78.8168C15.4261 75.9158 17.1752 73.7472 19.8371 73.7472C21.6848 73.7472 23.0397 74.8079 23.9297 75.868V70.7465C22.4722 69.7371 20.7242 69.333 19.1961 69.333C14.5133 69.333 10.4481 72.7635 10.4481 78.6652ZM0.334961 73.8988H2.97349V87.4947H7.43468V69.8386H0.334961V73.8988Z" fill="#231F20"/>
<path fill-rule="evenodd" clip-rule="evenodd" d="M75.0022 0C73.0156 0 71.0835 0.223484 69.2218 0.636809V26.6851C69.2218 29.8771 71.8244 32.4805 75.0174 32.4805C78.2088 32.4805 80.8107 29.8771 80.8107 26.6867C80.8107 23.6204 78.4147 21.1036 75.4027 20.9033V16.2647C80.9685 16.4665 85.4472 21.0708 85.4472 26.6867C85.4472 32.43 80.7618 37.1175 75.0174 37.1175C69.2707 37.1175 64.5861 32.43 64.5861 26.6851V2.11068C63.9276 2.39024 63.2844 2.70023 62.654 3.03345V26.6851C62.6548 33.4929 68.2093 39.0448 75.0174 39.0448C81.8264 39.0448 87.3785 33.4929 87.3785 26.6867C87.3785 20.007 82.0355 14.5369 75.4027 14.331V9.69391C84.5876 9.90138 92.0126 17.455 92.0126 26.6867C92.0126 36.049 84.3777 43.6819 75.0174 43.6819C65.6547 43.6819 58.0175 36.049 58.0175 26.6851V6.10936C52.1057 10.998 48.3359 18.3906 48.3359 26.6651C48.3359 41.3918 60.2748 53.3333 75.003 53.3333C89.7336 53.3333 101.669 41.3918 101.669 26.6651C101.669 11.9384 89.7336 0 75.0022 0Z" fill="#D91935"/>
</svg>
