<svg xmlns="http://www.w3.org/2000/svg" xmlns:xlink="http://www.w3.org/1999/xlink" width="112" height="112" fill="none" xmlns:v="https://vecta.io/nano"><path d="M29.391 36.358c0 .035 0 .035 0 0 0 .035-.035.07-.07.07.035 0 .035-.035.07-.07z" fill="#2f7abf"/><path d="M24.56 35.865c0 .035.035.07.07.035-.035 0-.035.035-.07.035v-.07c0 .035 0 .035 0 0z" fill="#d12828"/><path d="M24.489 75.227c-.035 0-.071.035-.106.035 0 0 .035-.035.035-.07.035 0 .071.035.071.035z" fill="#2f7abf"/><path d="M24.065 36.639h0c.035.035 0 .035 0 0 0 .035 0 .035 0 0zm-4.654 8.197c-.035 0-.07 0-.106-.035 0 0 .035 0 .106.035z" fill="#d12828"/><path d="M11.899 54.122c0 .07 0 .105-.035.141 0-.07.035-.106.035-.141z" fill="#2f7abf"/><path d="M11.017 53.242h.141c-.035 0-.07.035-.106.035h-.035c-.035 0-.07 0-.106-.035h.106z" fill="#d12828"/><path d="M10.453 53.453c-.106.07-.176.176-.212.281 0-.035.035-.035.035-.07.035-.035.035-.07.035-.105-.035-.176.035-.176.141-.106z" fill="#2f7abf"/><path d="M28.685 35.795l-.458-.176c-.141-.211.282-1.09.423-1.301.212-.246.247-.317.212-.598-.071-.281-.353-.281-.494-.281-.07 0-.458-.352-.599-.457-.035-.035-.282-.387-.564-.387s-.529.492-.6.598c-.176.281-.987 1.724-1.27 1.97-.035.035-.035.035-.071.035-.141 0-.176-.07-.247-.07s-.176.07-.282.141l-.141.141c-.07.07-.106.176-.141.281v.176c0 .035.035.07.071.035-.035 0-.035.035-.071.035a1.02 1.02 0 0 0 .353.211h.035c.035 0 .07.035.141.035.247.035.282-.352.529-.422.282-.07 1.693.105 1.763.176.176.106.176.176.388.176s.317-.176.67-.07c.07.035.176 0 .282-.035a.27.27 0 0 1-.07-.176c.141 0 .141-.035.141-.035zm-1.128-.316c-.141.105-1.481.035-1.587-.106-.212-.246 1.058-1.794 1.375-1.9.353-.105.917.281.988.598.035.211-.494 1.196-.776 1.407zm8.535 20.507l-.635-1.407c-.141-.246-.247-.528-.388-.774l-.423-.809c-.141-.281-.317-.528-.459-.774l-.458-.739c-.282-.492-1.129-1.724-1.129-2.146 0-.141.176-.457.353-.809.317-.598.776-1.337.741-1.583-.141-.879-.741-1.794-.776-2.146-.106-.633.317-3.307.635-3.588 0 0 .317-.246.317-.633s-.388-.879-.458-.915c-.176-.07-.635-.985-.635-1.196 0-.141-.035-.387-.176-.528-.176-.211-.564-.141-.67-.246-.176-.141-.811-.492-1.199-.774-.141-.106-.317-.211-.494-.317-.035.105-.106.176-.141.246v.176c0 .035 0 .035.035.07l.529 1.196c.212.422.141 1.161.176 1.442 0 .141 0 .352.247.528a.76.76 0 0 0 .599.105c.141-.035.67.528.776.809.106.352.035 3.025-.67 3.06h-.917c-1.023 0-2.575 0-2.998-.141-.529-.176-2.187-1.266-3.879-2.497l-.423-.317-1.234-.95a3.73 3.73 0 0 0-.423-.352l-1.27-1.09a2.39 2.39 0 0 1-.423-.422c-.282-.317-.423-.528-.388-.668s.917-.281 2.081-.387l1.164-.105c.212 0 .423-.035.635-.035.176 0 .353-.035.494-.035 1.869-.105 3.738-.105 4.162.035l.846-.703s.035-.07.071-.105c-.459.211-3.456.211-4.761.211h-.458l-.035.035v-.035h-.07c-.106 0-.423.035-.882.07l-4.056.317c-.07 0-.106 0-.141-.035-.212-.141-.353-.281-.529-.352a1.28 1.28 0 0 0-.388-.07c-.212 0-.388.035-.529.141s-.212.246-.247.457v.211a.52.52 0 0 0 .212.457c.106.07.282.141.494.141.247 0 .317-.035.564-.035.106 0 .564.352 1.129.809.141.141.317.246.494.387l1.481 1.231c.141.141.282.246.423.352l.6.528c.071.035.247.176.494.317l.459.316c1.234.844 3.209 2.251 3.209 3.131.035.95-.599 1.618-1.799 1.337l-3.632-1.161c-.317-.07-.494-.281-.635-.457l-.212-.211c-.141-.141-.353-.246-.599-.317-.141 0-.353-.07-.564-.07a2.37 2.37 0 0 0-.705 0c-.035 0-.106 0-.212-.035-.67-.141-2.398-.739-3.809-1.231l-.741-.281-1.058-.422c-.071-.035-.106-.07-.106-.07-.035-.07-.071-.176-.141-.281l-.212-.211a.57.57 0 0 0-.388-.176c-.141 0-.247.035-.388.141-.282.246-.317.492-.388.914-.035.141-.67 1.055-.987 1.337l-.952.879-.882.95c-.282.317-.529.598-.705.879-.071.105-.176.211-.212.316h.141c.035 0 .635-.387 1.516-.985l.67-.633c.317-.316 1.481-1.759 2.045-2.111.106-.07.423-.246.635-.176.106.035.317.105.6.246a9.79 9.79 0 0 1 .705.282l4.091 1.829.071.07c.353.281.846.563 1.34.633h.529c.494 0 1.164-.035 1.481.035.741.211 3.597.703 3.985 1.583.212.422-.212 1.372-.776 2.146-.459.633-.988 1.161-1.375 1.231-.741.105-3.879-.704-7.018-1.618l-2.01-.563-4.937-1.407c.106.281.317.598.67.915l4.303 1.055 1.763.422c.529.105 6.136 1.794 6.066 2.322-.035.211-.776.844-1.834 1.653l-1.622 1.196c-2.222 1.548-4.832 3.131-5.537 3.166-.917.035-1.904-2.849-1.799-3.096.106-.281.635-.457.741-.739.035-.035.035-.07.035-.141v-.141c-.035-.387-.353-.703-.741-.739-.035 0-.07.035-.106.035h-.035c-.035 0-.07 0-.106-.035-.176.035-.353.106-.458.211a.55.55 0 0 0-.212.281c-.035.07-.035.105-.071.176 0 .07-.035.141-.035.211 0 .141 0 .246-.035.387 0 .035-.035.07-.035.105-.071.07-.141.141-.282.211-.353.211-4.232 3.307-4.832 3.307-.564 0-.882-1.407-1.058-2.005-.106.07-.247.07-.353.07h-.106c.035.422.176.985.247 1.442l.247 2.181c.071.633.952.879 1.27 1.513l3.103 6.191c.141-.281.353-.492.6-.492s.317.035.529.105c-1.023-.598-2.151-3.342-2.257-3.588a173.95 173.95 0 0 1-1.834-3.799c-.106-.317.388-.809.564-1.055.071-.105 1.587-1.337 2.01-1.688s1.552-1.477 2.433-1.266c.282.07 1.305 2.638 1.27 2.92-.035.317-.106 1.372.423 1.583.458.211.705 1.126.987 1.935l.741 2.111c.071.246.176.457.247.704l.176.492.423 1.091.635 1.618.67 1.618.67 1.548c.423 1.02.705 2.322.564 2.427-.247.211-.529.457-1.093-.07-.282-.281-.599-.528-.917-.809l-1.905-1.618-.917-.774c-.599-.493-2.186-1.935-1.94-2.322.176-.317.282-.528.317-.704-.388.317-.635.563-.67.668-.071.317-.423.633-.846.668.6.07 2.151 1.653 2.716 2.181l.882.809.952.844.952.809.952.774 1.693 1.337c.388.281 1.164 1.231 1.27 1.407.317.422.846.422 1.093.422.212 0 3.562 1.653 3.95 1.864.317.211.353.457.846.457.423 0 .423-.211.741-.211l2.645-.176c-.212-.246-.353-.528-.317-.633v-.035c-.212.211-.564.317-.952.317-.388.035-1.023-.141-1.34-.281-.212-.106-.388-1.618-.141-1.653.07 0 .141-.035.212-.035.247-.07.353-.211.388-.352s0-.281 0-.457c0-.281-.035-.246-.07-.492-.035-.281.882-2.005 1.27-2.603l.564-.95.6-.985.564-.985.529-.985c.317-.633.882-2.533 1.164-2.498.353.035.846 6.824.952 7.774v.035c.035.246-1.305.493-1.27 1.091.035.739-.635 2.603-1.622 2.533.176.105.494.281.741.528h.035c.353-.246 1.693-2.111 2.116-2.216.141-.035.67-.035.846-.492.141-.317.07-.633-.071-.95l-.212-.317c-.141-.141-.07-.352-.07-.633v-1.02c0-.176 0-.387-.035-.598l-.035-.915-.141-1.9-.106-.879-.247-1.583c-.141-.563.423-1.126.423-1.548 0-.387-.388-.95-.247-1.548.07-.281.106-.563.176-.915l.141-.774v-.07l.141-.879.141-.95.247-3.518c.035-.563.67-1.337.635-2.251-.141-2.111-.635-3.729-.317-3.94.353-.211 1.481 2.357 1.622 2.603s1.411 2.849 1.446 3.307c.035.281-.071.492-.071.774 0 .352.212.457.247.774.035.352-1.199 5.945-1.799 6.05.212.07.423.141.564.141a.51.51 0 0 1 .212.07c.035-.106.106-.211.141-.352l.494-1.266c.176-.457.317-.95.458-1.477.141-.492.459-2.462.529-2.849.035-.141.6-.95.6-1.442-.071-.422-.846-.985-.917-1.196zM19.305 44.8s.035 0 .106.035c-.07 0-.106 0-.106-.035zm12.943-4.96s0-.141-.247-.422c-.141-.176-.282-.141-.423-.211-.282-.176-.988-1.618-.811-1.794s.67.317.952.563c.176.176.141.352.247.563.247.352.459.387.776.844.176.246.247.457.141.633-.176.211-.529-.07-.635-.176zm-8.076 38.377c-.635.035-3.879-1.477-3.985-1.689-.353-.739 3.985 0 4.162.422.176.492.247 1.231-.176 1.266zm1.023-3.271c-.07.105-.106.176-.141.176-.07.035-.353.07-.564.105-.035 0-.071.035-.106.035-.353.176-.353.422-.6.633-.035.035-.07.035-.106.07-.212.141-4.161-.563-4.408-.844-1.129-1.231-3.139-5.945-4.444-9.779a32.31 32.31 0 0 1-.635-2.005c-.529-1.829-.776-3.131-.494-3.307.212-.105 2.751.633 5.748 1.618.247.07.494.176.741.246l5.466 1.935c.212.07.388.141.599.211 1.834.703 3.139 1.301 3.209 1.548.282 1.091-3.456 8.161-4.267 9.357zm5.995-13.015a2.79 2.79 0 0 1-.212.774c-.247.703-.6 1.161-1.164 1.161-.212 0-1.552-.281-3.421-.739-.212-.07-.459-.105-.705-.176-1.516-.387-3.28-.879-4.937-1.372-.282-.07-.529-.176-.776-.246-2.715-.844-5.043-1.759-5.325-2.392-.494-1.055 3.245-3.025 3.597-3.271.141-.07.6-.387 1.234-.774.317-.176.635-.387 1.023-.563 1.093-.598 2.363-1.196 3.139-1.372 1.27-.246 3.174.457 4.62 1.126.247.105.459.211.67.317l1.411.739c.458.246 1.093 1.337 1.058 2.427.035 1.126.07 2.955-.212 4.362zm.423-7.457c-.353.106-1.27-.176-2.363-.598-.212-.07-.423-.176-.635-.281-1.834-.809-3.879-1.9-4.161-2.181-.282-.246 0-.95.458-1.618.494-.703 1.234-1.407 1.834-1.513 1.199-.246 3.209.528 4.091.985.212.105.388.211.423.281.106.176.212.528.317.95.282 1.477.388 3.834.035 3.975zm.776-6.05c-.212.105-.494.141-.846.105-.071 0-.247-.035-.423-.035-1.128-.141-3.703-.633-3.879-1.512-.141-.668.141-1.548.635-1.759.811-.387 2.151-.422 3.174-.281.176.035.353.035.494.07.247.035.494.105.635.176 1.058.457.564 1.266.776 1.794.141.492.071 1.196-.564 1.442z" fill="#d12828"/><g fill="#2f7abf"><path d="M10.206 53.735c-.035.07-.035.105-.071.176-.07.07-.141.141.071-.176zM9.077 67.946c.176-.141.529-.387.882-.563-.212.176-.564.422-.882.563zm25.639-3.342c-.07-.035-.141-.07-.212-.07-.141 0-.353-.07-.564-.141-.247-.105-.494-.211-.635-.352-.141-.105-.811-.774-1.658-1.618v.07c-.035.281-.07.528-.141.774l1.481 1.688c.247.317.388.528.388.563-.247.493.141.739.176 1.02.035.211-1.129 5.487-1.834 6.543v1.02c0 .246-.07.457.071.633l.212.317c.035-.281.071-.633.176-.915l.458-1.618.494-1.864.459-1.864c.141-.598.917-2.498 1.128-2.638.035-.035.388-.141.388-.528s-.141-.844-.388-1.02zm-3.596-16.11c.176.035.353.035.423.07a1.99 1.99 0 0 0 .846-.105c-.529.105-.776-2.603-.882-3.412a2.09 2.09 0 0 0-.494-.07c.247 1.829.317 3.377.106 3.518zm.458 2.04c-.07-.422-.212-.774-.317-.95-.035-.07-.176-.176-.423-.281-.212.774-1.164 2.638-2.222 4.291l.635.281c.952-1.864 2.081-3.623 2.328-3.342zm-2.61 3.904l-.67-.317c-.917 1.407-1.834 2.568-2.328 2.673s-4.832-1.724-5.431-2.427l-1.023.563c.741.035 4.832 2.111 4.796 3.236 0 .387-2.116 1.829-4.303 3.236l.776.246c.035 0 .035-.035.07-.035 1.023-.563 3.703-2.603 4.726-2.216.247.07.247 1.583.141 3.623l.705.176c.353-1.864.705-3.201.988-3.271.494-.106 2.151 1.372 3.597 2.849l.212-.774c-1.481-1.513-3.209-3.412-3.386-4.256-.106-.528.423-1.9 1.128-3.306zm.423-18.045s-.035.035-.071.035c-.035.035-.071.106-.071.106l-.846.703-4.832 3.975.423.317c2.116-1.864 4.585-3.799 5.22-3.693.494.07 1.199 3.412 1.657 6.367h.494l-.247-1.513-.388-2.286-.388-1.97-.247-1.407v-.176c.035-.07.106-.176.141-.246a.3.3 0 0 0 0-.246c-.035-.106.353-.352.388-.352.106 0 .388-.106.388-.387a.32.32 0 0 0-.317-.352c-.071 0-.423-.317-.423-.387-.035-.105-.071-.211-.353-.211s-.353.211-.353.352c0 .105-.317.492-.423.563-.035 0-.353.105-.423.246 0 .035-.035.035-.035.07a.27.27 0 0 0 .07.176c.071.105.176.176.282.176a.51.51 0 0 0 .247-.07c.141-.035.141.105.106.211zm.106-.598c.035-.106.212-.422.459-.528.212-.07.423.211.388.422-.035.141-.353.492-.494.457-.071 0-.141 0-.212.035-.106-.07-.176-.141-.212-.246.07-.035.07-.106.07-.141zm-1.094 42.352l-.141-.07c-.282-.035-1.869-.879-2.539-1.442-.035.141-.141.281-.388.352.846.387 2.151 1.266 2.186 1.653v.035c-.035.106.106.387.317.633.282.317.67.563 1.093.422.705-.281.564-.739.212-1.09-.247-.211-.529-.422-.741-.493zm-2.151-14.071l-.599-.211c-.282 4.397-.988 10.518-1.234 11.327.035.035.07.035.07.035.176-.035.459-.07.564-.106.035 0 .07-.07.141-.176-.317 0 .317-6.402 1.058-10.869z"/><path d="M16.024 64.604c-.106-.493 1.058-.915 1.658-1.231l2.504-1.442-.741-.246c-2.222 1.337-4.408 2.533-4.655 2.392-.212-.141-.423-.387-.635-.703l.635 2.005c.776-.704 2.751 2.111 3.527 3.166s5.889 7 5.466 7.352c.247-.211.247-.457.6-.633 0 0 .035-.035.035-.07-1.023-.844-8.252-9.92-8.393-10.588zm4.48-20.015l.212.211c-.035-.176 1.27-1.442 2.857-2.849-.176-.105-.317-.211-.458-.316l-.529.422c-.564.457-2.292 2.181-2.857 2.146-.458-.141 1.446-2.357 2.292-3.412a3.65 3.65 0 0 1-.423-.352c-1.34 1.864-2.786 3.729-3.209 3.693a.62.62 0 0 0 .212.035 2.37 2.37 0 0 1 .705 0l.6.105c.247.07.458.211.599.317zm-10.439 9.99c0-.035.035-.07.035-.106.035-.141.035-.211.035-.387 0-.07 0-.141.035-.211-.071.07-.176.141.07-.176 0-.035.035-.035.035-.07-.529.563-5.043.844-5.607.668-.564-.211 1.516-4.573 2.328-4.608.494-.035 3.35 3.236 3.28 3.975.035-.035.07-.07.07-.105 0-.176.071-.176.141-.106.141-.105.282-.176.458-.211-.705-.457-3.103-4.221-2.68-4.502.6-.387 4.408 1.864 4.655 2.392s-1.199 1.864-1.693 2.111c.388.07.67.352.741.739 0-.352.176-.879.564-1.266.494-.457.67-.879 1.411-.879.987 0 1.516.633 2.504 1.161.917.528 2.539 1.442 2.222 1.759l-.141.141 1.622-1.196c-.106.07-.176.105-.247.141-.705.528-5.149-2.181-5.325-2.955-.212-1.09.6-1.161 1.305-1.196l-1.763-.422c.353.281.176 1.02-.635 1.02-.705 0-2.61-1.055-3.668-2.111-.317-.317-.564-.633-.67-.915-.035-.07-.035-.176-.035-.246 0-.317 2.045-1.829 4.655-3.658l-.705-.281-3.985 2.673-1.516.985H7.42c-.212-.035-.529 0-.705.141-.458.387-.212.809-.141 1.055.071.176-.071.387-.212.633l-1.27 2.673-1.164 2.814c-.106.246-.423.492-.6.598-.071.035-.529.281-.529.668 0 .352.282.809.635.879h.106c.106 0 .247-.035.353-.07.282-.141.494-.352.529-.352.106-.105.282-.422.458-.422.635-.07 4.726-1.126 5.184-.774z"/><path d="M19.728 45.996h-.529c-.494-.07-.987-.352-1.34-.633.423.528-2.398 3.482-3.068 3.447-.282 0-.564-.035-.776-.035l2.01.563a.74.74 0 0 0-.141-.211c-.212-.352 3.174-3.06 3.844-3.131zm-5.925 18.397c.176.809-4.303 2.779-4.373 2.744h-.035c-.212-.035-.282-.105-.529-.105-.212 0-.458.246-.6.492-.071.176-.106.387-.071.528.247.633.635.844.987.809.423-.035.811-.317.846-.668 0-.106.282-.352.67-.668.952-.774 2.645-1.864 3.491-1.97-.07-.176-.106-.352-.176-.492-.035-.211-.141-.422-.212-.668zm-4.726 3.553c.176-.141.529-.387.882-.563-.212.176-.564.422-.882.563zm9.981-30.885c-.353-.035 1.023-1.301 1.199-1.407.07-.07.353-.106.494-.387.07-.141 1.375-.704 1.587-.633.176.07.212.176.423.176.106 0 .353-.035.423-.035.176 0 1.164.633 1.34.95.035-.105.071-.176.141-.281.035-.035.07-.105.141-.141.106-.105.212-.141.282-.141.106 0 .106.07.247.07 0 0 .035 0 .07-.035-.212-.422-.07-2.181.106-2.392.212-.211-.035-.844-.423-.985-.353-.141-1.093-.633-1.164-.844-.106-.281-.388-.176-.67-.07-.317.106-.247.281-.282.422-.07.246-.846.985-1.234 1.477l-1.129 1.688c-.07.035-.458-.07-.705.317-.106.246-.141.633-.212.703-.106.141-.882.914-1.375 1.161.176.07.317.211.529.352.07 0 .141.035.212.035zm4.726-5.452c.353-.141.6.211.917.563.07.07-.176.387-.106.528.176.281.212.211.282.457.071.317.212 2.005-.353 2.04-.388-.211-.882-.668-1.128-.915s.07-2.533.388-2.673zm-.811.598c.212.035-.07 1.689-.317 1.864-.212.176-.917.492-1.128.105-.141-.317 1.058-2.04 1.446-1.97z"/><path d="M24.066 36.639h.494c.106-.211.247-.387.388-.457h-.035c-.176-.035-.282-.105-.353-.211 0-.035-.035-.035-.035-.07a3.36 3.36 0 0 1-1.34.809c-.035 0-.071.035-.106.035l.882-.07c.07 0 .07-.035.106-.035zm-.318.598l-1.799 2.673c.141.105.282.246.423.352l1.023-1.618.846-1.442c-.176 0-.353.035-.494.035z"/><path d="M23.113 37.273l-1.164.105-1.693 1.02c.106.141.247.281.423.422l2.433-1.548zm-3.033 1.934c-.176-.141-.317-.281-.494-.387l-3.738 2.427-2.046 1.372.741.281 5.537-3.693zm-7.582 2.638c.071.106.141.176.141.281a.43.43 0 0 0 .106.07c-.141-.246.106-.492.388-.739l2.151-1.724 2.116-1.829c-.07-.07-.141-.211-.176-.422-.564.528-1.693 1.442-2.257 1.9l-2.116 1.829c.67-1.196 2.257-4.01 2.716-4.221.353-.141 1.27.035 1.658.246 0-.211.106-.387.247-.457-.529-.176-1.411-.703-1.728-.985-.282-.281-.317-.387-.67-.211-.388.176-.423.492-.423.668 0 .281-.846 1.935-1.234 2.779-.317.703-.987 2.04-1.481 2.462.141 0 .282.07.388.176l.176.176z"/></g><g fill="#58595b"><path d="M45.049 43.886v4.538h4.444c1.517 0 3.633.281 4.867 2.322.917 1.513.952 3.447.952 4.925 0 1.266-.071 3.095-.952 4.573-1.234 2.04-3.245 2.322-4.796 2.322H46.53c-.811 0-1.693-.035-2.187-.422-.599-.492-.67-1.266-.67-1.794V43.886h1.375zm0 16.322c0 .281 0 .633.176.844s.599.246.811.246h3.244c1.058 0 2.998-.07 3.95-1.864.494-.879.6-2.04.6-3.342 0-1.372-.141-3.377-.564-4.362-.811-1.829-2.575-2.04-3.879-2.04h-4.338v10.518zm13.648-10.413c1.375-1.372 3.456-1.548 5.22-1.548 1.799 0 3.844.176 5.22 1.548 1.552 1.513 1.763 4.01 1.763 5.593 0 3.06-.846 4.784-1.763 5.698-1.552 1.513-3.985 1.583-5.22 1.583-1.27 0-3.703-.07-5.22-1.583-.917-.915-1.763-2.638-1.763-5.698 0-1.548.212-4.045 1.763-5.593zm.882 10.307c1.128 1.231 2.927 1.372 4.338 1.372 1.446 0 3.245-.141 4.338-1.372 1.164-1.266 1.164-3.412 1.164-4.573 0-1.231 0-3.447-1.129-4.714-1.093-1.196-3.033-1.301-4.373-1.301s-3.28.105-4.373 1.301c-1.129 1.266-1.129 3.482-1.129 4.714 0 1.161-.035 3.307 1.164 4.573zm18.55 2.462c-1.199 0-2.539.07-3.421-.809-.882-.844-.952-2.251-.952-3.904V49.69h-1.94v-1.266h1.94v-4.538h1.375v4.538h3.915v1.266h-3.915v7.844c0 1.196-.07 2.814.811 3.447.317.211.952.352 2.504.352h.741v1.266h-1.058v-.035zm3.492 0V43.921h1.375v18.643h-1.375zm9.275 0l-5.748-5.276c-.317-.281-1.093-1.055-1.093-2.04 0-.774.423-1.372 1.129-2.04l5.114-4.784h1.869l-6.136 5.769c-.388.387-.494.774-.494 1.02 0 .492.388.985.741 1.337l6.524 6.015h-1.904zm2.962-16.708v-1.97h1.481v1.97h-1.481zm.07 2.568h1.375v14.141h-1.375V48.423zm4.128 1.829c0-.387.035-.95.317-1.301.388-.492.952-.528 1.375-.528h5.078c1.34 0 2.433.176 3.28 1.055.423.422 1.093 1.337 1.093 3.271v9.814h-1.375v-9.462c0-1.196-.141-1.935-.6-2.533-.599-.739-1.375-.879-2.292-.879h-5.008c-.141 0-.282 0-.388.105-.071.105-.071.317-.071.422v12.347H98.09V50.253h-.035zM43.709 66.257h.353l1.023 2.357.987-2.357h.353v2.744h-.247v-2.462l-1.058 2.462h-.141l-1.058-2.462v2.462h-.212v-2.744zm3.526 0h1.657v.211h-1.446v1.02h1.375v.176h-1.375v1.126h1.516v.211h-1.728v-2.744zm2.011 2.533h.212c.317-.317.494-.879.494-1.794v-.739h1.658v2.533h.317v.879h-.212v-.703h-2.257v.703h-.212v-.879zm2.151 0v-2.357h-1.199v.563c0 .95-.176 1.477-.423 1.794h1.622z"/><use xlink:href="#B"/><path d="M57.569 69.001h-2.151v-2.744h.212v2.533h1.587v-2.533h.212v2.533h.317v.879h-.212v-.668h.035z"/><use xlink:href="#B" x="5.82"/><path d="M61.272 66.257h.212v1.231h1.587v-1.231h.212v2.744h-.176v-1.337H61.52v1.337h-.212v-2.744h-.035zm5.149 2.322c-.212.281-.529.492-.987.492-.811 0-1.411-.598-1.411-1.442s.6-1.442 1.411-1.442c.388 0 .741.141.952.387l-.176.141a1.01 1.01 0 0 0-.776-.352c-.741 0-1.199.563-1.199 1.231s.458 1.231 1.199 1.231a1.06 1.06 0 0 0 .846-.387l.141.141zm.564-2.322h.212v1.231l1.34-1.231h.317l-1.375 1.231 1.446 1.477h-.317l-1.411-1.477v1.477h-.212v-2.709z"/><use xlink:href="#B" x="16.894"/><path d="M72.311 66.257h1.658v.211h-1.446v1.02h1.375v.176h-1.375v1.126h1.517v.211h-1.728v-2.744z"/><use xlink:href="#C"/><path d="M80.351 68.579c-.212.281-.529.492-.987.492-.811 0-1.411-.598-1.411-1.442s.6-1.442 1.411-1.442c.388 0 .741.141.952.387l-.176.141c-.176-.211-.459-.352-.776-.352-.741 0-1.199.563-1.199 1.231s.459 1.231 1.199 1.231c.317 0 .6-.105.846-.387l.141.141z"/><path d="M80.563 69.001l.035-.211c.07 0 .106.035.176.035.494 0 .67-.598.67-1.97v-.598h1.622v2.744h-.212v-2.533h-1.164v.492c0 1.337-.176 2.075-.846 2.075-.106-.035-.212-.035-.282-.035z"/><use xlink:href="#C" x="8.146"/><path d="M86.347 66.257h1.516v.211h-1.305v2.533h-.212v-2.744z"/><use xlink:href="#B" x="35.831"/><path d="M92.13 67.629c0-.844.599-1.442 1.411-1.442s1.411.598 1.411 1.442-.6 1.442-1.411 1.442c-.776 0-1.411-.598-1.411-1.442zm2.645 0c0-.668-.459-1.231-1.199-1.231s-1.199.563-1.199 1.231.458 1.231 1.199 1.231 1.199-.563 1.199-1.231zm.882-1.372h.212v1.231h1.587v-1.231h.212v2.744h-.212v-1.337h-1.552v1.337h-.212v-2.744h-.035zm2.504 2.744l.035-.211c.071 0 .106.035.176.035.494 0 .67-.598.67-1.97v-.598h1.622v2.744h-.212v-2.533H99.29v.492c0 1.337-.176 2.075-.846 2.075-.106-.035-.212-.035-.282-.035zm4.161-2.744h.212l1.164 2.744h-.247l-.318-.739h-1.481l-.317.739h-.247l1.234-2.744zm.741 1.794l-.635-1.583-.67 1.583h1.305zm1.128-1.794h.212v2.392l1.622-2.392h.247v2.744h-.211v-2.427l-1.623 2.427h-.247v-2.744zm.494-.739l.141-.035c.035.211.212.352.388.352.212 0 .353-.106.388-.352l.141.035c-.035.281-.247.492-.529.492-.282-.035-.494-.211-.529-.492zm2.434.739h.212v1.231h1.587v-1.231h.211v2.744h-.176v-1.337h-1.587v1.337h-.212v-2.744h-.035z"/></g><defs ><path id="B" d="M52.525 66.257h.212v2.392l1.622-2.392h.247v2.744h-.212v-2.427l-1.622 2.427h-.247v-2.744z"/><path id="C" d="M75.591 69.001l.035-.211c.035 0 .106.035.176.035.176 0 .282-.106.423-.317l.212-.387-1.058-1.864h.247l.952 1.653.917-1.653h.247l-1.305 2.322c-.141.246-.317.422-.599.422h-.247z"/></defs></svg>