<svg width="48" height="48" viewBox="0 0 48 48" fill="none" xmlns="http://www.w3.org/2000/svg">
<rect x="10" y="2" width="28" height="33" rx="2" fill="#192966"/>
<rect x="6" y="6" width="36" height="33" rx="2" fill="#F5692D"/>
<rect x="2" y="10" width="44" height="36" rx="2" fill="#FBEC9E"/>
<path d="M6 10H42V40C42 41.1046 41.1046 42 40 42H8C6.89543 42 6 41.1046 6 40V10Z" fill="white"/>
<path d="M14 20C14 18.8954 14.8954 18 16 18H32C33.1046 18 34 18.8954 34 20V32C34 33.1046 33.1046 34 32 34H16C14.8954 34 14 33.1046 14 32V20Z" fill="#59DED6"/>
<rect x="22" y="18" width="4" height="4" fill="white"/>
</svg>
