<svg width="150" height="35" viewBox="0 0 150 35" fill="none" xmlns="http://www.w3.org/2000/svg">
<path fill-rule="evenodd" clip-rule="evenodd" d="M56.357 8.41039L48.0651 8.41039V14.3496L56.0627 14.3496V17.8565H48.0651V29.6264H44.4746V4.90234L56.3559 4.90234L56.357 8.41039Z" fill="#3D3D3D"/>
<path fill-rule="evenodd" clip-rule="evenodd" d="M62.9835 17.1925C62.9835 19.9233 63.8664 22.1688 65.6344 23.9279C67.3905 25.688 69.4201 26.567 71.7211 26.567C74.2173 26.567 76.3232 25.6724 78.04 23.8809C79.7557 22.067 80.6135 19.8584 80.6135 17.2573C80.6135 14.6227 79.7655 12.4152 78.0705 10.6337C76.3853 8.84115 74.299 7.9454 71.8138 7.9454C69.3372 7.9454 67.2466 8.84115 65.5418 10.6337C63.8359 12.404 62.9835 14.5902 62.9835 17.1925ZM59.3613 17.1522C59.3613 13.6732 60.5887 10.6841 63.0456 8.18583C65.4894 5.6876 68.4282 4.43848 71.8596 4.43848C75.2495 4.43848 78.1577 5.69878 80.5819 8.21826C83.017 10.7366 84.2346 13.7638 84.2346 17.2976C84.2346 20.8515 83.0127 23.8675 80.5667 26.3445C78.1119 28.8315 75.1471 30.0739 71.6743 30.0739C68.6026 30.0739 65.8448 28.9691 63.3999 26.7605C60.7075 24.3148 59.3613 21.1131 59.3613 17.1522Z" fill="#59C341"/>
<path fill-rule="evenodd" clip-rule="evenodd" d="M116.293 26.1195H117.91C119.524 26.1195 120.864 25.9428 121.932 25.5905C123.009 25.2125 123.996 24.6072 124.831 23.8136C126.597 22.1373 127.481 19.9555 127.481 17.2649C127.481 14.5531 126.609 12.3546 124.861 10.6671C123.29 9.16187 120.972 8.41039 117.91 8.41039H116.293V26.1195ZM112.702 29.6264V4.90346L117.694 4.90346C120.089 4.90346 121.979 5.14948 123.367 5.63929C124.856 6.12015 126.208 6.93649 127.42 8.08944C129.874 10.4155 131.104 13.4751 131.104 17.2649C131.104 21.0648 129.823 24.139 127.265 26.4874C125.981 27.6616 124.636 28.4779 123.227 28.9375C121.913 29.396 120.048 29.6264 117.633 29.6264H112.702ZM138.069 18.9457L130.303 4.90346L134.434 4.90346L139.873 14.7823L145.328 4.90346L149.459 4.90346L141.66 18.9457V29.6253H138.069V18.9457ZM105.005 4.90346V23.0856L91.0564 4.90234H87.5967V29.6264H91.1883V11.4118L105.136 29.6264H108.596V4.90346L105.005 4.90346Z" fill="#3D3D3D"/>
<mask id="mask0" mask-type="alpha" maskUnits="userSpaceOnUse" x="0" y="0" width="34" height="35">
<path d="M0.330078 34.2152L33.1507 34.2152L33.1507 0.0673828L0.330078 0.0673828L0.330078 34.2152Z" fill="white"/>
</mask>
<g mask="url(#mask0)">
<path fill-rule="evenodd" clip-rule="evenodd" d="M16.5998 0.0673828L16.1169 0.365963L10.6057 3.79237L10.1763 4.07753L10.1763 10.123L5.69954 12.8996L5.25263 13.1859V19.2313L0.776988 22.0091L0.330078 22.2943L0.330078 30.1983L0.730117 30.4835L6.24237 33.9099L6.70345 34.204L7.17543 33.9144L11.7655 31.141L16.3 33.9121L16.7785 34.2051L17.2571 33.911L21.7458 31.1511L25.9914 33.8998L26.4787 34.2152L26.9714 33.911L32.609 30.4835L33.1496 30.1983V22.2943L32.7038 22.0091L28.2271 19.2325L28.2271 13.187L27.7802 12.9008L23.3045 10.1241V4.07642L22.7334 3.79237L17.1361 0.365963L16.5998 0.0673828ZM16.7393 1.20803L22.3202 4.63555V10.681L27.2417 13.7428L27.2417 19.7894L32.1653 22.8523V29.6403L26.5495 33.0678L21.7883 30.006L16.7905 33.0678L11.7721 30.006L6.77975 33.0678L1.31437 29.6403L1.31437 22.8523L6.23692 19.7894V13.7428L11.1606 10.6821L11.1606 4.63555L16.7393 1.20803Z" fill="#3D3D3D"/>
</g>
<path fill-rule="evenodd" clip-rule="evenodd" d="M21.0063 10.7268L16.7389 13.4252L12.4736 10.7268L12.4736 5.3322L16.7389 2.63379L21.0063 5.3322V10.7268Z" fill="#59C341"/>
<path fill-rule="evenodd" clip-rule="evenodd" d="M21.0068 28.9437L16.7394 31.6421L12.4741 28.9437V23.5491L16.7394 20.8507L21.0068 23.5491L21.0068 28.9437ZM30.853 28.9437L26.5856 31.6421L22.3192 28.9437L22.3192 23.5491L26.5856 20.8507L30.853 23.5491L30.853 28.9437ZM11.1606 28.9437L6.72857 31.6421L2.2998 28.9437L2.2998 23.5491L6.72966 20.8507L11.1606 23.5491V28.9437ZM16.0843 19.8364L11.8168 22.5337L7.55045 19.8364L7.55045 14.4396L11.8168 11.7412L16.0843 14.4396V19.8364ZM25.9294 19.8364L21.663 22.5337L17.3966 19.8364V14.4396L21.663 11.7412L25.9294 14.4396V19.8364Z" fill="#3D3D3D"/>
</svg>
