<svg width="80" height="80" viewBox="0 0 80 80" fill="none" xmlns="http://www.w3.org/2000/svg">
<path d="M37.981 39.6638V48.2624H35.2236V27.0278H42.5367C43.4096 27.0098 44.2775 27.1629 45.0903 27.4784C45.903 27.7939 46.6446 28.2656 47.2722 28.8661C47.9061 29.4302 48.4105 30.1219 48.7517 30.8949C49.0929 31.6679 49.2629 32.5042 49.2503 33.3475C49.2684 34.1954 49.1011 35.0371 48.7596 35.815C48.4182 36.5929 47.9108 37.2886 47.2722 37.8543C45.9934 39.0607 44.4149 39.6633 42.5367 39.6622H37.981V39.6638ZM37.981 29.6421V37.0546H42.6052C43.1121 37.0695 43.6166 36.9795 44.0864 36.7905C44.5562 36.6014 44.9809 36.3175 45.3334 35.9567C45.6841 35.6195 45.9628 35.2161 46.1532 34.7704C46.3435 34.3247 46.4416 33.8458 46.4416 33.3619C46.4416 32.8781 46.3435 32.3992 46.1532 31.9535C45.9628 31.5078 45.6841 31.1044 45.3334 30.7671C44.9853 30.3988 44.5621 30.1078 44.0917 29.9136C43.6214 29.7194 43.1147 29.6262 42.6052 29.6404H37.981V29.6421Z" fill="#5F6368"/>
<path d="M55.6051 33.2598C57.6431 33.2598 59.2519 33.7986 60.4313 34.8761C61.6108 35.9537 62.2 37.4311 62.1988 39.3084V48.2628H59.5613V46.2465H59.4414C58.2997 47.907 56.7811 48.7372 54.8858 48.7372C53.2679 48.7372 51.9143 48.2628 50.8251 47.3139C50.3023 46.8785 49.8844 46.3331 49.6017 45.7176C49.3191 45.102 49.1788 44.4319 49.1912 43.7559C49.1912 42.2525 49.7655 41.0569 50.9141 40.1691C52.0627 39.2813 53.5961 38.8363 55.5143 38.834C57.1516 38.834 58.5 39.1305 59.5596 39.7235V39.1C59.5627 38.6392 59.4621 38.1835 59.2652 37.7659C59.0682 37.3483 58.7797 36.9793 58.4207 36.6856C57.6915 36.0348 56.7412 35.6797 55.7592 35.6911C54.219 35.6911 53.0001 36.3338 52.1027 37.6192L49.6742 36.1062C51.01 34.2086 52.987 33.2598 55.6051 33.2598ZM52.0376 43.8152C52.0358 44.1624 52.1178 44.505 52.2769 44.8144C52.436 45.1239 52.6675 45.3912 52.9522 45.5942C53.562 46.0688 54.3189 46.3202 55.0947 46.3058C56.2583 46.3039 57.3736 45.8457 58.1963 45.0317C59.1098 44.1812 59.5665 43.1833 59.5665 42.0379C58.7067 41.3602 57.5078 41.0213 55.9699 41.0213C54.8498 41.0213 53.9158 41.2885 53.168 41.8227C52.4127 42.3649 52.0376 43.024 52.0376 43.8152Z" fill="#5F6368"/>
<path d="M77.3386 33.7344L68.1314 54.6674H65.2849L68.7017 47.343L62.6475 33.7344H65.6446L70.0204 44.1712H70.0804L74.3363 33.7344H77.3386Z" fill="#5F6368"/>
<path d="M26.8384 37.8105C26.8394 36.9792 26.7684 36.1494 26.626 35.3301H14.9971V40.0284H21.6576C21.5213 40.7787 21.2328 41.4941 20.8096 42.1312C20.3863 42.7683 19.837 43.314 19.1948 43.7355V46.7852H23.1699C25.4974 44.6623 26.8384 41.5227 26.8384 37.8105Z" fill="#4285F4"/>
<path d="M14.998 49.7314C18.3257 49.7314 21.1276 48.6504 23.1708 46.7867L19.1957 43.737C18.0893 44.4791 16.6644 44.9026 14.998 44.9026C11.7816 44.9026 9.05164 42.7577 8.07543 39.8672H3.98047V43.0101C5.00681 45.0305 6.58058 46.729 8.5261 47.9158C10.4716 49.1027 12.7123 49.7313 14.998 49.7314Z" fill="#34A853"/>
<path d="M8.075 39.8671C7.55891 38.3525 7.55891 36.7122 8.075 35.1976V32.0547H3.98004C3.11665 33.7543 2.66699 35.6302 2.66699 37.5323C2.66699 39.4345 3.11665 41.3104 3.98004 43.01L8.075 39.8671Z" fill="#FBBC04"/>
<path d="M14.998 30.1625C16.7565 30.1341 18.4557 30.7914 19.7283 31.9924L23.2478 28.5106C21.0161 26.4369 18.0596 25.2984 14.998 25.3338C12.7123 25.3339 10.4716 25.9625 8.5261 27.1494C6.58058 28.3362 5.00681 30.0347 3.98047 32.0551L8.07543 35.198C9.05164 32.3075 11.7816 30.1625 14.998 30.1625Z" fill="#EA4335"/>
</svg>
