<svg width="126" height="30" viewBox="0 0 126 30" fill="none" xmlns="http://www.w3.org/2000/svg">
<path d="M4.58395 7.09494H24.7485C25.6447 7.09494 26.5409 6.72152 27.2877 6.04937C28.7067 4.63038 28.7067 2.38987 27.2877 0.970886C26.5409 0.373418 25.6447 0 24.7485 0H14.6662H4.58395C3.68775 0 2.71686 0.373418 2.04471 1.04557C0.625722 2.46456 0.625722 4.70506 2.04471 6.12405C2.71686 6.7962 3.68775 7.09494 4.58395 7.09494Z" fill="#11A8B1"/>
<path d="M4.58395 17.2519H14.6662C15.5624 17.2519 16.4586 16.8785 17.2055 16.2063C18.6245 14.7873 18.6245 12.5468 17.2055 11.1278C16.5333 10.4557 15.5624 10.0823 14.6662 10.0823H4.58395C3.68775 10.0823 2.79154 10.4557 2.04471 11.1278C0.625722 12.5468 0.625722 14.7873 2.04471 16.2063C2.71686 16.8785 3.68775 17.2519 4.58395 17.2519Z" fill="#11A8B1"/>
<path d="M27.2875 11.1279C25.8685 9.70894 23.628 9.70894 22.209 11.1279C21.5369 11.8001 21.1635 12.771 21.1635 13.6672C21.1635 17.252 18.2508 20.1646 14.666 20.1646C13.7698 20.1646 12.8736 20.5381 12.1267 21.2102C10.7078 22.6292 10.7078 24.8697 12.1267 26.2887C12.7989 26.9608 13.7698 27.3343 14.666 27.3343C22.209 27.3343 28.3331 21.2102 28.3331 13.6672C28.3331 12.771 27.9597 11.8001 27.2875 11.1279Z" fill="#11A8B1"/>
<path d="M24.7489 17.2519C26.7287 17.2519 28.3337 15.6469 28.3337 13.6671C28.3337 11.6872 26.7287 10.0823 24.7489 10.0823C22.769 10.0823 21.1641 11.6872 21.1641 13.6671C21.1641 15.6469 22.769 17.2519 24.7489 17.2519Z" fill="#59DED7"/>
<path d="M4.58481 27.3342C6.56465 27.3342 8.16962 25.7292 8.16962 23.7494C8.16962 21.7695 6.56465 20.1646 4.58481 20.1646C2.60497 20.1646 1 21.7695 1 23.7494C1 25.7292 2.60497 27.3342 4.58481 27.3342Z" fill="#59DED7"/>
<path d="M14.6668 17.2519C16.6467 17.2519 18.2517 15.6469 18.2517 13.6671C18.2517 11.6872 16.6467 10.0823 14.6668 10.0823C12.687 10.0823 11.082 11.6872 11.082 13.6671C11.082 15.6469 12.687 17.2519 14.6668 17.2519Z" fill="#59DED7"/>
<path d="M24.7489 7.16962C26.7287 7.16962 28.3337 5.56465 28.3337 3.58481C28.3337 1.60497 26.7287 0 24.7489 0C22.769 0 21.1641 1.60497 21.1641 3.58481C21.1641 5.56465 22.769 7.16962 24.7489 7.16962Z" fill="#59DED7"/>
<path d="M37.2225 9.55955V10.6798H35.4301C35.206 10.6798 35.0566 10.8292 35.0566 11.0532V13.4431C35.0566 13.6671 35.206 13.8165 35.4301 13.8165H37.1478V22.7039C37.1478 22.9279 37.2971 23.0773 37.5212 23.0773H40.4339C40.6579 23.0773 40.8073 22.9279 40.8073 22.7039V13.8912H43.3465C43.5706 13.8912 43.7199 13.7418 43.7199 13.5178V11.1279C43.7199 10.9039 43.5706 10.7545 43.3465 10.7545H40.882V9.63423C40.882 9.03676 41.0313 8.58866 41.4047 8.28993C42.0022 7.84183 42.8984 7.84183 43.4959 7.91651C43.6453 7.91651 43.7946 7.84183 43.7946 7.69246L43.8693 5.52664C43.8693 5.37727 43.7946 5.30259 43.6452 5.30259C41.4794 4.92917 39.5377 5.2279 38.3427 6.27347C37.5959 6.94562 37.1478 8.06588 37.2225 9.55955Z" fill="#192966"/>
<path d="M44.541 16.1317C44.541 18.2975 45.2879 20.2393 46.5575 21.5836C47.6777 22.7038 49.2461 23.376 51.0385 23.376C52.5322 23.376 53.7271 22.8532 54.5486 21.8823L54.8473 21.5089V22.8532C54.8473 23.0772 54.9967 23.2266 55.2208 23.2266H58.1334C58.3575 23.2266 58.5068 23.0772 58.5068 22.8532V5.75065C58.5068 5.52659 58.3575 5.37723 58.1334 5.37723H55.2208C54.9967 5.37723 54.8473 5.52659 54.8473 5.75065V11.1279L54.5486 10.7544C53.503 9.55951 52.0841 9.33545 51.1132 9.33545C46.3334 9.33545 44.6157 12.8456 44.541 16.1317ZM54.8473 16.281C54.8473 18.2228 53.3537 19.7911 51.4866 19.7911C50.5904 19.7911 49.7689 19.4924 49.1714 18.8949C48.4992 18.2228 48.1258 17.2519 48.2005 16.2063C48.2005 14.5633 49.2461 12.6962 51.4866 12.6962C53.3537 12.6962 54.8473 14.3393 54.8473 16.281Z" fill="#192966"/>
<path d="M64.1828 9.18609H71.0537C71.2778 9.18609 71.4271 9.03672 71.4271 8.81267V5.75065C71.4271 5.52659 71.2778 5.37723 71.0537 5.37723H60.598C60.374 5.37723 60.2246 5.52659 60.2246 5.75065V22.7038C60.2246 22.9279 60.374 23.0772 60.598 23.0772H63.8094C64.0335 23.0772 64.1828 22.9279 64.1828 22.7038V16.5798H70.6056C70.8297 16.5798 70.979 16.4304 70.979 16.2063V13.2937C70.979 13.0696 70.8297 12.9203 70.6056 12.9203H64.1828V9.18609Z" fill="#192966"/>
<path d="M79.3434 9.11139C77.4764 9.11139 75.684 9.78354 74.4143 10.9038C72.9207 12.2481 72.1738 14.1152 72.1738 16.3557C72.1738 21.2848 75.908 23.5253 79.4181 23.5253C81.2852 23.5253 83.0776 22.8532 84.3472 21.7329C85.8409 20.4633 86.5878 18.5962 86.5878 16.3557C86.5878 11.4266 82.8536 9.11139 79.3434 9.11139ZM81.808 19.119C81.1359 19.7165 80.3143 20.0152 79.4181 20.0152C77.7004 20.0152 75.908 18.7456 75.908 16.3557C75.908 13.8911 77.7004 12.6215 79.4181 12.6215C80.3143 12.6215 81.2105 12.9203 81.808 13.5177C82.5548 14.1899 82.9283 15.1608 82.9283 16.281C82.8536 17.4759 82.4802 18.4468 81.808 19.119Z" fill="#192966"/>
<path d="M91.74 10.4557L91.516 10.6798L91.3666 9.85824C91.3666 9.70887 91.1426 9.5595 90.9932 9.5595H88.3793C88.1552 9.5595 88.0059 9.70887 88.0059 9.93292V22.7038C88.0059 22.9279 88.1552 23.0772 88.3793 23.0772H91.2919C91.516 23.0772 91.6654 22.9279 91.6654 22.7038V15.6089C91.6654 13.5177 93.3831 12.7709 94.8021 12.7709C95.0261 12.7709 95.3248 12.7709 95.5489 12.8456C95.7729 12.8456 95.997 12.6962 95.997 12.4722V9.85824C95.997 9.70887 95.8476 9.48482 95.6983 9.48482C95.3248 9.41014 94.9514 9.41014 94.6527 9.41014C93.5324 9.33545 92.5616 9.70887 91.74 10.4557Z" fill="#192966"/>
<path d="M103.241 9.41006C101.449 9.41006 99.8804 10.0075 98.7601 11.1278C97.4905 12.3974 96.8184 14.2645 96.8184 16.4303C96.8184 20.4632 99.2829 23.0025 103.316 23.0025C104.809 23.0025 106.004 22.5544 106.751 21.6582L107.05 21.2847V22.4797C106.975 24.5708 105.706 25.9151 103.689 25.9151C102.793 25.9151 101.972 25.6164 101.449 25.1683C101.299 25.0189 101.15 24.8696 101.075 24.6455C101.001 24.4961 100.851 24.4215 100.702 24.4215H97.4905C97.2665 24.4215 97.0424 24.6455 97.1171 24.8696C97.4905 27.7822 100.702 29.4999 103.764 29.4999C106.901 29.4999 110.635 27.6329 110.635 22.4797V10.0075C110.635 9.78348 110.485 9.63411 110.261 9.63411H107.349C107.125 9.63411 106.975 9.78348 106.975 10.0075V11.3518L106.677 10.9784C106.004 9.93285 104.809 9.41006 103.241 9.41006ZM107.05 16.505C107.05 18.5215 105.407 19.567 103.764 19.6417C102.196 19.6417 100.478 18.6708 100.478 16.5797C100.478 15.5341 100.851 14.5632 101.449 13.8911C102.046 13.2936 102.793 12.9949 103.689 12.9949C105.631 12.9202 107.05 14.4885 107.05 16.505Z" fill="#192966"/>
<path d="M119.001 9.41006C116.984 9.41006 115.117 10.1569 113.848 11.4265C112.578 12.6961 111.98 14.3392 111.98 16.3556C111.98 21.0607 115.491 23.2265 118.777 23.3012C118.851 23.3012 118.851 23.3012 118.926 23.3012C121.689 23.3012 124.079 21.8822 125.199 19.7164C125.349 19.4923 125.125 19.1189 124.826 19.1189H121.54C121.465 19.1189 121.316 19.1936 121.316 19.1936C120.718 19.7164 119.897 20.0151 119.001 20.0151C117.582 20.0151 116.312 19.1936 115.864 17.924L115.789 17.6999H125.498C125.722 17.6999 125.872 17.5506 125.872 17.4012C125.946 17.0278 125.946 16.6544 125.946 16.2809C125.946 11.5759 122.361 9.41006 119.001 9.41006ZM115.939 14.9366L116.013 14.7126C116.387 13.3683 117.507 12.5468 118.926 12.5468C120.42 12.5468 121.54 13.3683 121.913 14.7126L121.988 14.9366H115.939Z" fill="#192966"/>
</svg>
