<svg width="24" height="24" viewBox="0 0 24 24" fill="none" xmlns="http://www.w3.org/2000/svg">
<g opacity="0.64">
<path d="M6.3482 18.4972C5.64468 20.4199 4.87721 21.7459 4.49348 22.4088C4.23766 21.9447 3.72601 21.0829 3.27832 19.9558L5.19699 19.2928H3.0225V19.3591C2.89458 19.0939 2.76667 18.7624 2.63876 18.4309C1.93525 16.5746 1.16778 13.8564 0.911955 10.4751L5.00513 9.74586H0.911955C0.847999 9.01657 0.847999 8.22099 0.847999 7.42541C3.15041 7.16022 5.70864 7.16022 7.75523 7.42541H7.94709C8.07501 7.42541 8.13896 7.42541 8.20292 7.49171C8.20292 9.81215 8.01105 12.1326 7.56336 14.3204H3.78997L7.43545 14.9834C7.43545 15.116 7.37149 15.2486 7.30754 15.3812H4.30161L7.17962 16.0442C6.9238 16.8398 6.66798 17.7017 6.3482 18.4972ZM2.12712 4.0442L3.40623 3.44751C3.66205 3.9116 3.85392 4.37569 4.04579 4.77348C4.23766 4.1768 4.30161 3.58011 4.42952 2.91713L5.06908 2.65193L5.58073 5.76796L6.15633 2.18785L7.37149 1.59116C6.9238 2.65193 6.28424 4.57459 6.09238 6.43094C5.06908 6.36464 4.04579 6.36464 2.95854 6.43094L2.12712 4.0442ZM18.4358 15.9779C18.18 15.6464 17.8602 15.3812 17.4765 15.116C18.6277 15.0497 20.6743 14.8508 22.7209 14.6519C22.3372 16.2431 21.5697 17.7017 20.4824 18.895C20.2266 18.2983 19.587 17.1713 18.4358 15.9779ZM8.90643 9.54696C8.97039 8.88398 8.97039 8.28729 8.97039 7.62431C9.60994 6.96133 10.4414 6.36464 11.3368 5.76796C11.5286 5.96685 11.7205 6.23204 11.9124 6.49724C12.424 7.16022 13.1915 8.0884 14.0229 9.34807C12.5519 9.34807 10.8251 9.41436 8.90643 9.54696ZM8.84247 10.674C10.4414 10.5414 11.8484 10.4751 13.1275 10.4751C14.7264 10.4751 16.1334 10.6077 17.2846 10.8066C17.0288 11.0055 16.837 11.2044 16.5811 11.4033C15.8137 12.1989 15.2381 12.9282 14.9822 13.326C13.7671 12.5967 11.7205 11.6685 8.84247 11.0055C8.77852 10.8729 8.77852 10.7403 8.84247 10.674ZM22.4651 13.6575C19.651 13.9227 16.9009 14.1215 16.2613 14.1878C16.1334 14.0552 15.9416 13.9889 15.8137 13.8564C16.5811 12.7293 18.6277 10.2762 21.8895 9.41436C22.529 10.9392 22.529 12.7956 22.4651 13.6575ZM18.3079 9.94475C17.4126 9.67956 16.3893 9.54696 15.302 9.48066C15.2381 9.41436 15.2381 9.34807 15.1741 9.34807C15.366 8.41989 17.2207 6.23204 18.18 5.63536C19.4591 6.62983 20.2906 7.9558 20.6743 8.75138C19.8429 9.01657 19.0754 9.41436 18.3079 9.94475ZM14.7264 4.97238L14.6625 5.56906L15.8137 6.23204C15.1741 6.96133 14.7264 7.69061 14.4066 8.28729C13.7671 7.35912 12.9356 6.36464 12.424 5.63536C12.9996 5.50276 13.7671 5.17127 14.7264 4.97238ZM7.62731 17.2376C8.07501 15.5138 8.45874 13.7901 8.65061 12.0663C12.488 12.9282 15.4939 14.5193 17.6684 16.7735C18.6917 17.8343 19.2673 18.9613 19.5231 19.4917C19.587 19.6906 19.651 19.7569 19.715 19.8232C19.3952 20.0884 19.0114 20.3536 18.6277 20.5525C16.9009 21.547 15.302 21.6796 15.302 21.6796C15.366 21.6796 16.2613 21.8122 17.4126 21.6133V22.9392H12.0403C12.0403 22.8729 12.0403 22.8729 11.9763 22.8066V21.547C13.1915 21.8122 14.0869 21.6796 14.0869 21.6796C14.0869 21.6796 10.8251 21.3481 8.58665 18.7624C8.26687 18.2983 7.94709 17.768 7.62731 17.2376ZM22.6569 8.55249L22.4651 8.1547L22.0813 8.22099C21.9534 8.28729 21.7615 8.28729 21.5697 8.35359C21.1859 7.55801 20.2266 5.70166 18.4358 4.50829L18.244 4.37569L17.9882 4.50829C17.6684 4.64088 17.1567 5.03867 16.5811 5.50276L15.7497 5.03867L15.8776 3.77901L15.2381 3.8453C13.7031 3.9779 12.36 4.57459 11.7844 4.83978C11.7205 4.77348 11.7205 4.70718 11.7205 4.70718L11.4647 4.44199L11.1449 4.64088C9.99368 5.37017 9.16225 5.96685 8.45874 6.62983C8.01105 6.56354 7.30754 6.49724 6.85985 6.49724C7.17962 3.8453 8.33083 0.994475 8.33083 0.928177L8.71456 0L4.87721 1.79006L1.16778 3.58011L2.12712 6.43094C1.4236 6.49724 0.784043 6.56354 0.0805292 6.62983H0.0165734C-0.303206 17.105 4.10975 23.337 4.1737 23.4033L4.49348 23.8674L4.81326 23.4696C4.87721 23.4033 5.96446 21.8122 7.05171 18.895C7.11567 18.7624 7.17962 18.6298 7.17962 18.4972C8.20292 19.8232 9.6739 20.9503 10.953 21.4144V23.6022V23.7348C11.017 23.8674 11.0809 24 11.3368 24L17.9242 23.8674H18.0521C18.244 23.8011 18.3079 23.6022 18.3079 23.4696V21.3481C18.6277 21.2155 18.8835 21.1492 19.2033 20.9503C20.6743 20.1547 23.2965 18.2983 23.936 14.1215L24 13.4586L23.4244 13.5249C23.5523 12.3978 23.4884 10.2762 22.6569 8.55249Z" fill="#0C0C10"/>
</g>
</svg>
