<svg width="126" height="30" viewBox="0 0 126 30" fill="none" xmlns="http://www.w3.org/2000/svg">
<path d="M4.58493 7.09494H24.7495C25.6457 7.09494 26.5419 6.72152 27.2887 6.04937C28.7077 4.63038 28.7077 2.38987 27.2887 0.970886C26.5419 0.373418 25.6457 0 24.7495 0H14.6672H4.58493C3.68872 0 2.71784 0.373418 2.04569 1.04557C0.626699 2.46456 0.626699 4.70506 2.04569 6.12405C2.71784 6.7962 3.68872 7.09494 4.58493 7.09494Z" fill="#11A8B1"/>
<path d="M4.58493 17.2519H14.6672C15.5634 17.2519 16.4596 16.8785 17.2064 16.2063C18.6254 14.7873 18.6254 12.5468 17.2064 11.1278C16.5343 10.4557 15.5634 10.0823 14.6672 10.0823H4.58493C3.68872 10.0823 2.79252 10.4557 2.04569 11.1278C0.626698 12.5468 0.626698 14.7873 2.04569 16.2063C2.71784 16.8785 3.68872 17.2519 4.58493 17.2519Z" fill="#11A8B1"/>
<path d="M27.2885 11.1279C25.8695 9.70894 23.629 9.70894 22.21 11.1279C21.5378 11.8001 21.1644 12.771 21.1644 13.6672C21.1644 17.252 18.2518 20.1646 14.667 20.1646C13.7708 20.1646 12.8746 20.5381 12.1277 21.2102C10.7087 22.6292 10.7087 24.8697 12.1277 26.2887C12.7999 26.9608 13.7708 27.3343 14.667 27.3343C22.21 27.3343 28.334 21.2102 28.334 13.6672C28.334 12.771 27.9606 11.8001 27.2885 11.1279Z" fill="#11A8B1"/>
<path d="M24.7499 17.2519C26.7297 17.2519 28.3347 15.6469 28.3347 13.6671C28.3347 11.6872 26.7297 10.0823 24.7499 10.0823C22.77 10.0823 21.165 11.6872 21.165 13.6671C21.165 15.6469 22.77 17.2519 24.7499 17.2519Z" fill="#59DED7"/>
<path d="M4.58481 27.3342C6.56465 27.3342 8.16962 25.7292 8.16962 23.7494C8.16962 21.7695 6.56465 20.1646 4.58481 20.1646C2.60497 20.1646 1 21.7695 1 23.7494C1 25.7292 2.60497 27.3342 4.58481 27.3342Z" fill="#59DED7"/>
<path d="M14.6668 17.2519C16.6467 17.2519 18.2517 15.6469 18.2517 13.6671C18.2517 11.6872 16.6467 10.0823 14.6668 10.0823C12.687 10.0823 11.082 11.6872 11.082 13.6671C11.082 15.6469 12.687 17.2519 14.6668 17.2519Z" fill="#59DED7"/>
<path d="M24.7499 7.16962C26.7297 7.16962 28.3347 5.56465 28.3347 3.58481C28.3347 1.60497 26.7297 0 24.7499 0C22.77 0 21.165 1.60497 21.165 3.58481C21.165 5.56465 22.77 7.16962 24.7499 7.16962Z" fill="#59DED7"/>
<path d="M37.2215 9.55955V10.6798H35.4291C35.205 10.6798 35.0557 10.8292 35.0557 11.0532V13.4431C35.0557 13.6671 35.205 13.8165 35.4291 13.8165H37.1468V22.7039C37.1468 22.9279 37.2962 23.0773 37.5202 23.0773H40.4329C40.6569 23.0773 40.8063 22.9279 40.8063 22.7039V13.8912H43.3455C43.5696 13.8912 43.719 13.7418 43.719 13.5178V11.1279C43.719 10.9039 43.5696 10.7545 43.3455 10.7545H40.881V9.63423C40.881 9.03676 41.0303 8.58866 41.4038 8.28993C42.0012 7.84183 42.8974 7.84183 43.4949 7.91651C43.6443 7.91651 43.7936 7.84183 43.7936 7.69246L43.8683 5.52664C43.8683 5.37727 43.7936 5.30259 43.6443 5.30259C41.4784 4.92917 39.5367 5.2279 38.3417 6.27347C37.5949 6.94562 37.1468 8.06588 37.2215 9.55955Z" fill="white"/>
<path d="M44.54 16.1317C44.54 18.2975 45.2869 20.2393 46.5565 21.5836C47.6767 22.7038 49.2451 23.376 51.0375 23.376C52.5312 23.376 53.7261 22.8532 54.5476 21.8823L54.8464 21.5089V22.8532C54.8464 23.0772 54.9957 23.2266 55.2198 23.2266H58.1324C58.3565 23.2266 58.5059 23.0772 58.5059 22.8532V5.75065C58.5059 5.52659 58.3565 5.37723 58.1324 5.37723H55.2198C54.9957 5.37723 54.8464 5.52659 54.8464 5.75065V11.1279L54.5476 10.7544C53.5021 9.55951 52.0831 9.33545 51.1122 9.33545C46.3324 9.33545 44.6147 12.8456 44.54 16.1317ZM54.8464 16.281C54.8464 18.2228 53.3527 19.7911 51.4856 19.7911C50.5894 19.7911 49.7679 19.4924 49.1704 18.8949C48.4983 18.2228 48.1249 17.2519 48.1995 16.2063C48.1995 14.5633 49.2451 12.6962 51.4856 12.6962C53.3527 12.6962 54.8464 14.3393 54.8464 16.281Z" fill="white"/>
<path d="M64.1819 9.18609H71.0527C71.2768 9.18609 71.4262 9.03672 71.4262 8.81267V5.75065C71.4262 5.52659 71.2768 5.37723 71.0527 5.37723H60.5971C60.373 5.37723 60.2236 5.52659 60.2236 5.75065V22.7038C60.2236 22.9279 60.373 23.0772 60.5971 23.0772H63.8084C64.0325 23.0772 64.1819 22.9279 64.1819 22.7038V16.5798H70.6046C70.8287 16.5798 70.9781 16.4304 70.9781 16.2063V13.2937C70.9781 13.0696 70.8287 12.9203 70.6046 12.9203H64.1819V9.18609Z" fill="white"/>
<path d="M79.3434 9.11139C77.4764 9.11139 75.684 9.78354 74.4143 10.9038C72.9207 12.2481 72.1738 14.1152 72.1738 16.3557C72.1738 21.2848 75.908 23.5253 79.4181 23.5253C81.2852 23.5253 83.0776 22.8532 84.3472 21.7329C85.8409 20.4633 86.5878 18.5962 86.5878 16.3557C86.5878 11.4266 82.8536 9.11139 79.3434 9.11139ZM81.808 19.119C81.1359 19.7165 80.3143 20.0152 79.4181 20.0152C77.7004 20.0152 75.908 18.7456 75.908 16.3557C75.908 13.8911 77.7004 12.6215 79.4181 12.6215C80.3143 12.6215 81.2105 12.9203 81.808 13.5177C82.5548 14.1899 82.9283 15.1608 82.9283 16.281C82.8536 17.4759 82.4802 18.4468 81.808 19.119Z" fill="white"/>
<path d="M91.74 10.4557L91.516 10.6798L91.3666 9.85824C91.3666 9.70887 91.1426 9.5595 90.9932 9.5595H88.3793C88.1552 9.5595 88.0059 9.70887 88.0059 9.93292V22.7038C88.0059 22.9279 88.1552 23.0772 88.3793 23.0772H91.2919C91.516 23.0772 91.6654 22.9279 91.6654 22.7038V15.6089C91.6654 13.5177 93.3831 12.7709 94.8021 12.7709C95.0261 12.7709 95.3248 12.7709 95.5489 12.8456C95.7729 12.8456 95.997 12.6962 95.997 12.4722V9.85824C95.997 9.70887 95.8476 9.48482 95.6983 9.48482C95.3248 9.41014 94.9514 9.41014 94.6527 9.41014C93.5324 9.33545 92.5616 9.70887 91.74 10.4557Z" fill="white"/>
<path d="M103.242 9.41006C101.45 9.41006 99.8814 10.0075 98.7611 11.1278C97.4915 12.3974 96.8193 14.2645 96.8193 16.4303C96.8193 20.4632 99.2839 23.0025 103.317 23.0025C104.81 23.0025 106.005 22.5544 106.752 21.6582L107.051 21.2847V22.4797C106.976 24.5708 105.707 25.9151 103.69 25.9151C102.794 25.9151 101.972 25.6164 101.45 25.1683C101.3 25.0189 101.151 24.8696 101.076 24.6455C101.002 24.4961 100.852 24.4215 100.703 24.4215H97.4915C97.2674 24.4215 97.0434 24.6455 97.1181 24.8696C97.4915 27.7822 100.703 29.4999 103.765 29.4999C106.902 29.4999 110.636 27.6329 110.636 22.4797V10.0075C110.636 9.78348 110.486 9.63411 110.262 9.63411H107.35C107.126 9.63411 106.976 9.78348 106.976 10.0075V11.3518L106.678 10.9784C106.005 9.93285 104.81 9.41006 103.242 9.41006ZM107.051 16.505C107.051 18.5215 105.408 19.567 103.765 19.6417C102.197 19.6417 100.479 18.6708 100.479 16.5797C100.479 15.5341 100.852 14.5632 101.45 13.8911C102.047 13.2936 102.794 12.9949 103.69 12.9949C105.632 12.9202 107.051 14.4885 107.051 16.505Z" fill="white"/>
<path d="M119 9.41006C116.983 9.41006 115.116 10.1569 113.847 11.4265C112.577 12.6961 111.979 14.3392 111.979 16.3556C111.979 21.0607 115.49 23.2265 118.776 23.3012C118.85 23.3012 118.85 23.3012 118.925 23.3012C121.688 23.3012 124.078 21.8822 125.198 19.7164C125.348 19.4923 125.124 19.1189 124.825 19.1189H121.539C121.464 19.1189 121.315 19.1936 121.315 19.1936C120.717 19.7164 119.896 20.0151 119 20.0151C117.581 20.0151 116.311 19.1936 115.863 17.924L115.788 17.6999H125.497C125.721 17.6999 125.871 17.5506 125.871 17.4012C125.945 17.0278 125.945 16.6544 125.945 16.2809C125.945 11.5759 122.36 9.41006 119 9.41006ZM115.938 14.9366L116.012 14.7126C116.386 13.3683 117.506 12.5468 118.925 12.5468C120.419 12.5468 121.539 13.3683 121.912 14.7126L121.987 14.9366H115.938Z" fill="white"/>
</svg>
