<svg xmlns="http://www.w3.org/2000/svg" xmlns:xlink="http://www.w3.org/1999/xlink" width="112" height="112" fill="none" xmlns:v="https://vecta.io/nano"><path d="M30.96 35.019h-9.631v29.247a12.8 12.8 0 0 1-2.622 7.749c-1.694 2.215-4.063 3.791-6.734 4.481 1.202.295 2.433.445 3.669.449 4.072 0 7.978-1.649 10.857-4.584s4.497-6.916 4.497-11.068l-.037-26.273z" fill="url(#B)"/><path d="M12.541 68.716c0 .981-.286 1.94-.821 2.755s-1.295 1.451-2.185 1.825-1.868.471-2.811.279-1.81-.666-2.489-1.362-1.141-1.58-1.326-2.542-.087-1.959.284-2.865.997-1.678 1.799-2.22 1.744-.83 2.706-.826c1.286.005 2.518.529 3.426 1.458s1.417 2.186 1.417 3.498z" fill="url(#C)"/><path d="M109.2 35.037H98.982L86.14 68.304a13.91 13.91 0 0 1-3.326 4.97 13.58 13.58 0 0 1-5.076 3.071 16.63 16.63 0 0 0 4.898.598c2.977-.025 5.884-.919 8.378-2.576s4.469-4.008 5.693-6.774L109.2 35.037z" fill="url(#D)"/><path d="M74.161 35h15.208l-5.228 13.744a25.23 25.23 0 0 0-3.54-7.199A24.84 24.84 0 0 0 74.161 35z" fill="url(#E)"/><path d="M12.578 56.243v1.384H4.011v3.198H2.8v-7.779h1.211v3.198h8.567zM2.8 51.213v-1.346h4.091v-5.049H2.8v-1.403h9.778v1.403H8.101v5.049h4.476v1.384L2.8 51.213zm8.567-11.165v-5.03h1.211v6.433H2.8v-6.395h1.211v4.993h2.917v-5.03h1.174v5.03h3.265z" fill="gold"/><mask id="A" mask-type="alpha" maskUnits="userSpaceOnUse" x="39" y="38" width="39" height="39"><use xlink:href="#I" fill="#f28c31"/></mask><g mask="url(#A)"><use xlink:href="#I" fill="#f28c31"/><path d="M88.851 56.29C92.526 33.032 77.01 11.141 54.194 7.395S9.902 19.466 6.227 42.724s11.842 45.149 34.658 48.895S85.176 79.547 88.851 56.29z" fill="url(#F)"/><path d="M88.672 87.416c15.268 0 27.646-12.617 27.646-28.181S103.94 31.054 88.672 31.054 61.026 43.671 61.026 59.235s12.377 28.181 27.646 28.181z" fill="url(#G)"/><path d="M61.503 42.929c-22.326 1.814-40.854-2.412-41.422-9.574s17.061-14.361 39.368-16.175 40.817 2.468 41.367 9.574-17.061 14.343-39.313 16.176z" fill="url(#H)"/></g><defs><linearGradient id="B" x1="-1.786" y1="39.114" x2="71.941" y2="89.901" xlink:href="#J"><stop stop-color="gold"/><stop offset="1" stop-color="#f28b00"/></linearGradient><linearGradient id="C" x1="-77.297" y1="315.697" x2="313.456" y2="584.967" xlink:href="#J"><stop stop-color="gold"/><stop offset="1" stop-color="#f28b00"/></linearGradient><linearGradient id="D" x1="2346.73" y1="616.786" x2="1476.2" y2="966.531" xlink:href="#J"><stop stop-color="gold"/><stop offset="1" stop-color="#f28b00"/></linearGradient><linearGradient id="E" x1="1098.26" y1="103.172" x2="736.591" y2="317.442" xlink:href="#J"><stop stop-color="gold"/><stop offset="1" stop-color="#f28b00"/></linearGradient><radialGradient id="F" cx="0" cy="0" r="1" gradientTransform="translate(47.5334 49.508) scale(41.8445 42.6545)" xlink:href="#J"><stop stop-color="gold"/><stop offset="1" stop-color="#f28b00" stop-opacity="0"/></radialGradient><radialGradient id="G" cx="0" cy="0" r="1" gradientTransform="translate(88.672 59.235) scale(27.6456 28.1808)" xlink:href="#J"><stop stop-color="#e3051b"/><stop offset="1" stop-color="#f28b00" stop-opacity="0"/></radialGradient><radialGradient id="H" cx="0" cy="0" r="1" gradientTransform="translate(80474.2 430521) rotate(85.5126) scale(569.788 576.038)" xlink:href="#J"><stop stop-color="#e3051b"/><stop offset="1" stop-color="#f28b00" stop-opacity="0"/></radialGradient><path id="I" d="M58.182 38.291a18.73 18.73 0 0 0-10.549 3.262 19.28 19.28 0 0 0-6.993 8.686c-1.437 3.537-1.813 7.428-1.081 11.183s2.541 7.203 5.196 9.91 6.038 4.55 9.722 5.297a18.65 18.65 0 0 0 10.97-1.101 19.07 19.07 0 0 0 8.521-7.128c2.086-3.183 3.2-6.925 3.2-10.753a19.68 19.68 0 0 0-1.445-7.407c-.954-2.348-2.353-4.482-4.116-6.279s-3.856-3.223-6.16-4.196-4.772-1.473-7.266-1.473zm-7.044 16.624c-.962 0-1.901-.291-2.701-.835s-1.423-1.319-1.79-2.224-.464-1.902-.277-2.863.651-1.844 1.331-2.537 1.546-1.165 2.489-1.356 1.921-.093 2.809.282 1.648 1.01 2.182 1.825.819 1.773.819 2.753c0 1.314-.512 2.575-1.424 3.504s-2.148 1.452-3.437 1.452z"/><linearGradient id="J" gradientUnits="userSpaceOnUse"/></defs></svg>