<svg xmlns="http://www.w3.org/2000/svg" width="112" height="112" fill="#21d09c"  xmlns:v="https://vecta.io/nano"><path d="M108.424 44.189c-.855 1.046-2.295 1.426-2.295 1.426s.63-1.188.945-2.566c.27-1.141.945-1.996 1.755-1.663.585.285.495 1.711-.405 2.804zM17.331 69.283c-8.641.38-13.772-1.378-14.447-5.846-.54-3.612 1.53-7.699 5.896-10.408.675-.428 1.215-.665 1.98-1.046.315-.19.72 0 .9.333.18.38 0 .76-.315.95-1.035.523-2.025.951-3.015 1.806-1.935 1.711-3.511 4.8-2.925 7.842.99 4.848 11.027 5.513 27.679 3.232 12.557-1.711 19.848-3.612 26.059-4.753 4.861-.903 8.731-2.044 14.942-3.089 12.377-2.091 25.879-3.564 29.344-2.044.36.143.63.38.63.76-.045.38-.72.665-.72.665s0-.285-.765-.665c-1.395-.618-3.646-.76-10.262-.333-4.006.238-12.827 1.568-18.183 2.424-6.166 1.046-9.946 2.091-14.852 3.232a375.5 375.5 0 0 1-25.924 5.18c-6.256 1.046-11.567 1.758-16.022 1.758z"/><path d="M13.596 53.171l-1.35.238-1.53 7.699c-.27 1.283-1.26 1.806-2.25 1.806-.585 0-1.08-.143-1.395-.333l4.186-19.676h-.135c-2.385.047-3.241 1.473-3.241 2.756 0 .618.54 1.521.54 1.616s-.765.285-1.125.285c-1.35 0-2.115-1.236-2.115-2.614 0-1.758 1.26-3.707 4.321-3.755 2.16-.047 4.861.428 5.491.428.18 0 .405.428.405.713 0 .523-.315 1.093-.9 1.093h-.225l-1.71 8.507.63-.238c3.646-2.329 4.321-8.317 5.356-9.838.135-.19.63-.238.945-.285.855-.048 1.8.523 1.8 1.568 0 2.614-4.096 6.083-4.861 7.984-.81 2.091 1.17 8.935 3.105 8.84.72-.047 1.755-1.378 2.025-1.473.09-.047.405.38.405.618 0 .903-1.575 3.469-4.051 3.565-3.015.095-4.051-5.18-4.321-9.505z"/><path d="M22.732 51.508c.09-.428-.045-.665-.27-.665-.135 0-.405.333-.54.38-.18 0-.54-1.046 0-1.521.9-.808 1.845-1.426 2.925-1.473.945-.047 1.485.38 1.26 1.426l-.135.665c1.035-1.378 2.25-2.329 3.556-2.424 2.295-.143 3.331 1.854 3.331 4.325-.045 4.42-2.835 9.648-7.291 10.076-.585.047-1.26-.19-1.8-.618l-1.8 9.268c-.27 1.283-1.17 1.806-2.115 1.853-.45 0-.9-.095-1.215-.285l4.096-21.006zm2.79 1.141l-1.44 7.272c.45.238.9.238 1.305.238 2.655-.143 4.276-4.04 4.276-6.749 0-1.949-.675-2.757-1.53-2.662-.81.048-1.755.713-2.61 1.901zm17.464-5.038c.225-.048 1.125-.903 1.755-.951.45-.047.9.048 1.215.238l-1.845 9.268c-.315 1.568.09 2.044.765 1.949.945-.095 2.34-1.521 2.745-1.616.135-.047.45.333.45.618 0 .19-.09.428-.225.618-1.215 1.568-3.105 2.994-4.501 3.137-1.215.095-2.43-2.566-2.43-2.566-.09-.048-2.475 2.994-3.961 3.137-2.7.238-3.285-2.614-3.24-4.372.045-4.42 2.475-9.458 6.571-10.171 1.08-.143 2.52.713 2.7.713zm-.54 1.426c-.45-.143-.855-.143-1.215-.095-3.151.285-4.276 4.705-4.276 7.699 0 1.378.585 1.948 1.395 1.853.855-.047 1.935-.855 2.655-1.949l1.44-7.509z"/><path d="M51.806 60.11c-2.475.238-4.456-1.141-4.456-4.515 0-4.23 2.745-9.553 6.661-9.933 2.115-.19 3.15.57 3.15 2.376 0 1.521-.855 2.329-1.845 2.424-.36.047-.99-.143-1.035-.285-.045-.285.405-1.426.405-1.853 0-.523-.315-.76-.945-.713-1.44.143-3.15 3.232-3.15 7.224 0 2.186 1.08 2.852 2.52 2.756 1.89-.19 4.366-2.709 5.401-3.469.405-.285.945.38.63.855-1.665 2.947-4.771 4.895-7.336 5.133z"/><path d="M59.638 48.467c.09-.428-.045-.665-.27-.665-.135 0-.405.38-.54.38-.135.048-.54-1.046 0-1.521.9-.808 1.845-1.473 2.925-1.616.945-.095 1.485.333 1.26 1.378l-1.575 7.984c-.225 1.141.09 1.616.9 1.521.9-.095 1.71-.713 2.385-1.663l1.575-7.937c.27-1.283 1.26-1.853 2.205-1.949.45-.047.9.047 1.215.238l-1.845 9.268c-.315 1.568.09 2.044.765 1.949.945-.095 2.34-1.521 2.745-1.616.135-.047.45.333.45.618 0 .19-.09.428-.225.618-1.215 1.568-3.106 2.994-4.501 3.137-1.26.095-2.43-2.899-2.43-2.899-.045 0-2.34 3.327-3.826 3.469-2.88.285-2.88-2.947-2.475-5.038l1.26-5.656z"/><path d="M81.646 49.037c-.045.095 0 .428 0 .665-.135 4.04-3.961 8.127-7.246 8.365-1.89.143-3.196-1.188-2.971-5.038.27-5.228 2.16-14.448 7.786-15.208 1.485-.19 2.7.95 2.475 2.519-.63 3.945-5.986 8.412-7.156 11.359-.045.142-.045.475-.045.713-.045 2.661.675 3.374 1.53 3.327 2.205-.19 3.105-5.608 2.745-5.893-.09-.095-.945.048-1.035-.047-.585-.618.135-2.614 1.665-2.757.765-.047 1.62.76 1.845.808.675.19 3.555-2.424 4.051-2.424.18 0 .315.998-.135 1.378-.585.475-3.24 1.711-3.51 2.234zm-6.841.523c.135.047 4.906-7.462 4.951-8.84.045-.808-.09-1.283-.63-1.236-1.845.143-4.321 10.076-4.321 10.076z"/><path d="M86.147 52.791c-.27.57 1.215 1.949 2.43 1.901 1.89-.095 4.366-2.519 5.401-3.232.36-.285.945.428.675.903-1.71 2.804-4.816 4.658-7.381 4.8-2.475.143-4.456-1.283-4.456-4.658 0-3.564 2.25-9.505 6.571-9.695 2.385-.143 2.97 1.283 2.97 2.519 0 2.329-5.221 5.133-6.211 7.462zm-.045-1.188c.27.143 4.276-3.85 4.276-5.656 0-.618-.315-1.046-.765-1.046-2.61.143-3.51 6.701-3.51 6.701z"/><path d="M95.103 45.567c.09-.428 0-.665-.225-.665-.135 0-.405.333-.495.333-.135 0-.495-1.046.045-1.473.855-.76 1.8-1.331 2.881-1.331.9 0 1.44.428 1.215 1.473l-1.71 7.652c-.27 1.093.09 1.568.855 1.568.9 0 1.665-.57 2.385-1.426l1.665-7.604c.27-1.236 1.261-1.711 2.161-1.663.45 0 .9.143 1.17.38l-1.935 8.887c-.315 1.378 0 1.949.54 1.949.45 0 1.08-1.046 1.44-1.283.18-.143.765.285.765.76-.045 1.901-2.16 3.089-3.555 3.089-1.261 0-2.296-3.042-2.296-3.042-.045 0-2.34 3.042-3.78 3.089-2.835.047-2.79-3.089-2.295-5.133l1.17-5.561zm5.356-3.945c-1.215-.047-1.755-.903-1.71-1.758 0-.808.54-1.568 1.485-1.568.27 0 .675.095.675.19 0 .047-.135.333-.135.523 0 .523.315.808.765.808.585 0 1.261-1.141 1.666-1.473.135-.095.18.618.09 1.093-.27.998-1.306 2.234-2.836 2.186z"/></svg>