<svg width="148" height="32" viewBox="0 0 148 32" fill="none" xmlns="http://www.w3.org/2000/svg">
<path d="M84.6542 3.34597C84.4061 2.62323 84.0808 2.01001 83.3805 1.98263H83.3364H82.752H81.6272C81.5775 1.97715 81.5224 1.97168 81.4673 1.97168H80.9049C80.8497 1.97168 80.7946 1.97715 80.745 1.98263C80.1605 2.07023 79.8683 2.65061 79.6477 3.32954L70.9912 27.3494C70.9912 27.667 71.2504 27.9243 71.5702 27.9243H73.3787C74.0954 27.9243 74.4649 27.3385 74.6799 26.6322L76.4057 21.6278C76.527 21.2829 76.8523 21.0529 77.2217 21.0529H86.8487C87.2126 21.0529 87.5379 21.2829 87.6592 21.6223L89.4566 26.6815C89.6772 27.3878 90.0632 27.9736 90.813 27.9736H92.7042C93.0406 27.9736 93.3107 27.7163 93.3107 27.3987L84.6542 3.34597ZM77.5911 18.2113L81.958 5.57439L86.4517 18.2113H77.5911Z" fill="#76A62D"/>
<path d="M109.961 2.04877C109.73 1.96117 108.39 1.97212 108.39 1.97212C107.491 1.99402 106.918 1.97212 106.515 2.52512C106.455 2.60725 106.41 2.69485 106.366 2.78245L101.001 14.3078L95.4767 2.78793C95.4326 2.70033 95.3885 2.61272 95.3279 2.53059C94.9254 1.97759 94.3519 1.99402 93.4532 1.97759C93.4532 1.97759 92.1134 1.96664 91.8818 2.05425C91.3304 2.26231 91.6943 2.93576 91.9535 3.48876L98.7298 16.9141C99.0386 17.5273 99.1985 18.2007 99.1985 18.8852V26.9885C99.1985 27.536 99.6451 27.9795 100.196 27.9795H101.614C102.165 27.9795 102.611 27.536 102.611 26.9885V18.9235C102.611 18.2391 102.771 17.5656 103.08 16.9524L109.884 3.48329C110.149 2.93029 110.513 2.25683 109.961 2.04877Z" fill="#76A62D"/>
<path d="M135.865 14.5871L119.599 1.05774C119.478 0.959181 119.301 0.964656 119.191 1.07964L116.787 3.5654L130.07 14.5871L116.787 25.6087L119.191 28.0945C119.301 28.2095 119.478 28.215 119.599 28.1164L135.865 14.5871Z" fill="#76A62D"/>
<path d="M147.554 14.6964L131.289 1.16711C131.167 1.06856 130.991 1.07403 130.881 1.18901L128.477 3.67477L141.759 14.6964L128.477 25.7181L130.881 28.2039C130.991 28.3189 131.167 28.3243 131.289 28.2258L147.554 14.6964Z" fill="#76A62D"/>
<path d="M20.364 1.95605H18.3129C17.8829 1.95605 17.541 2.301 17.541 2.72259V27.1148C17.541 27.5583 17.9049 27.9252 18.357 27.9252H20.331C20.7776 27.9252 21.147 27.5638 21.147 27.1148V2.72807C21.1415 2.301 20.7941 1.95605 20.364 1.95605Z" fill="#76A62D"/>
<path d="M13.0253 24.8311H3.86708V2.72747C3.86708 2.3004 3.51972 1.96094 3.09517 1.96094H1.22602C0.795951 1.96094 0.454102 2.30588 0.454102 2.72747V24.8365V26.8569C0.454102 27.3606 0.862116 27.7658 1.36938 27.7658H3.8726H13.0309C13.472 27.7658 13.8248 27.4154 13.8248 26.9774V25.6195C13.8193 25.1869 13.4609 24.8311 13.0253 24.8311Z" fill="#76A62D"/>
<path d="M68.3056 3.39062C67.1643 2.62408 65.5874 2.08203 62.5714 2.08203H57.8131H56.7324C56.0376 2.08203 55.4697 2.64051 55.4697 3.33586V26.6385C55.4697 27.3503 56.0487 27.9307 56.771 27.9307H57.7745C58.4912 27.9307 59.0757 27.3558 59.0757 26.6385V17.8836C60.1564 17.8836 63.8947 17.8836 64.3358 17.8836C64.8486 17.8836 71.4319 16.8597 71.4319 9.7419C71.4264 6.64291 69.8274 4.41996 68.3056 3.39062ZM63.1393 15.2007C62.7974 15.2007 59.4727 15.2007 59.4727 15.2007H59.0702V4.7649H61.9704C63.9608 4.7649 65.0029 5.12079 65.7583 5.62999C66.7673 6.30892 67.8204 7.77629 67.8204 9.82403C67.826 14.5273 63.4811 15.2007 63.1393 15.2007Z" fill="#76A62D"/>
<path d="M52.1342 28.5053C51.9908 28.4013 51.8309 28.3246 51.66 28.2589C50.3036 27.7442 48.3242 26.3809 47.2215 25.6746C46.3668 25.1271 46.4992 24.6945 46.615 24.5139C46.637 24.4865 46.6646 24.4536 46.6866 24.4263C46.6922 24.4208 46.6922 24.4208 46.6922 24.4208C48.5668 22.1376 49.653 18.8853 49.653 14.7789C49.653 7.5187 46.5267 1.63281 38.0411 1.63281C30.2337 1.63281 26.4844 7.5187 26.4844 14.7789C26.4844 22.039 29.0041 28.2534 38.0411 28.2534C39.8772 28.2534 41.5644 27.903 43.0476 27.2241H43.0531C43.4887 27.0379 43.9132 27.0434 44.4977 27.465C48.6881 30.5476 50.7668 31.6809 52.2555 31.6809C52.9723 31.6809 52.8455 29.4909 52.8455 29.4909C52.8455 29.4909 52.7407 28.9379 52.1342 28.5053ZM30.1896 14.8336C30.1896 14.8172 30.1896 14.8008 30.1896 14.7789C30.2006 9.85115 32.0091 4.6223 38.0522 4.6223C44.9002 4.6223 45.9478 9.85115 45.9533 14.7789C45.9533 14.7953 45.9533 14.8117 45.9533 14.8336C45.9533 20.6976 44.0401 25.1545 38.0522 25.1545C31.1766 25.1545 30.1896 19.7778 30.1896 14.8336Z" fill="#76A62D"/>
</svg>
