<svg width="80" height="80" viewBox="0 0 80 80" fill="none" xmlns="http://www.w3.org/2000/svg">
<path d="M17.2568 39.2168C17.3895 39.2168 17.5222 39.2168 17.6549 39.2168C17.7394 39.0358 17.7394 38.7703 17.6549 38.4687C17.5705 38.0223 17.4378 37.7206 17.1723 37.7568C16.9069 37.8051 16.9069 38.155 16.9913 38.6014C17.0275 38.8669 17.1241 39.084 17.2568 39.2168Z" fill="black"/>
<path d="M14.9162 39.6144C15.0971 39.6988 15.2299 39.7471 15.2661 39.6988C15.3143 39.6506 15.2661 39.6144 15.2178 39.5178C15.1333 39.3369 14.9041 39.2041 14.7352 39.1197C14.2887 38.9387 13.8061 38.987 13.408 39.3007C13.2753 39.3851 13.1425 39.5178 13.1908 39.6144C13.1908 39.6626 13.2391 39.6626 13.2753 39.6626C13.3597 39.6626 13.7579 39.4816 14.2043 39.4454C14.4697 39.4334 14.7352 39.5299 14.9162 39.6144Z" fill="black"/>
<path d="M14.5177 39.8312C14.2522 39.8795 14.1195 39.964 14.0351 40.0484C13.9506 40.1329 13.9023 40.1811 13.9023 40.2294V40.2777H13.9506C13.9989 40.2777 14.1316 40.2294 14.1316 40.2294C14.4815 40.0967 14.7107 40.0967 14.9279 40.1449C15.0606 40.1449 15.1089 40.1932 15.1451 40.1449C15.1451 40.1449 15.1451 40.0967 15.1451 40.0605C15.133 39.9278 14.8676 39.795 14.5177 39.8312Z" fill="black"/>
<path d="M14.6505 40.1454C14.7349 39.9644 14.7349 39.5662 14.6505 39.2646C14.566 38.8182 14.4333 38.5527 14.1196 38.5527C13.8541 38.601 13.8541 38.9509 13.9386 39.4335C13.9869 39.7472 14.1196 39.9161 14.1558 40.0489C14.385 40.4108 14.5177 40.3143 14.6505 40.1454Z" fill="black"/>
<path d="M16.4605 40.6277C16.6415 40.7121 16.8104 40.6759 16.907 40.5432C16.9552 40.4105 16.8587 40.2295 16.6898 40.145C16.5088 40.0606 16.3399 40.0968 16.2434 40.2295C16.1468 40.3622 16.2796 40.5432 16.4605 40.6277Z" fill="black"/>
<path d="M17.5584 39.6631C17.4257 39.6631 17.293 39.7958 17.293 40.013C17.293 40.194 17.3774 40.3629 17.5584 40.3629C17.6911 40.3629 17.8238 40.2302 17.8238 40.013C17.7876 39.832 17.6911 39.6631 17.5584 39.6631Z" fill="black"/>
<path d="M8.20759 43.1016C8.15933 43.0534 8.12313 43.0534 8.07487 43.1016C8.02661 43.1016 7.99041 43.1016 7.94215 43.1016C7.85769 43.1016 7.76117 43.0534 7.72497 42.9689C7.68878 42.8844 7.67671 42.7517 7.72497 42.5707L7.77323 42.4863C7.90595 42.2208 8.08693 41.8227 7.85769 41.4245C7.67671 41.1108 7.45953 40.9419 7.14583 40.8937C6.83213 40.8454 6.53049 40.9781 6.34951 41.2074C6.03581 41.5573 5.99961 42.0037 6.03581 42.1726C6.03581 42.2208 6.08407 42.257 6.12027 42.257C6.16853 42.257 6.25299 42.2088 6.30125 42.0761V42.0278C6.30125 41.9433 6.34951 41.8468 6.43397 41.7141C6.51843 41.5814 6.65115 41.4969 6.78387 41.4969C6.91659 41.4487 7.09757 41.4969 7.23029 41.5814C7.44747 41.7141 7.54399 41.9795 7.44747 42.245C7.31475 42.3777 7.26649 42.5949 7.26649 42.8241C7.31475 43.2223 7.58019 43.4033 7.79736 43.4395C8.01454 43.4395 8.19552 43.3067 8.19552 43.2223C8.24379 43.1499 8.20759 43.1499 8.20759 43.1016Z" fill="black"/>
<path d="M21.0451 42.3535C21.0451 42.3052 20.9968 42.1363 20.9124 41.8709L20.7314 41.4727C21.0451 41.0263 21.0451 40.5919 20.9968 40.3748C20.9486 40.1093 20.8158 39.8439 20.5987 39.5784C20.3815 39.313 19.8506 39.0476 19.187 38.8666L18.8371 38.7821C18.8371 38.7821 18.8371 37.9375 18.7888 37.5876C18.7888 37.3222 18.7406 36.924 18.6079 36.5259C18.4751 35.995 18.2097 35.5124 17.8598 35.1987C18.7406 34.2696 19.3197 33.2079 19.3197 32.3271C19.3197 30.65 17.2445 30.1191 14.6383 31.1809L14.1075 31.3981C14.1075 31.3981 13.1422 30.4328 13.094 30.4328C10.2345 27.8749 1.10092 38.0703 4.00869 40.5437L4.62403 41.0745C4.44305 41.521 4.40685 42.0036 4.44305 42.5345C4.52751 43.1981 4.88947 43.8617 5.40828 44.3925C5.93916 44.8752 6.63896 45.1889 7.35082 45.1889C8.49703 47.8433 11.1032 49.4238 14.1437 49.5204C17.4134 49.6048 20.1884 48.0604 21.3347 45.3216C21.4191 45.1406 21.7328 44.2598 21.7328 43.4635C21.8052 42.6551 21.3588 42.3535 21.0451 42.3535ZM7.62832 44.4287C7.54387 44.4287 7.41115 44.477 7.31462 44.4287C6.34939 44.3805 5.23937 43.4997 5.15491 42.4379C5.07045 41.2917 5.63753 40.411 6.69929 40.1817C6.83201 40.1334 6.96472 40.1334 7.14571 40.1334C7.72485 40.1817 8.60562 40.6161 8.8228 41.895C8.99172 43.1015 8.73834 44.2478 7.62832 44.4287ZM6.53037 39.4819C5.86677 39.6146 5.2997 39.9645 4.93773 40.4954C4.72055 40.3144 4.3224 39.9645 4.27413 39.8318C3.69499 38.7701 4.88947 36.6586 5.73405 35.5003C7.76104 32.5925 10.9825 30.3846 12.4424 30.7707C12.7079 30.8551 13.5042 31.7842 13.5042 31.7842C13.5042 31.7842 12.0081 32.6287 10.6326 33.775C8.77454 35.1504 7.36288 37.2257 6.53037 39.4819ZM16.9428 43.9823L16.9911 43.9341C16.9911 43.8858 16.9428 43.8858 16.9428 43.8858C16.9428 43.8858 15.3985 44.103 13.9385 43.5721C14.1195 43.0412 14.5177 43.2222 15.1692 43.3067C16.3154 43.3911 17.3772 43.2222 18.1252 42.993C18.7888 42.812 19.6696 42.4138 20.3332 41.895C20.5504 42.3776 20.6469 42.9568 20.6469 42.9568C20.6469 42.9568 20.8279 42.9085 20.9606 43.005C21.0933 43.0895 21.1778 43.2705 21.1416 43.7169C21.0089 44.5977 20.6107 45.2613 20.0437 45.9249C19.6938 46.323 19.1991 46.6729 18.6803 46.9384C18.4148 47.0711 18.1011 47.2038 17.7995 47.2883C15.4105 48.0363 13.0336 47.24 12.2856 45.4302C12.2373 45.2975 12.1529 45.1647 12.1529 44.9838C11.8392 43.7893 12.1046 42.3776 12.9974 41.4968C13.0457 41.4486 13.0819 41.3641 13.0819 41.2797C13.0819 41.1952 13.0336 41.1469 12.9974 41.0987C12.6837 40.6523 11.634 39.9042 11.8512 38.4443C11.9839 37.3825 12.913 36.6827 13.7455 36.7189H13.9627C14.3126 36.7189 14.6745 36.8034 14.9279 36.8034C15.4105 36.8034 15.8931 36.7551 16.424 36.3208C16.605 36.188 16.7377 36.0553 17.0032 36.0071C17.0514 36.0071 17.0876 35.9588 17.2203 36.0071C17.3531 36.0071 17.4858 36.0553 17.5702 36.1398C18.0167 36.4535 18.0529 37.105 18.1011 37.6359C18.1011 37.9496 18.1494 38.6494 18.1494 38.8304C18.1976 39.2768 18.2821 39.3613 18.5475 39.4457C18.6803 39.494 18.813 39.5302 18.994 39.5784C19.5731 39.7594 19.923 39.8921 20.1402 40.1093C20.2729 40.242 20.3212 40.3748 20.3574 40.5075C20.4418 40.9901 19.9592 41.6054 18.7647 42.1846C17.4375 42.7999 15.8931 42.9326 14.7952 42.7999L14.397 42.7516C13.5163 42.6189 13.0336 43.7651 13.5525 44.5132C13.9023 44.9958 14.8314 45.3578 15.7122 45.3578C17.8357 45.3578 19.4645 44.477 20.0437 43.6807L20.0919 43.5962C20.1402 43.548 20.0919 43.5118 20.0437 43.548C19.561 43.8979 17.3531 45.2251 15.0124 44.8269C15.0124 44.8269 14.7469 44.7786 14.4815 44.6942C14.2643 44.6097 13.8662 44.4287 13.7696 43.9823C15.7484 44.5615 16.9428 43.9823 16.9428 43.9823ZM10.3189 35.5124C11.0308 34.6678 11.9477 33.9197 12.7441 33.5216C12.7923 33.5216 12.7923 33.5216 12.7923 33.5698C12.7441 33.7026 12.6113 33.9197 12.5751 34.1007C12.5751 34.149 12.6234 34.149 12.6234 34.149C13.106 33.7991 13.9868 33.4371 14.7469 33.4009C14.7952 33.4009 14.7952 33.4492 14.7952 33.4492C14.6625 33.5336 14.578 33.6664 14.4453 33.7991C14.4453 33.7991 14.4453 33.8473 14.4936 33.8473C15.0244 33.8473 15.7725 34.0283 16.2551 34.33C16.3034 34.33 16.2551 34.4144 16.2068 34.4144C15.4588 34.2334 14.2643 34.1007 12.9854 34.4144C11.8392 34.6799 10.9946 35.1263 10.3792 35.5606C10.3189 35.5486 10.2827 35.5486 10.3189 35.5124Z" fill="black"/>
<path d="M73.4934 37.4912C72.3954 37.4912 71.9008 38.2875 71.6836 38.7701C71.5509 39.0838 71.5509 39.1683 71.4664 39.1683C71.3337 39.1683 71.4181 38.9029 71.5147 38.6374C71.6474 38.0583 71.5629 37.6239 71.5629 37.6239H70.0186V45.0442H72.1421V42.7035C72.4075 43.1499 72.8539 43.5843 73.5537 43.5843C75.0981 43.5843 75.8462 42.3053 75.8462 40.5438C75.8341 38.553 74.9051 37.4912 73.4934 37.4912ZM72.9263 42.1726C72.4437 42.1726 72.0817 41.5573 72.0817 40.7127C72.0817 39.8681 72.4316 39.2528 72.9263 39.2528C73.5055 39.2528 73.7709 39.7836 73.7709 40.7127C73.7588 41.69 73.5417 42.1726 72.9263 42.1726Z" fill="black"/>
<path d="M31.518 37.4911C30.589 37.4911 30.1546 38.2392 29.9254 38.6856C29.7927 38.9511 29.7927 39.1682 29.6599 39.1682C29.5272 39.1682 29.6117 38.9872 29.5272 38.5891C29.3945 38.0582 28.9481 37.4911 28.0311 37.4911C27.0659 37.4911 26.6195 38.3357 26.4385 38.7701C26.3057 39.0838 26.3057 39.1682 26.2213 39.1682C26.0886 39.1682 26.173 38.9028 26.2696 38.6374C26.4023 38.0582 26.3178 37.6239 26.3178 37.6239H24.7734V43.4515H26.8487V40.5437C26.8487 39.9645 27.0659 39.2648 27.5123 39.2648C27.9949 39.2648 28.0914 39.6146 28.0914 40.2782V43.4515H30.2149V40.5437C30.2149 40.0128 30.4321 39.2648 30.8785 39.2648C31.3612 39.2648 31.4577 39.7956 31.4577 40.2782V43.4153H33.4847V39.9766C33.4606 38.4684 32.9297 37.4911 31.518 37.4911ZM67.3644 37.4911C66.4354 37.4911 66.001 38.2392 65.7718 38.6856C65.6391 38.9511 65.6391 39.1682 65.5064 39.1682C65.3736 39.1682 65.4581 38.951 65.3736 38.5891C65.1927 38.0582 64.8428 37.4911 63.8775 37.4911C62.9123 37.4911 62.4659 38.3357 62.2849 38.7701C62.1522 39.0838 62.1522 39.1682 62.0677 39.1682C61.935 39.1682 62.0195 38.9028 62.116 38.6374C62.2487 38.0582 62.1642 37.6239 62.1642 37.6239H60.6199V43.4515H62.7434V40.5437C62.7434 39.9645 62.9606 39.2648 63.407 39.2648C63.8896 39.2648 63.9861 39.6146 63.9861 40.2782V43.4515H66.1096V40.5437C66.1096 40.0128 66.3268 39.2648 66.7732 39.2648C67.2559 39.2648 67.3524 39.7956 67.3524 40.2782V43.4153H69.4276V39.9766C69.307 38.4684 68.7761 37.4911 67.3644 37.4911ZM37.0802 37.4911C35.4514 37.4911 34.2931 38.0703 34.2931 38.0703V39.8318C34.2931 39.8318 35.572 39.0838 36.6338 39.0838C37.4783 39.0838 37.5628 39.5302 37.5145 39.9283C37.5145 39.9283 37.2974 39.8801 36.5493 39.8801C34.8239 39.8801 33.9432 40.6764 33.9432 41.9071C33.9432 43.1016 34.9084 43.5842 35.753 43.5842C36.9475 43.5842 37.4783 42.7879 37.6473 42.3897C37.78 42.1243 37.78 41.9433 37.8644 41.9433C37.9972 41.9433 37.9489 42.076 37.9489 42.3414C37.9489 42.7879 37.9489 43.1378 38.0334 43.4394H39.6381V40.5678C39.5898 38.7701 38.9745 37.4911 37.0802 37.4911ZM36.5493 42.0881C36.0667 42.2208 35.8013 42.0398 35.8013 41.7382C35.8013 41.2917 36.2839 41.0746 36.9475 41.0746C37.2612 41.0746 37.5266 41.1228 37.5266 41.1228C37.5145 41.2917 37.0802 41.9553 36.5493 42.0881ZM43.0767 35.8623H45.2002V43.4515H43.0767C43.0767 43.4153 43.0767 35.8623 43.0767 35.8623ZM47.5409 40.5437C47.5409 40.0128 48.0235 39.5302 48.9043 39.5302C49.8696 39.5302 50.6659 40.0128 50.8469 40.1093V38.0703C50.8469 38.0703 50.2315 37.4911 48.7233 37.4911C47.1307 37.4911 45.8156 38.4202 45.8156 40.4472C45.8156 42.4742 47.01 43.5842 48.7233 43.5842C50.0505 43.5842 50.8831 42.8361 50.8831 42.8361V40.8936C50.6176 41.0263 49.9178 41.5089 48.9405 41.5089C47.8908 41.5572 47.5409 41.0746 47.5409 40.5437ZM55.1301 37.4911C53.8994 37.4911 53.453 38.6374 53.3685 38.8545C53.2841 39.0717 53.2358 39.1682 53.1514 39.1682C53.0186 39.1682 53.1031 38.9028 53.1514 38.7701C53.2358 38.4564 53.4651 37.7083 53.4651 36.7431C53.4651 36.0795 53.3806 35.8623 53.3806 35.8623H51.5708V43.4515H53.6943V40.5437C53.6943 40.0611 53.8753 39.2648 54.4062 39.2648C54.8526 39.2648 54.9853 39.5785 54.9853 40.23V43.4515H57.1088V40.3627C57.0244 38.8666 56.8072 37.4911 55.1301 37.4911ZM57.7362 37.6239V43.4515H59.8597V37.6239C59.8597 37.6239 59.5098 37.841 58.798 37.841C58.0861 37.8048 57.7362 37.6239 57.7362 37.6239Z" fill="black"/>
<path d="M58.7975 37.4548C59.5038 37.4548 60.0764 37.0767 60.0764 36.6102C60.0764 36.1438 59.5038 35.7656 58.7975 35.7656C58.0912 35.7656 57.5186 36.1438 57.5186 36.6102C57.5186 37.0767 58.0912 37.4548 58.7975 37.4548Z" fill="black"/>
<path d="M40.3018 37.624V43.4516H42.4132V37.624C42.4132 37.624 42.0633 37.8412 41.3514 37.8412C41.3514 37.805 40.3018 37.624 40.3018 37.624Z" fill="black"/>
<path d="M41.3512 37.4548C42.0575 37.4548 42.6301 37.0767 42.6301 36.6102C42.6301 36.1438 42.0575 35.7656 41.3512 35.7656C40.6449 35.7656 40.0723 36.1438 40.0723 36.6102C40.0723 37.0767 40.6449 37.4548 41.3512 37.4548Z" fill="black"/>
</svg>
