<svg width="106" height="40" viewBox="0 0 106 40" fill="none" xmlns="http://www.w3.org/2000/svg">
<path fill-rule="evenodd" clip-rule="evenodd" d="M13.4919 19.3001V11.042C13.4919 9.7101 13.0125 8.44475 12.0536 7.51239C11.2318 6.71322 10.273 6.24704 9.17723 6.18044C7.46506 5.98065 5.68438 6.71319 4.65708 8.11174C4.0407 8.91091 3.6983 9.90986 3.6983 10.9754V19.3001H0V10.9088C0 8.57793 0.821848 6.64659 2.53402 4.98165C4.24618 3.31672 6.23227 2.51758 8.6293 2.51758C11.0263 2.51758 13.0125 3.31672 14.7246 4.98165C14.9774 5.22742 15.2107 5.47899 15.4249 5.7368C15.639 5.47899 15.8724 5.22742 16.1251 4.98165C17.8373 3.31672 19.8234 2.51758 22.2204 2.51758C24.6174 2.51758 26.6036 3.31672 28.3157 4.98165C30.0279 6.64659 30.8497 8.57793 30.8497 10.9088V19.3001L27.083 19.3001V11.042C27.083 9.7101 26.6035 8.44475 25.6447 7.51239C24.8229 6.71322 23.8641 6.24704 22.7683 6.18044C21.0562 5.98065 19.2755 6.71319 18.2482 8.11174C17.6318 8.91091 17.2894 9.90986 17.2894 10.9754V19.3001L17.2586 19.3001L13.4919 19.3001ZM86.6303 2.51758V10.7757C86.6303 12.1076 86.1509 13.373 85.1921 14.3053C84.3703 15.1045 83.4115 15.5707 82.3157 15.6373C80.6035 15.8371 78.8229 15.1045 77.7956 13.706C77.1792 12.9068 76.8368 11.9078 76.8368 10.8423V2.51762H73.1385V10.9089C73.1385 13.2398 73.9603 15.1711 75.6725 16.8361C77.3847 18.501 79.3707 19.3001 81.7678 19.3001C84.1648 19.3001 86.1509 18.501 87.8631 16.8361C89.5753 15.1711 90.3971 13.2398 90.3971 10.9089V2.51761L86.6303 2.51758ZM100.726 8.91098C97.9869 8.245 96.7542 7.912 96.7542 6.97963C96.7542 6.11386 97.576 6.11387 98.5348 6.11387H105.383V2.51763H97.9869C94.6996 2.51763 93.0559 4.11595 93.0559 7.44582C93.0559 8.64458 93.4668 9.71016 94.2202 10.5093C94.9735 11.3751 97.1651 12.2408 100.658 13.1066C101.685 13.373 102.233 13.8392 102.233 14.4386C102.165 15.1711 101.343 15.6373 99.6991 15.7039H92.9874V19.3002H99.7676C101.822 19.3002 103.397 18.834 104.425 17.9682C105.52 17.0359 106 15.7039 106 13.9058C106 12.5738 105.589 11.5083 104.836 10.7757C104.082 9.97653 102.713 9.37716 100.726 8.91098ZM55.8234 4.98171C57.5355 3.31677 59.5216 2.51763 61.9187 2.51763C64.3157 2.51763 66.3703 3.31677 68.014 4.98171C69.7262 6.64664 70.548 8.57799 70.548 10.9089C70.548 13.2398 69.7262 15.1712 68.014 16.8361C66.3018 18.501 64.3157 19.3002 61.9187 19.3002C60.0695 19.3002 58.4258 18.834 56.9876 17.8351V22.6567H53.2893V10.9089C53.2893 8.57799 54.1112 6.64664 55.8234 4.98171ZM61.9187 15.6373C63.2199 15.6373 64.5212 15.1046 65.4115 14.2388C66.3703 13.3064 66.8497 12.1743 66.8497 10.8423C66.8497 9.57697 66.3018 8.31159 65.4115 7.44582C64.4527 6.51346 63.2884 6.04729 61.9187 6.04729C60.6174 6.04729 59.3162 6.58006 58.4259 7.44582C57.467 8.37819 56.9876 9.51037 56.9876 10.8423C56.9876 12.1077 57.5355 13.373 58.4259 14.2388C59.3847 15.1711 60.5489 15.6373 61.9187 15.6373ZM42.0695 19.3002C39.6725 19.3002 37.6864 18.501 35.9742 16.8361C34.2621 15.1712 33.4402 13.2398 33.4402 10.9089C33.4402 8.57802 34.2621 6.64672 35.9742 4.98179C37.6864 3.31685 39.6725 2.51768 42.0695 2.51768C44.4666 2.51768 46.4527 3.31685 48.1648 4.98179C49.877 6.64672 50.6989 8.57802 50.6989 10.9089V19.3002H42.0695ZM45.2884 7.3127C44.4666 6.58012 43.4393 6.18055 42.3435 6.11395C40.7683 6.04735 39.3986 6.58011 38.3028 7.71226C37.5494 8.51143 37.1385 9.51038 37.07 10.5759C37.0015 12.1077 37.5494 13.4396 38.7137 14.5052C39.5355 15.2378 40.5628 15.6374 41.6586 15.704C43.2338 15.7705 44.6035 15.2378 45.6993 14.1056C46.4527 13.3064 46.8636 12.3075 46.9321 11.2419C47.0691 9.64358 46.5212 8.37825 45.2884 7.3127Z" fill="#0C2D36"/>
<path opacity="0.64" d="M4.97494 39.1544H5.85694L9.33694 29.7944H8.43694L6.47494 35.1224L4.34494 29.7944H3.40894L6.04294 36.2564L4.97494 39.1544ZM12.8327 36.4544C13.4767 36.4544 14.0287 36.3044 14.4887 36.0044C14.9527 35.7004 15.3067 35.2604 15.5507 34.6844L14.6627 34.4204C14.3347 35.2124 13.7247 35.6084 12.8327 35.6084C12.1367 35.6084 11.6127 35.3744 11.2607 34.9064C10.9087 34.4344 10.7287 33.8104 10.7207 33.0344C10.7287 32.2784 10.9027 31.6604 11.2427 31.1804C11.5867 30.7004 12.1167 30.4604 12.8327 30.4604C13.2567 30.4604 13.6327 30.5684 13.9607 30.7844C14.2927 30.9964 14.5347 31.2964 14.6867 31.6844L15.5507 31.4084C15.3707 30.8524 15.0367 30.4144 14.5487 30.0944C14.0647 29.7744 13.4947 29.6144 12.8387 29.6144C12.1947 29.6144 11.6467 29.7584 11.1947 30.0464C10.7427 30.3304 10.3967 30.7304 10.1567 31.2464C9.91669 31.7584 9.79269 32.3544 9.78469 33.0344C9.79269 33.6984 9.91269 34.2884 10.1447 34.8044C10.3807 35.3204 10.7247 35.7244 11.1767 36.0164C11.6287 36.3084 12.1807 36.4544 12.8327 36.4544ZM16.0134 36.2744C16.4214 36.3544 16.7414 36.3604 16.9734 36.2924C17.2054 36.2244 17.3814 36.0844 17.5014 35.8724C17.6214 35.6604 17.7154 35.3764 17.7834 35.0204C17.8474 34.7044 17.9074 34.3124 17.9634 33.8444C18.0194 33.3764 18.0714 32.8664 18.1194 32.3144C18.1674 31.7624 18.2114 31.2044 18.2514 30.6404H20.9634V36.2744H21.8394V29.7944H17.4354C17.3714 30.8224 17.3054 31.7244 17.2374 32.5004C17.1734 33.2764 17.0914 33.9564 16.9914 34.5404C16.9314 34.8924 16.8434 35.1564 16.7274 35.3324C16.6154 35.5084 16.3774 35.5644 16.0134 35.5004V36.2744ZM24.4398 39.1544H25.3218L28.8018 29.7944H27.9018L25.9398 35.1224L23.8098 29.7944H22.8738L25.5078 36.2564L24.4398 39.1544ZM29.8439 36.2744H30.7259V30.6404H34.2839V29.7944H29.8439V36.2744ZM40.57 29.7944H39.832L36.274 34.7984V29.7944H35.416V36.2744H36.16L39.712 31.2284V36.2744H40.57V29.7944ZM44.6504 36.2744H45.5324V33.4544H49.1864V36.2744H50.0684V29.7944H49.1864V32.6084H45.5324V29.7944H44.6504V36.2744ZM53.6003 36.4544C54.7323 36.4544 55.5543 36.0364 56.0663 35.2004V36.2744H56.8523V32.2484C56.8523 32.0084 56.8403 31.7724 56.8163 31.5404C56.7923 31.3084 56.7403 31.0984 56.6603 30.9104C56.4883 30.4904 56.1943 30.1704 55.7783 29.9504C55.3663 29.7264 54.8643 29.6144 54.2723 29.6144C53.5603 29.6144 52.9803 29.7744 52.5323 30.0944C52.0843 30.4144 51.7843 30.8644 51.6323 31.4444L52.4902 31.6964C52.6143 31.2644 52.8283 30.9484 53.1323 30.7484C53.4403 30.5484 53.8163 30.4484 54.2603 30.4484C54.8763 30.4484 55.3163 30.5924 55.5803 30.8804C55.8443 31.1644 55.9803 31.5984 55.9883 32.1824C55.7003 32.2224 55.3823 32.2644 55.0343 32.3084C54.6903 32.3524 54.3443 32.4024 53.9963 32.4584C53.6483 32.5144 53.3283 32.5784 53.0363 32.6504C52.5523 32.7784 52.1563 32.9924 51.8483 33.2924C51.5403 33.5884 51.3863 34.0024 51.3863 34.5344C51.3863 34.8784 51.4683 35.1964 51.6323 35.4884C51.7963 35.7804 52.0423 36.0144 52.3703 36.1904C52.7023 36.3664 53.1123 36.4544 53.6003 36.4544ZM53.7023 35.6924C53.3543 35.6924 53.0743 35.6364 52.8623 35.5244C52.6543 35.4084 52.5023 35.2624 52.4062 35.0864C52.3143 34.9064 52.2683 34.7224 52.2683 34.5344C52.2683 34.1824 52.3863 33.9184 52.6223 33.7424C52.8583 33.5664 53.1143 33.4384 53.3903 33.3584C53.7463 33.2624 54.1603 33.1844 54.6323 33.1244C55.1043 33.0644 55.5523 33.0084 55.9763 32.9564C55.9763 33.1044 55.9703 33.2744 55.9583 33.4664C55.9503 33.6544 55.9283 33.8284 55.8923 33.9884C55.8083 34.4764 55.5763 34.8824 55.1963 35.2064C54.8203 35.5304 54.3223 35.6924 53.7023 35.6924ZM60.8106 39.1544H61.6986V35.5004C61.9306 35.7964 62.2166 36.0304 62.5566 36.2024C62.8966 36.3704 63.2866 36.4544 63.7266 36.4544C64.3346 36.4544 64.8526 36.3044 65.2806 36.0044C65.7086 35.7004 66.0346 35.2904 66.2586 34.7744C66.4866 34.2584 66.6006 33.6764 66.6006 33.0284C66.6006 32.3844 66.4866 31.8044 66.2586 31.2884C66.0346 30.7724 65.7106 30.3644 65.2866 30.0644C64.8626 29.7644 64.3546 29.6144 63.7626 29.6144C63.2826 29.6144 62.8606 29.7104 62.4966 29.9024C62.1366 30.0904 61.8386 30.3524 61.6026 30.6884V29.7944H60.8106V39.1544ZM63.6366 35.6324C63.1766 35.6324 62.7966 35.5204 62.4966 35.2964C62.1966 35.0684 61.9726 34.7584 61.8246 34.3664C61.6766 33.9744 61.6026 33.5284 61.6026 33.0284C61.6026 32.2644 61.7686 31.6424 62.1006 31.1624C62.4366 30.6784 62.9426 30.4364 63.6186 30.4364C64.0826 30.4364 64.4646 30.5504 64.7646 30.7784C65.0686 31.0064 65.2946 31.3164 65.4426 31.7084C65.5906 32.1004 65.6646 32.5404 65.6646 33.0284C65.6646 33.5204 65.5886 33.9624 65.4366 34.3544C65.2886 34.7464 65.0646 35.0584 64.7646 35.2904C64.4646 35.5184 64.0886 35.6324 63.6366 35.6324ZM69.7721 36.4544C70.9041 36.4544 71.7261 36.0364 72.2381 35.2004V36.2744H73.0241V32.2484C73.0241 32.0084 73.0121 31.7724 72.9881 31.5404C72.9641 31.3084 72.9121 31.0984 72.8321 30.9104C72.6601 30.4904 72.3661 30.1704 71.9501 29.9504C71.5381 29.7264 71.0361 29.6144 70.4441 29.6144C69.7321 29.6144 69.1521 29.7744 68.7041 30.0944C68.2561 30.4144 67.9561 30.8644 67.8041 31.4444L68.6621 31.6964C68.7861 31.2644 69.0001 30.9484 69.3041 30.7484C69.6121 30.5484 69.9881 30.4484 70.4321 30.4484C71.0481 30.4484 71.4881 30.5924 71.7521 30.8804C72.0161 31.1644 72.1521 31.5984 72.1601 32.1824C71.8721 32.2224 71.5541 32.2644 71.2061 32.3084C70.8621 32.3524 70.5161 32.4024 70.1681 32.4584C69.8201 32.5144 69.5001 32.5784 69.2081 32.6504C68.7241 32.7784 68.3281 32.9924 68.0201 33.2924C67.7121 33.5884 67.5581 34.0024 67.5581 34.5344C67.5581 34.8784 67.6401 35.1964 67.8041 35.4884C67.9681 35.7804 68.2141 36.0144 68.5421 36.1904C68.8741 36.3664 69.2841 36.4544 69.7721 36.4544ZM69.8741 35.6924C69.5261 35.6924 69.2461 35.6364 69.0341 35.5244C68.8261 35.4084 68.6741 35.2624 68.5781 35.0864C68.4861 34.9064 68.4401 34.7224 68.4401 34.5344C68.4401 34.1824 68.5581 33.9184 68.7941 33.7424C69.0301 33.5664 69.2861 33.4384 69.5621 33.3584C69.9181 33.2624 70.3321 33.1844 70.8041 33.1244C71.2761 33.0644 71.7241 33.0084 72.1481 32.9564C72.1481 33.1044 72.1421 33.2744 72.1301 33.4664C72.1221 33.6544 72.1001 33.8284 72.0641 33.9884C71.9801 34.4764 71.7481 34.8824 71.3681 35.2064C70.9921 35.5304 70.4941 35.6924 69.8741 35.6924ZM77.2741 29.0264C77.5621 29.0264 77.8221 28.9584 78.0541 28.8224C78.2901 28.6824 78.4761 28.4944 78.6121 28.2584C78.7521 28.0224 78.8221 27.7624 78.8221 27.4784H78.0901C78.0901 27.7024 78.0101 27.8944 77.8501 28.0544C77.6941 28.2144 77.5021 28.2944 77.2741 28.2944C77.0501 28.2944 76.8581 28.2144 76.6981 28.0544C76.5381 27.8944 76.4581 27.7024 76.4581 27.4784H75.7261C75.7261 27.7624 75.7941 28.0224 75.9301 28.2584C76.0701 28.4944 76.2581 28.6824 76.4941 28.8224C76.7301 28.9584 76.9901 29.0264 77.2741 29.0264ZM79.7341 29.7944H78.9961L75.4381 34.7984V29.7944H74.5801V36.2744H75.3241L78.8761 31.2284V36.2744H79.7341V29.7944ZM84.1241 36.4544C84.7641 36.4544 85.3121 36.3104 85.7681 36.0224C86.2281 35.7344 86.5801 35.3344 86.8241 34.8224C87.0721 34.3064 87.1961 33.7084 87.1961 33.0284C87.1961 32.3604 87.0741 31.7704 86.8301 31.2584C86.5901 30.7424 86.2401 30.3404 85.7801 30.0524C85.3241 29.7604 84.7721 29.6144 84.1241 29.6144C83.4921 29.6144 82.9461 29.7584 82.4861 30.0464C82.0301 30.3304 81.6781 30.7284 81.4301 31.2404C81.1821 31.7524 81.0581 32.3484 81.0581 33.0284C81.0581 33.6964 81.1781 34.2884 81.4181 34.8044C81.6621 35.3204 82.0121 35.7244 82.4681 36.0164C82.9281 36.3084 83.4801 36.4544 84.1241 36.4544ZM84.1241 35.6084C83.4241 35.6084 82.8941 35.3744 82.5341 34.9064C82.1741 34.4344 81.9941 33.8084 81.9941 33.0284C81.9941 32.2724 82.1681 31.6564 82.5161 31.1804C82.8641 30.7004 83.4001 30.4604 84.1241 30.4604C84.8401 30.4604 85.3741 30.6944 85.7261 31.1624C86.0821 31.6264 86.2601 32.2484 86.2601 33.0284C86.2601 33.7924 86.0841 34.4144 85.7321 34.8944C85.3801 35.3704 84.8441 35.6084 84.1241 35.6084ZM88.5137 36.2744H89.3957V33.4544H93.0497V36.2744H93.9317V29.7944H93.0497V32.6084H89.3957V29.7944H88.5137V36.2744ZM98.3515 36.4544C98.9795 36.4544 99.5415 36.3004 100.038 35.9924C100.538 35.6844 100.916 35.2464 101.172 34.6784L100.35 34.3604C99.9375 35.1924 99.2595 35.6084 98.3155 35.6084C97.6675 35.6084 97.1595 35.4064 96.7915 35.0024C96.4275 34.5984 96.2275 34.0244 96.1915 33.2804H101.298C101.33 32.1364 101.08 31.2404 100.548 30.5924C100.02 29.9404 99.2755 29.6144 98.3155 29.6144C97.6915 29.6144 97.1495 29.7544 96.6895 30.0344C96.2335 30.3144 95.8795 30.7124 95.6275 31.2284C95.3755 31.7444 95.2495 32.3564 95.2495 33.0644C95.2495 33.7484 95.3755 34.3444 95.6275 34.8524C95.8835 35.3604 96.2435 35.7544 96.7075 36.0344C97.1755 36.3144 97.7235 36.4544 98.3515 36.4544ZM98.3395 30.4244C99.5595 30.4244 100.238 31.1304 100.374 32.5424H96.2095C96.2775 31.8584 96.4935 31.3344 96.8575 30.9704C97.2215 30.6064 97.7155 30.4244 98.3395 30.4244Z" fill="#0C2D36"/>
</svg>
