<svg width="80" height="80" viewBox="0 0 80 80" fill="none" xmlns="http://www.w3.org/2000/svg">
<path d="M59.1897 37.3088C57.435 36.707 56.8874 36.3509 56.8874 35.7C56.8874 34.9754 57.4972 34.5456 58.5799 34.5456C59.4634 34.5456 60.347 34.7912 61.0065 35.0491L61.2928 31.9053C60.4839 31.6842 59.5008 31.5123 58.4305 31.5123C54.8839 31.5123 52.6065 33.5018 52.6065 36.1298C52.5817 37.8 53.7141 39.3842 56.6759 40.379C58.3434 40.9316 58.779 41.2754 58.779 41.9877C58.779 42.7123 58.219 43.1667 56.875 43.1667C55.5683 43.1667 53.8759 42.5895 53.0421 42.0982L52.2581 45.2421C53.3408 45.8193 54.9959 46.2246 56.8874 46.2246C60.9941 46.2246 63.0848 44.2965 63.0848 41.6561C63.0599 39.5807 61.9274 38.2298 59.1897 37.3088ZM69.9541 42.6509C68.6101 42.6509 68.1994 41.8772 68.1994 40.1702V28L63.8439 28.9825V31.8193H62.1888L61.8901 35.0491H63.8563V40.8088C63.8563 42.7982 64.267 44.1491 65.0883 44.9965C65.7852 45.7211 66.9799 46.2123 68.411 46.2123C69.6679 46.2123 70.7132 46.0649 71.2981 45.8316L71.2732 42.5158C70.9497 42.5772 70.5141 42.6386 69.9541 42.6509ZM68.5479 35.0614H71.2732V31.8193H68.5479V35.0614ZM19.1559 39.1263C19.0688 36.9649 18.9941 34.3491 18.9941 31.7333H18.907C18.3221 34.0298 17.5257 36.5965 16.7914 38.6965L14.4768 45.7211H11.1292L9.10077 38.7456C8.47855 36.6333 7.83144 34.0667 7.38344 31.7211H7.33366C7.22166 34.1404 7.13455 36.9281 6.99766 39.1754L6.66166 46.0035H2.66699L3.8741 28.0123H9.59855L11.4528 34.0175C12.0377 36.093 12.635 38.3526 13.0581 40.4526H13.1452C13.6803 38.3772 14.3274 35.9825 14.9497 33.993L16.9781 28.0123H22.5905L23.6359 46.0035H19.4297L19.1559 39.1263ZM42.7132 40.2807C42.8625 42.0982 44.667 42.9579 46.7577 42.9579C48.2759 42.9579 49.4954 42.7614 50.715 42.3807L51.2999 45.3526C49.8439 45.9298 48.0643 46.2123 46.123 46.2123C41.2697 46.2123 38.4945 43.4491 38.4945 39.0281C38.4945 35.4544 40.747 31.5 45.7123 31.5C50.3417 31.5 52.0839 35.0368 52.0839 38.5368C52.0839 39.286 51.9968 39.9491 51.9345 40.2684L42.7132 40.2807ZM47.9523 37.2719C47.9523 36.2035 47.4794 34.4228 45.4385 34.4228C43.5719 34.4228 42.8128 36.093 42.7008 37.2719H47.9523Z" fill="#0862AF"/>
<path d="M74.3223 28.0248L77.3338 33.4406L74.3223 38.881H71.2734L74.285 33.4406L71.261 28.0248H74.3223C74.3223 28.0126 74.3223 28.0126 74.3223 28.0248ZM37.0512 51.3336H24.8058V48.3371H37.0512V51.3336ZM28.4023 40.2687C28.5516 42.0862 30.356 42.9459 32.4467 42.9459C33.9649 42.9459 35.1845 42.7494 36.404 42.3687L36.9889 45.3406C35.5329 45.9178 33.7534 46.2003 31.812 46.2003C26.9587 46.2003 24.1836 43.4371 24.1836 39.0161C24.1836 35.4424 26.436 31.488 31.4014 31.488C36.0307 31.488 37.7729 35.0248 37.7729 38.5248C37.7729 39.274 37.6858 39.9371 37.6236 40.2564H28.4023V40.2687ZM33.6414 37.2599C33.6414 36.1915 33.1685 34.4108 31.1276 34.4108C29.2609 34.4108 28.5018 36.081 28.3774 37.2599H33.6414Z" fill="#ED1C24"/>
</svg>
