<svg width="75" height="42" viewBox="0 0 75 42" fill="none" xmlns="http://www.w3.org/2000/svg">
<path d="M75 2.1001H0V39.9001H75V2.1001Z" fill="#014171"/>
<path d="M66.0956 23.8592C66.0787 23.9949 66.0285 24.352 65.5727 24.3984H61.57C61.1143 24.352 61.031 23.9949 61.014 23.8592V17.5519C61.0309 17.4159 61.094 17.1266 61.5498 17.0802H65.5745C66.0304 17.1266 66.0787 17.4159 66.0956 17.5519V23.8592ZM67.4815 14.7039H59.6281C58.448 14.801 57.4512 15.4119 57.3182 16.7785V24.5872C57.4512 25.9538 58.448 26.6778 59.6281 26.775H67.4815C68.6615 26.6778 69.6582 25.9538 69.7913 24.5872V16.7785C69.6582 15.4119 68.6615 14.801 67.4815 14.7039ZM35.6979 17.0802H32.1869V14.7039H42.9048V17.0802H39.3937V26.775H35.6979V17.0802ZM31.0783 17.0802V14.7039H21.4691V26.775L31.206 26.7724L31.2095 24.3986H25.1743L25.1749 21.8132H31.0782V19.4426H25.1749V17.0803H31.0782L31.0783 17.0802ZM52.5137 18.9513C52.5137 19.2125 52.4501 19.4417 51.9907 19.4417H47.7093V17.0723H51.9963C52.5177 17.0723 52.5137 17.4206 52.5137 17.6381V18.9513ZM53.5375 22.0824C54.6904 21.9882 55.8398 21.1872 55.8398 19.8717V16.8916C55.706 15.5314 54.7062 14.7968 53.5209 14.7H44.0134L44.0137 26.775H47.7092V22.0824H49.1801L51.5823 26.775H55.8325L52.9719 22.0824H53.5375H53.5375ZM13.8191 26.775L16.2952 19.1928V26.775H19.9909V14.7039H15.0018L12.5995 20.7396L10.1972 14.7039H5.20801V26.775H8.90377V19.1928L11.3982 26.775H13.8191Z" fill="#FBC51D"/>
</svg>
