<svg width="77" height="42" viewBox="0 0 77 42" fill="none" xmlns="http://www.w3.org/2000/svg">
<path d="M13.7539 28.5148C13.7432 28.2705 13.7324 28.0156 13.7217 27.7714C14.603 27.6333 15.4843 27.4846 16.3763 27.3465C17.2576 29.1096 18.1389 30.8621 19.031 32.6252C19.031 31.1701 19.031 29.7256 19.031 28.2705C18.8805 28.1006 18.7193 27.9413 18.5688 27.7714C18.5581 27.4952 18.5473 27.2297 18.5366 26.9535C19.3534 26.8155 20.1595 26.6668 20.9763 26.5287C20.9656 26.8155 20.9548 27.0916 20.9441 27.3784C20.8043 27.5802 20.6539 27.782 20.5142 27.9838C20.5034 31.0427 20.4927 34.1016 20.4819 37.1498C20.6539 37.2985 20.8151 37.4578 20.987 37.6065C20.987 37.8614 20.987 38.127 20.987 38.3819C20.1702 38.5306 19.3642 38.6899 18.5473 38.8386C18.5366 38.5943 18.5258 38.3394 18.5151 38.0951C18.6871 37.8614 18.8483 37.6278 19.0202 37.3835C19.0417 36.8206 19.0632 36.247 19.0955 35.6841C17.9992 33.6342 16.903 31.5737 15.796 29.5238C15.796 32.3278 15.796 35.1424 15.796 37.9464C15.9357 38.0951 16.0861 38.2544 16.2259 38.4031C16.2366 38.658 16.2474 38.9236 16.2581 39.1785C15.4628 39.3484 14.6567 39.5077 13.8614 39.6777C13.8507 39.4228 13.8399 39.1572 13.8292 38.9023C14.0119 38.6686 14.1838 38.435 14.3665 38.1907C14.3558 35.1424 14.345 32.1048 14.3343 29.0565C14.1086 28.8972 13.9366 28.706 13.7539 28.5148ZM22.3197 28.7591C22.309 28.5467 22.2983 28.3343 22.2875 28.1219C23.7062 27.8776 25.1249 27.6227 26.5543 27.3784C26.565 27.8988 26.5758 28.4192 26.5865 28.9397C26.3608 28.9715 26.1351 29.014 25.9094 29.0459C25.759 28.9291 25.5978 28.8122 25.4473 28.6954C24.8992 28.8016 24.351 28.9078 23.8029 29.014C23.8029 29.8212 23.8029 30.6178 23.8029 31.425C24.0179 31.4357 24.351 31.425 24.738 31.3188C25.1034 31.2126 25.3828 31.0533 25.5655 30.9258C25.5763 31.4463 25.587 31.9667 25.5978 32.4871C25.0281 32.5084 24.4478 32.5296 23.8781 32.5615C23.8459 33.5811 23.8029 34.5901 23.7707 35.6098C24.3188 35.546 24.8669 35.4929 25.4151 35.4292C25.5655 35.2486 25.7267 35.0787 25.8772 34.8981C26.1136 34.8663 26.3501 34.8238 26.5973 34.7919C26.5865 35.3017 26.5758 35.8116 26.565 36.3108C25.1464 36.555 23.7277 36.8099 22.2983 37.0542C22.2983 36.8312 22.2983 36.6081 22.2983 36.3851C22.438 36.2364 22.5884 36.0771 22.7282 35.9284C22.7174 33.6873 22.7067 31.4463 22.6959 29.2052C22.5562 29.0459 22.438 28.9078 22.3197 28.7591ZM28.2309 28.09C28.1234 27.9838 28.016 27.8776 27.9085 27.7714C27.9085 27.5908 27.9085 27.4209 27.9085 27.2403C28.5963 27.1128 29.2949 26.9854 29.9828 26.8473C30.5309 28.6423 31.079 30.4373 31.6272 32.2322C32.143 30.2567 32.6589 28.2918 33.1641 26.3163C33.8734 26.1782 34.572 26.0295 35.2813 25.8914C35.2813 26.1251 35.2813 26.3587 35.2813 26.603C35.1739 26.7199 35.0664 26.8367 34.9589 26.9535C34.9482 29.2158 34.9374 31.4888 34.9267 33.7511C35.0449 33.8679 35.1631 33.9847 35.2813 34.1016C35.2921 34.3246 35.2921 34.5583 35.3028 34.7813C34.6902 34.8875 34.0776 34.9831 33.4542 35.0893C33.4327 34.8769 33.4113 34.6645 33.379 34.4521C33.508 34.3034 33.637 34.144 33.7767 33.9953C33.7767 32.1898 33.7767 30.3842 33.7767 28.5786C33.2393 30.5222 32.7019 32.4765 32.1645 34.4202C32.2505 34.707 32.3365 34.9937 32.4117 35.2805C31.8636 35.3761 31.3262 35.4611 30.7781 35.5567C30.8641 35.2805 30.9608 35.015 31.0468 34.7388C30.5094 32.9014 29.972 31.0533 29.4346 29.2158C29.4132 31.032 29.3917 32.8483 29.3594 34.6645C29.4776 34.7919 29.5959 34.9194 29.7141 35.0575C29.7141 35.2805 29.7141 35.5035 29.7141 35.7266C29.0907 35.8222 28.4674 35.9178 27.8548 36.0134C27.8548 35.8009 27.8548 35.5885 27.8548 35.3761C27.9837 35.238 28.1127 35.0893 28.2524 34.9512C28.2524 32.6677 28.2417 30.3842 28.2309 28.09ZM36.5603 26.2313C36.571 26.0295 36.5818 25.8277 36.5818 25.6153C37.2052 25.5197 37.8393 25.4241 38.4626 25.3179C38.4734 25.5515 38.4841 25.7746 38.4841 26.0082C38.3551 26.1676 38.2369 26.3269 38.1079 26.4862C38.1187 28.7379 38.1294 30.9789 38.1294 33.2306C38.2369 33.3475 38.3444 33.4643 38.4519 33.5705C38.4519 33.7723 38.4519 33.9741 38.4519 34.1865C37.8178 34.2715 37.1837 34.3671 36.5388 34.4521C36.5388 34.2396 36.5388 34.0272 36.5388 33.8148C36.6785 33.6661 36.829 33.5174 36.9687 33.3687C36.958 31.117 36.9472 28.876 36.9472 26.6243C36.8397 26.4968 36.7 26.3694 36.5603 26.2313Z" fill="#0C0C10"/>
<path d="M43.2243 33.3794C43.8799 33.2838 44.5355 33.1776 45.1804 33.082C45.1374 32.8484 45.0944 32.6253 45.0514 32.3916C44.6645 31.4039 44.2346 30.3843 43.7402 29.3434C43.7187 29.3115 43.708 29.269 43.6865 29.2372C43.708 29.2372 43.7187 29.2372 43.7402 29.2372C43.7832 29.2372 43.9014 29.2372 44.0412 29.2159C44.1379 29.1947 44.2991 29.1628 44.4711 29.0247C44.643 28.8973 44.729 28.738 44.772 28.653C44.772 27.421 44.772 26.1889 44.772 24.9568C44.772 24.9037 44.772 24.7975 44.7183 24.6913C44.643 24.532 44.4926 24.4577 44.4173 24.4258C44.4173 24.4258 44.2561 24.3514 44.0734 24.3408C43.7725 24.3408 42.1281 24.617 39.8818 25.0631C39.8711 25.2861 39.8604 25.5091 39.8604 25.7216C39.9786 25.8384 40.0968 25.9552 40.2043 26.0614C40.215 26.0614 40.2258 26.0614 40.2258 26.0614C40.2258 28.3025 40.2258 30.5436 40.2258 32.7846C40.1183 32.9439 40.0108 33.1033 39.9033 33.2626C39.8926 33.4856 39.8818 33.7087 39.8818 33.9211C40.5267 33.8149 41.1823 33.7087 41.8272 33.6025C41.8164 33.4007 41.7949 33.2095 41.7842 33.0077C41.6337 32.9015 41.4832 32.7952 41.3328 32.6997C41.3328 31.7013 41.3328 30.7029 41.3328 29.7045C41.7842 29.6301 42.2248 29.5664 42.6762 29.4921C42.9986 30.4586 43.3211 31.4251 43.6435 32.381C43.5145 32.4979 43.3748 32.6147 43.2351 32.7209C43.2243 32.9546 43.2243 33.167 43.2243 33.3794ZM41.3543 28.5362C41.3543 28.5468 41.3543 28.5574 41.3543 28.568C41.408 28.568 41.451 28.5999 41.4832 28.6424C41.5155 28.6849 41.5477 28.738 41.58 28.7805C41.6015 28.8123 41.6122 28.8442 41.6015 28.876C41.7197 28.9079 41.7949 29.046 41.6874 29.1416C41.6767 29.1522 41.6659 29.1628 41.6552 29.1734C41.6552 29.2159 41.6444 29.2478 41.6015 29.2797C41.5047 29.3646 41.3973 29.4708 41.2683 29.5027C41.1501 29.5346 41.0211 29.4602 41.0103 29.3328C41.0103 29.269 41.0318 29.2159 41.0748 29.1628C40.9566 28.9823 41.0856 28.7592 41.2253 28.6318C41.2575 28.5999 41.3005 28.5893 41.3435 28.5893C41.3328 27.7077 41.3328 26.8368 41.322 25.9552C41.3328 25.9552 41.3328 25.9552 41.3435 25.9552C42.1173 25.8172 42.8804 25.6685 43.6542 25.5304C43.6435 26.4013 43.6328 27.2616 43.6328 28.1326C42.8697 28.26 42.1066 28.3981 41.3543 28.5362Z" fill="#0C0C10"/>
<path d="M41.2247 28.6105C41.085 28.7485 40.9453 28.961 41.0743 29.1415C41.0313 29.1946 41.0098 29.2584 41.0098 29.3115C41.0205 29.4389 41.1495 29.5133 41.2677 29.4814C41.3967 29.4495 41.5042 29.3433 41.6009 29.2584C41.6439 29.2265 41.6546 29.184 41.6546 29.1521C41.6654 29.1415 41.6761 29.1309 41.6869 29.1203C41.7943 29.0247 41.7191 28.8866 41.6009 28.8547C41.6009 28.8229 41.5901 28.791 41.5794 28.7592C41.5471 28.7167 41.5149 28.6636 41.4827 28.6211C41.4504 28.5786 41.4074 28.5467 41.3537 28.5467C41.3 28.568 41.257 28.5786 41.2247 28.6105ZM51.1017 24.2877C51.1017 24.1708 51.1017 24.054 51.1017 23.9478C51.1125 23.9053 51.1125 23.8203 51.0802 23.7354C51.048 23.6504 51.005 23.6079 50.9513 23.5442C50.8868 23.4698 50.8223 23.3955 50.7148 23.353C50.6181 23.3105 50.5429 23.2999 50.4139 23.2999C50.2312 23.2893 50.0915 23.3105 50.07 23.3211C49.8335 23.3636 48.6728 23.5654 47.0821 23.8734C46.9854 23.9159 46.835 24.0009 46.6845 24.1602C46.534 24.3195 46.4695 24.4895 46.4373 24.5851C46.4373 25.8702 46.4373 27.1554 46.4373 28.4405C46.4373 28.6105 46.4373 28.791 46.4373 28.961V31.6375C46.4373 31.7862 46.4373 31.9349 46.4373 32.0836C46.4265 32.1261 46.4265 32.211 46.4588 32.296C46.491 32.381 46.534 32.4234 46.5878 32.4872C46.6522 32.5615 46.7167 32.6359 46.8242 32.6784C46.9209 32.7208 46.9962 32.7315 47.1251 32.7315C47.3078 32.7421 47.4476 32.7208 47.4691 32.7102C47.7055 32.6677 48.8662 32.4659 50.4569 32.1579C50.5536 32.1154 50.7041 32.0305 50.8545 31.8712C51.005 31.7118 51.0695 31.5419 51.1017 31.4463C51.1017 30.3417 51.1017 29.2265 51.1017 28.1219C51.1017 27.7714 51.1017 27.4209 51.1017 27.0704V24.2877ZM49.9625 31.1064C49.1779 31.2551 48.3826 31.3932 47.598 31.5419V28.9185C47.598 28.7273 47.598 28.5467 47.598 28.3556C47.598 27.2085 47.598 26.0508 47.598 24.9037C48.3826 24.755 49.1779 24.6169 49.9625 24.4682V27.0916C49.9625 27.3997 49.9625 27.7077 49.9625 28.0051C49.9625 29.0459 49.9625 30.0762 49.9625 31.1064ZM52.8214 23.8416C52.7569 23.7991 52.6924 23.7672 52.6386 23.7247C52.5742 23.6504 52.5097 23.5654 52.4452 23.4911C52.4452 23.2999 52.4452 23.0981 52.4452 22.9069C53.8961 22.652 55.3578 22.3971 56.8087 22.1422C56.7872 22.652 56.7765 23.1618 56.755 23.6716C56.5185 23.7141 56.2821 23.7566 56.0456 23.7885C55.9059 23.6823 55.7554 23.576 55.6157 23.4698C55.0676 23.5548 54.5195 23.6504 53.9821 23.7354C53.9713 24.5001 53.9606 25.2754 53.9606 26.0508C54.197 26.0933 54.6807 26.1357 55.2073 25.9127C55.4438 25.8171 55.6265 25.679 55.7662 25.5728C55.7662 26.0826 55.7662 26.5818 55.7662 27.081C55.1966 27.1023 54.6162 27.1341 54.0466 27.166C54.0251 28.26 54.0143 29.3646 53.9928 30.4585C54.1003 30.5648 54.2078 30.671 54.3153 30.7772C54.3153 31.0002 54.3045 31.2339 54.3045 31.4569C53.7134 31.5525 53.133 31.6481 52.5419 31.7437C52.5204 31.5419 52.5097 31.3295 52.4882 31.1277C52.6172 30.9471 52.7354 30.7772 52.8643 30.5966C52.8429 28.3343 52.8321 26.0933 52.8214 23.8416ZM58.3026 22.8007C58.2381 22.7582 58.1737 22.7264 58.1199 22.6839C58.0554 22.6095 57.9909 22.5246 57.9265 22.4502C57.9265 22.259 57.9265 22.0572 57.9265 21.866C59.3774 21.6111 60.8391 21.3562 62.29 21.1013C62.2685 21.6111 62.2577 22.1209 62.2362 22.6308C61.9998 22.6732 61.7633 22.7157 61.5269 22.7476C61.3872 22.6414 61.2367 22.5352 61.097 22.429C60.5489 22.5139 60.0007 22.6095 59.4634 22.6945C59.4526 23.4592 59.4419 24.2346 59.4419 25.0099C59.6783 25.0524 60.162 25.0949 60.6886 24.8718C60.925 24.7762 61.1077 24.6382 61.2475 24.5319C61.2475 25.0418 61.2475 25.541 61.2475 26.0401C60.6778 26.0614 60.0975 26.0933 59.5278 26.1251C59.5064 27.2191 59.4956 28.3237 59.4741 29.4177C59.5816 29.5239 59.6891 29.6301 59.7965 29.7363C59.7965 29.9593 59.7858 30.193 59.7858 30.4161C59.1947 30.5116 58.6143 30.6072 58.0232 30.7028C58.0017 30.501 57.9909 30.2886 57.9694 30.0868C58.0984 29.9062 58.2166 29.7363 58.3456 29.5557C58.3241 27.2934 58.3134 25.0418 58.3026 22.8007Z" fill="#0C0C10"/>
<path d="M17.5584 22.9386C17.6873 22.843 17.7626 22.7155 17.7626 22.5668C17.7626 22.2694 17.4294 22.0251 16.9995 22.0251C16.5696 22.0251 16.2364 22.2588 16.2364 22.5668C16.2364 22.7155 16.3117 22.843 16.4406 22.9386C16.2042 23.0554 16.0537 23.2466 16.0537 23.4696C16.0537 23.8414 16.4729 24.1281 16.9995 24.1281C17.5261 24.1281 17.9453 23.8414 17.9453 23.4696C17.9453 23.2572 17.7948 23.066 17.5584 22.9386ZM16.9995 22.3544C17.2467 22.3544 17.4401 22.4712 17.4401 22.5774C17.4401 22.6837 17.2467 22.8005 16.9995 22.8005C16.7523 22.8005 16.5588 22.6837 16.5588 22.5774C16.5588 22.4712 16.7631 22.3544 16.9995 22.3544ZM16.9995 23.8095C16.6341 23.8095 16.3761 23.6289 16.3761 23.4696C16.3761 23.3103 16.6341 23.1297 16.9995 23.1297C17.3649 23.1297 17.6229 23.3103 17.6229 23.4696C17.6229 23.6289 17.3757 23.8095 16.9995 23.8095Z" fill="#0C0C10"/>
<path d="M13.9905 22.1206H13.7217H13.2812V22.4393H13.7217V24.0327H14.0441V22.1206H13.9905Z" fill="#0C0C10"/>
<path d="M24.7059 22.4075C24.4157 21.9296 23.3947 21.9508 23.2228 22.5137C23.2228 22.5244 23.212 22.535 23.212 22.5456V22.7049H23.5237V22.5987C23.5237 22.5987 23.5237 22.5987 23.5237 22.5881C23.5989 22.3226 24.2008 22.3332 24.3513 22.5031C24.6522 22.8324 24.0826 22.9811 23.8569 23.0767C23.5667 23.1935 23.1368 23.3741 23.0293 23.7033H23.0186V23.7352V23.7458C23.0186 23.7777 23.0186 23.7989 23.0186 23.8201V24.0113H24.7059V23.6927H23.3947C23.7386 23.2572 25.2003 23.236 24.7059 22.4075Z" fill="#0C0C10"/>
<path d="M20.0303 22.1206V22.4393H21.1586L20.0303 24.0327H20.1376H20.3203H20.4276L21.5566 22.4393V22.1206H20.0303Z" fill="#0C0C10"/>
<path d="M44.7392 38.4986L45.9967 36.3638C46.0612 36.2363 46.1579 36.1726 46.2761 36.1726H46.4373V36.0664H45.1584V36.1726C45.4808 36.1726 45.642 36.2363 45.642 36.3532C45.642 36.3957 45.642 36.4381 45.6313 36.4806L44.793 38.0526L43.9009 36.4169C43.8902 36.385 43.8794 36.3532 43.8794 36.3213C43.8687 36.2895 43.8687 36.2682 43.8687 36.247C43.8687 36.2045 43.9332 36.1726 44.0514 36.1726H44.2986V36.0664H42.8691V36.1726C43.0733 36.1726 43.2238 36.247 43.3313 36.4063L44.5458 38.5093H44.7392V38.4986Z" fill="#0C0C10"/>
<path d="M45.04 37.819L44.2661 36.4064C44.2554 36.3745 44.2446 36.3427 44.2446 36.3108C44.2339 36.279 44.2339 36.2577 44.2339 36.2365C44.2339 36.194 44.2984 36.1621 44.4166 36.1621H44.6638V36.0559H43.2344V36.1621C43.4386 36.1621 43.589 36.2365 43.6965 36.3958L44.7498 38.2226C44.8358 38.0845 44.9325 37.9465 45.04 37.819ZM48.6082 38.52C48.3717 38.52 48.146 38.4881 47.9526 38.4244C47.7484 38.3607 47.5764 38.2757 47.4259 38.1589C47.2755 38.0421 47.168 37.9146 47.082 37.7659C46.996 37.6172 46.9638 37.4473 46.9638 37.2773C46.9638 37.118 47.0068 36.9587 47.082 36.81C47.1572 36.6613 47.2755 36.5232 47.4152 36.4064C47.5549 36.2896 47.7376 36.194 47.9418 36.1196C48.146 36.0453 48.3717 36.0134 48.6189 36.0134C48.8661 36.0134 49.0918 36.0453 49.296 36.109C49.5002 36.1727 49.6829 36.2577 49.8334 36.3639C49.9839 36.4701 50.1021 36.6082 50.1881 36.7569C50.274 36.9056 50.317 37.0755 50.317 37.2455C50.317 37.4048 50.274 37.5535 50.1988 37.7022C50.1236 37.8509 50.0053 37.989 49.8549 38.1164C49.7044 38.2439 49.5325 38.3288 49.3175 38.4032C49.0918 38.4882 48.8554 38.52 48.6082 38.52ZM48.6404 38.3819C48.8339 38.3819 48.9951 38.3501 49.1241 38.297C49.2638 38.2439 49.3712 38.1589 49.4572 38.0633C49.5432 37.9677 49.6077 37.8509 49.6507 37.7128C49.6937 37.5747 49.7152 37.4367 49.7152 37.2773C49.7152 37.1286 49.6937 36.9906 49.6507 36.8525C49.6077 36.7144 49.5432 36.5976 49.4465 36.4914C49.3605 36.3852 49.2423 36.3002 49.0918 36.2365C48.9413 36.1727 48.7694 36.1409 48.5544 36.1409C48.361 36.1409 48.1998 36.1727 48.0708 36.2365C47.9418 36.3002 47.8343 36.3745 47.7484 36.4808C47.6624 36.587 47.6086 36.7038 47.5764 36.8313C47.5442 36.9693 47.5227 37.1074 47.5227 37.2455C47.5227 37.4048 47.5442 37.5535 47.5871 37.6916C47.6301 37.8296 47.6946 37.9465 47.7913 38.0527C47.8773 38.1589 47.9956 38.2332 48.1353 38.297C48.2857 38.3501 48.4577 38.3819 48.6404 38.3819Z" fill="#0C0C10"/>
<path d="M48.5661 38.4562C48.3834 38.4562 48.2114 38.4243 48.0609 38.3712C47.8997 38.3075 47.7707 38.2331 47.6525 38.1269C47.5343 38.0207 47.4483 37.9039 47.3838 37.7658C47.3194 37.6277 47.2871 37.479 47.2871 37.3197C47.2871 37.171 47.3194 37.0329 47.3731 36.8842C47.4376 36.7462 47.5236 36.6187 47.631 36.5125C47.7385 36.4063 47.8782 36.3213 48.0394 36.247C48.2007 36.1726 48.3726 36.1514 48.5661 36.1514C48.7595 36.1514 48.9315 36.1832 49.0927 36.2363C49.2539 36.2895 49.3936 36.3744 49.5011 36.47C49.6193 36.5762 49.7053 36.6931 49.7698 36.8311C49.8343 36.9692 49.8665 37.1179 49.8665 37.2878C49.8665 37.4259 49.8343 37.5746 49.7698 37.7127C49.7053 37.8508 49.6193 37.9782 49.5119 38.095C49.4044 38.2119 49.2647 38.2968 49.1035 38.3606C48.9422 38.4243 48.7703 38.4562 48.5661 38.4562ZM48.5983 38.3181C48.7488 38.3181 48.867 38.2968 48.9745 38.2437C49.082 38.1906 49.1679 38.1163 49.2324 38.0313C49.2969 37.9357 49.3506 37.8295 49.3829 37.7127C49.4151 37.5852 49.4366 37.4578 49.4366 37.3091C49.4366 37.171 49.4151 37.0436 49.3829 36.9161C49.3506 36.7886 49.2969 36.6824 49.2324 36.5868C49.1679 36.4913 49.0712 36.4169 48.953 36.3532C48.8348 36.2895 48.7058 36.2682 48.5446 36.2682C48.3941 36.2682 48.2759 36.3001 48.1684 36.3532C48.0609 36.4063 47.9857 36.4806 47.9212 36.5762C47.8567 36.6718 47.8137 36.778 47.7815 36.9055C47.7493 37.0329 47.7385 37.1604 47.7385 37.2878C47.7385 37.4365 47.76 37.5746 47.7922 37.7021C47.8245 37.8295 47.8782 37.9357 47.9535 38.0313C48.0287 38.1269 48.1147 38.2013 48.2221 38.2544C48.3296 38.2968 48.4586 38.3181 48.5983 38.3181ZM50.952 38.4668V38.3606C51.0595 38.3606 51.1347 38.3606 51.1992 38.3499C51.2637 38.3393 51.3175 38.3287 51.3497 38.3075C51.3819 38.2862 51.4142 38.2544 51.4249 38.2013C51.4357 38.1588 51.4464 38.095 51.4464 38.0207V36.5125C51.4464 36.4275 51.4357 36.3638 51.4249 36.3213C51.4034 36.2788 51.3819 36.247 51.3389 36.2257C51.296 36.2045 51.2422 36.1939 51.1777 36.1939C51.1133 36.1939 51.038 36.1832 50.9413 36.162V36.0558C51.0058 36.0664 51.081 36.0664 51.1562 36.0664C51.2315 36.0664 51.3067 36.0664 51.3927 36.0664C51.5002 36.0664 51.5969 36.0664 51.6829 36.0664C51.7689 36.0664 51.8656 36.0558 51.9516 36.0558C52.0375 36.0558 52.1343 36.0452 52.231 36.0452C52.3277 36.0452 52.4352 36.0452 52.5427 36.0452C52.8329 36.0452 53.1015 36.077 53.3272 36.1301C53.5529 36.1832 53.7464 36.2682 53.9076 36.3744C54.0688 36.4806 54.1871 36.6081 54.2623 36.7568C54.3375 36.9055 54.3805 37.0754 54.3805 37.2666C54.3805 37.4472 54.3375 37.6171 54.2623 37.7658C54.1871 37.9145 54.0581 38.0419 53.8861 38.1481C53.7142 38.2544 53.4992 38.3287 53.2305 38.3924C52.9618 38.4455 52.6394 38.4774 52.2632 38.4774L50.952 38.4668ZM52.5749 38.3287C52.9833 38.3287 53.2843 38.2437 53.4885 38.0738C53.6927 37.9039 53.7894 37.6383 53.7894 37.2666C53.7894 36.9055 53.6819 36.6293 53.4562 36.4594C53.2305 36.2895 52.9081 36.2045 52.4889 36.2045H52.2847C52.2202 36.2045 52.1665 36.2045 52.1235 36.2151C52.0805 36.2151 52.0483 36.2257 52.0268 36.247C52.0053 36.2576 51.9838 36.2895 51.9731 36.3107C51.9623 36.3426 51.9623 36.385 51.9623 36.4275V38.0526C51.9623 38.1163 51.9731 38.1694 51.9838 38.2119C51.9946 38.2544 52.0268 38.2756 52.059 38.2968C52.0913 38.3181 52.145 38.3287 52.1988 38.3287C52.2525 38.3287 52.3277 38.3393 52.4137 38.3393L52.5749 38.3287Z" fill="#0C0C10"/>
<path d="M51.6926 38.2013C51.6819 38.2437 51.6604 38.2756 51.6174 38.3075C51.5852 38.3287 51.5314 38.35 51.4669 38.35C51.4024 38.3606 51.3165 38.3606 51.2197 38.3606V38.4668H52.5309C52.5524 38.4137 52.5739 38.3712 52.5954 38.3287C52.5524 38.3287 52.4987 38.3287 52.4665 38.3287C52.4127 38.3287 52.359 38.3181 52.3267 38.2968C52.2945 38.2756 52.2622 38.2544 52.2515 38.2119C52.2408 38.1694 52.23 38.1269 52.23 38.0526V36.4275C52.23 36.3744 52.23 36.3319 52.2408 36.3107C52.2515 36.2788 52.273 36.2576 52.2945 36.247C52.316 36.2363 52.3482 36.2257 52.3912 36.2151C52.4342 36.2151 52.4879 36.2045 52.5524 36.2045H52.7566C52.7996 36.2045 52.8534 36.2045 52.8964 36.2045C52.8856 36.1514 52.8749 36.0983 52.8641 36.0452C52.8426 36.0452 52.8319 36.0452 52.8104 36.0452C52.7029 36.0452 52.5954 36.0452 52.4987 36.0452C52.402 36.0452 52.316 36.0558 52.2193 36.0558C52.1333 36.0558 52.0365 36.0664 51.9506 36.0664C51.8646 36.0664 51.7571 36.0664 51.6604 36.0664C51.5851 36.0664 51.4992 36.0664 51.4239 36.0664C51.3487 36.0664 51.2735 36.0558 51.209 36.0558V36.1726C51.3057 36.1832 51.3809 36.1939 51.4454 36.2045C51.5099 36.2151 51.5637 36.2257 51.6066 36.2363C51.6496 36.2576 51.6819 36.2895 51.6926 36.3319C51.7141 36.3744 51.7141 36.4381 51.7141 36.5231V38.0313C51.7141 38.095 51.7034 38.1588 51.6926 38.2013ZM57.5608 38.4668V38.3606C57.765 38.3606 57.8725 38.3393 57.8725 38.3075C57.8725 38.2756 57.8295 38.2119 57.7328 38.1269L56.7547 37.2878L56.5075 37.4365C56.4646 37.4578 56.4323 37.4896 56.4001 37.5215C56.3678 37.5534 56.3463 37.5958 56.3356 37.6383V38.1269C56.3356 38.2968 56.5183 38.3818 56.8837 38.3818V38.488H55.3038V38.3818C55.637 38.3818 55.809 38.2968 55.809 38.1269V36.4488C55.809 36.2682 55.6262 36.1832 55.2716 36.1832V36.077H56.8192V36.1832C56.4968 36.1832 56.3356 36.2682 56.3356 36.4488V37.3303L57.6038 36.5231C57.6898 36.47 57.7435 36.4275 57.765 36.3957C57.7973 36.3638 57.808 36.3213 57.808 36.2682C57.808 36.2045 57.679 36.1726 57.4318 36.1726V36.0664H58.8398V36.1726C58.7323 36.1832 58.6463 36.1939 58.5711 36.2045C58.4959 36.2151 58.4314 36.2363 58.3669 36.2576C58.3024 36.2788 58.2379 36.3213 58.1734 36.3638C58.1089 36.4063 58.0122 36.4594 57.9047 36.5337L57.1417 37.0329L58.3884 38.1163C58.4421 38.1481 58.4851 38.1906 58.5281 38.2225C58.5711 38.2544 58.6141 38.2756 58.6678 38.3075C58.7216 38.3287 58.7753 38.35 58.829 38.3606C58.8935 38.3712 58.958 38.3818 59.0547 38.3818V38.488H57.5608V38.4668Z" fill="#0C0C10"/>
<path d="M57.798 38.3607V38.4669H59.0985V38.3395C59.0877 38.3395 59.077 38.3395 59.077 38.3395C59.0125 38.3288 58.9588 38.3076 58.9158 38.2864C58.862 38.2651 58.819 38.2332 58.776 38.2014C58.7331 38.1695 58.6901 38.1377 58.6363 38.0952L57.3896 37.0118L58.1527 36.5126C58.2602 36.4383 58.3461 36.3852 58.4214 36.3427C58.4966 36.3002 58.5503 36.2683 58.6148 36.2365C58.6793 36.2152 58.7438 36.194 58.819 36.1834C58.8943 36.1727 58.9803 36.1621 59.0877 36.1515V36.0453H57.6798V36.1515C57.927 36.1515 58.056 36.1834 58.056 36.2471C58.056 36.3002 58.0452 36.3427 58.013 36.3745C57.9807 36.4064 57.927 36.4489 57.8518 36.502L56.5835 37.3092V36.4277C56.5835 36.2471 56.7448 36.1621 57.0672 36.1621V36.0559H55.5195V36.1621C55.8742 36.1621 56.0569 36.2471 56.0569 36.4277V38.1058C56.0569 38.2757 55.8849 38.3607 55.5518 38.3607V38.4669H57.1317V38.3607C56.7662 38.3607 56.5835 38.2757 56.5835 38.1058V37.6172C56.5943 37.5747 56.6158 37.5323 56.648 37.5004C56.6803 37.4685 56.7125 37.4367 56.7555 37.4154L57.0027 37.2667L57.9807 38.1058C58.0775 38.1908 58.1204 38.2545 58.1204 38.2864C58.1097 38.3395 58.0022 38.3607 57.798 38.3607ZM61.4952 38.4669V38.3607C61.5489 38.3607 61.6027 38.3501 61.6564 38.3501C61.7101 38.3501 61.7639 38.3395 61.8069 38.3288C61.8499 38.3182 61.8928 38.3076 61.9251 38.297C61.9573 38.2864 61.9681 38.2757 61.9681 38.2545C61.9681 38.2439 61.9573 38.2332 61.9573 38.212C61.9573 38.1908 61.9466 38.1695 61.9251 38.1483L61.6779 37.7022C61.6349 37.6385 61.5274 37.6066 61.3447 37.6066H60.5387C60.3989 37.6066 60.313 37.6385 60.2915 37.7022L60.1087 38.0739C60.098 38.0952 60.0873 38.127 60.0873 38.1695C60.0873 38.2757 60.2485 38.3395 60.5601 38.3395V38.4669H59.3457V38.3395C59.4531 38.3395 59.5391 38.3076 59.6144 38.2651C59.6896 38.2226 59.7541 38.1589 59.7971 38.0739L61.0975 35.9922L61.2587 36.0347L62.5377 38.1908C62.5914 38.2439 62.6237 38.2757 62.6559 38.2864C62.6667 38.2864 62.6882 38.297 62.7419 38.3076C62.7956 38.3182 62.8709 38.3288 62.9569 38.3501V38.4563H61.4952V38.4669ZM61.0223 36.5126L60.5494 37.2773C60.5064 37.3304 60.4849 37.3729 60.4849 37.4048C60.4849 37.4367 60.5494 37.4579 60.6891 37.4579H61.377C61.4844 37.4579 61.5382 37.4473 61.5382 37.4154C61.5382 37.4048 61.5167 37.3623 61.4737 37.2986L61.0223 36.5126Z" fill="#0C0C10"/>
<path d="M61.5379 37.8508L61.6669 38.0951C61.7958 37.9995 61.9463 37.9039 62.0968 37.8295L61.6669 37.1179C61.5271 37.1923 61.3874 37.2454 61.237 37.2879L61.3229 37.4366C61.3659 37.5003 61.3874 37.5428 61.3874 37.5534C61.3874 37.5853 61.3337 37.5959 61.2262 37.5959H60.5384C60.4094 37.5959 60.3342 37.5746 60.3342 37.5428C60.3342 37.5215 60.3556 37.479 60.3986 37.4153L60.4201 37.3834C60.3879 37.3834 60.3556 37.3834 60.3234 37.3728C60.2374 37.5215 60.1299 37.6702 60.0117 37.7977C60.0117 37.872 60.0117 37.957 60.001 38.0313C60.0117 38.042 60.0332 38.0526 60.044 38.0526L60.1514 37.8295C60.1837 37.7658 60.2589 37.7339 60.3986 37.7339H61.2047C61.3874 37.7552 61.4949 37.7871 61.5379 37.8508Z" fill="#0C0C10"/>
<path d="M62.3651 38.3182C62.3113 38.3076 62.2791 38.3076 62.2791 38.2969C62.2469 38.2863 62.2146 38.2545 62.1609 38.2014L61.0431 36.332C60.9679 36.4807 60.8712 36.6188 60.7637 36.7463L61.0861 37.2986C61.1291 37.3623 61.1506 37.4048 61.1506 37.4154C61.1506 37.4473 61.0969 37.4579 60.9894 37.4579H60.7207C60.7315 37.511 60.7422 37.5641 60.7529 37.6066H60.9679C61.1506 37.6066 61.2581 37.6384 61.3011 37.7022L61.5483 38.1482C61.5698 38.1801 61.5805 38.2014 61.5805 38.212C61.5805 38.2332 61.5805 38.2438 61.5913 38.2545C61.5913 38.2651 61.5805 38.2863 61.5483 38.2969C61.516 38.3076 61.4838 38.3182 61.43 38.3288C61.3871 38.3394 61.3333 38.3394 61.2796 38.35C61.2258 38.35 61.1721 38.3607 61.1184 38.3607V38.4669H62.6015V38.3607C62.4941 38.3394 62.4188 38.3288 62.3651 38.3182Z" fill="#0C0C10"/>
<path d="M57.8779 36.7568H57.3467V37.4047H57.8779V36.7568Z" fill="#0C0C10"/>
<path d="M27.8231 16.428C27.3072 15.2491 27.017 13.9427 27.017 12.5725C27.017 11.1812 27.3179 9.85353 27.8553 8.64272C27.6189 8.50464 27.3932 8.35595 27.1675 8.21787C26.5549 9.54552 26.2217 11.0112 26.2217 12.5619C26.2217 14.6012 26.8128 16.513 27.8338 18.1168V16.428H27.8231ZM43.751 19.2214C41.9776 21.0801 39.4842 22.2378 36.7221 22.2378C33.874 22.2378 31.3053 21.0057 29.5319 19.0514C29.2955 19.1895 29.059 19.3276 28.8333 19.4763C30.7572 21.6536 33.5838 23.0344 36.7113 23.0344C39.9678 23.0344 42.8804 21.5474 44.815 19.2214H43.751ZM36.7113 2.89668C40.7417 2.89668 44.2024 5.36079 45.6748 8.85514H46.5346C45.03 4.9147 41.1931 2.1001 36.7113 2.1001C33.9062 2.1001 31.359 3.19407 29.4782 4.98905C29.5534 5.29706 29.6287 5.59445 29.7146 5.89184C31.4772 4.04377 33.9707 2.89668 36.7113 2.89668Z" fill="#0C0C10"/>
<path d="M28.4576 17.8299C28.3823 17.9786 28.2963 18.0955 28.2211 18.1698C28.1244 18.2866 28.0062 18.4141 27.8234 18.5097C27.6192 18.6053 27.4903 18.584 27.4795 18.6584C27.458 18.7433 27.6407 18.8708 27.8234 18.9133C27.9417 18.9345 28.0814 18.9345 28.3716 18.7965C28.5758 18.7009 28.8445 18.5734 29.1239 18.2866C29.1239 18.2866 29.4786 17.9149 29.672 17.352C29.8547 16.8103 29.9945 13.9745 29.8762 10.1084C30.1127 10.4695 30.4029 10.8518 30.736 11.2448C31.1659 11.744 31.5851 12.1582 31.972 12.4981C32.1762 12.6256 32.5954 12.8486 33.1542 12.838C33.3585 12.838 33.6809 12.8274 34.0141 12.6043C34.358 12.3707 34.5084 12.052 34.5622 11.9246C34.4655 9.19494 34.4869 7.12382 34.5622 6.23164C34.5837 5.96611 34.6374 5.4563 34.9598 4.94648C35.2285 4.54288 35.5295 4.36232 35.5939 4.31984C35.9701 4.09679 36.314 4.08617 36.572 4.06493C36.8944 4.04369 37.2491 4.02245 37.5822 4.23487C37.6682 4.29859 37.8832 4.42605 37.9799 4.69158C38.0659 4.92524 38.0336 5.11642 38.0122 5.2545C37.9799 5.43506 37.9369 5.71121 37.7005 5.91301C37.4103 6.16792 37.0126 6.14667 36.9374 6.14667H36.9266C36.8514 6.14667 36.5505 6.12543 36.357 5.94487C36.3248 5.92363 36.0453 5.67934 36.1206 5.40319C36.1636 5.24388 36.314 5.09518 36.4323 5.11642C36.5612 5.13766 36.5397 5.32885 36.7224 5.42444C36.8514 5.49878 37.0556 5.5094 37.1846 5.39257C37.3028 5.27574 37.3028 5.08456 37.2383 4.96773C37.1631 4.79779 36.9696 4.73406 36.8622 4.71282C36.6472 4.64909 36.357 4.67033 36.1098 4.86152C35.7982 5.1058 35.7982 5.48816 35.7982 5.54127C35.7982 5.88114 36.0238 6.10419 36.0883 6.16792C36.3463 6.42282 36.6687 6.46531 36.8407 6.47593C36.9911 6.48655 37.378 6.50779 37.765 6.27413C37.8294 6.23164 38.1196 6.05108 38.3131 5.67934C38.3776 5.55189 38.5925 5.12704 38.4313 4.65971C38.2808 4.23487 37.9262 4.04369 37.7112 3.91623C37.4318 3.75692 37.1846 3.71443 37.0234 3.68257C36.2925 3.55511 35.7014 3.76754 35.4972 3.85251C34.9276 4.08617 34.6052 4.42605 34.315 4.73406C34.0678 4.99959 33.6271 5.47754 33.3907 6.24226C33.2295 6.74146 33.2295 7.17692 33.2402 7.46369C33.2402 8.94003 33.2402 10.4164 33.2402 11.9033C31.8108 10.1296 30.3814 8.35587 28.9519 6.59276C28.9304 6.36972 28.909 6.15729 28.8982 5.93425C28.4038 6.33785 27.9094 6.73084 27.415 7.13444C27.544 7.19817 27.6622 7.27251 27.7912 7.33624C28.0277 7.68674 28.2534 8.03724 28.479 8.38773C28.4683 11.5316 28.4576 14.6861 28.4576 17.8299Z" fill="#0C0C10"/>
<path d="M32.4122 8.20724C32.4552 8.17537 32.6916 7.96295 32.6809 7.6868C32.6809 7.65494 32.6701 7.49562 32.5626 7.45314C32.4767 7.41065 32.3692 7.47438 32.3262 7.49562C32.1972 7.56997 32.1972 7.65494 32.1005 7.69742C31.9715 7.76115 31.8318 7.69742 31.7888 7.6868C31.5954 7.61245 31.4771 7.41065 31.4664 7.20885C31.4664 6.94332 31.6598 6.77338 31.6921 6.74152C31.8426 6.61407 32.0038 6.59282 32.251 6.57158C32.3369 6.56096 32.5411 6.55034 32.7991 6.59282C32.8421 6.59282 32.8851 6.60345 32.9281 6.61407C33.0463 6.12549 33.2397 5.65816 33.4869 5.21208C33.4117 5.19083 33.3365 5.18021 33.2612 5.16959C32.9818 5.12711 32.4874 5.05276 31.9178 5.24394C31.7136 5.31829 31.3589 5.43512 31.0365 5.775C30.9075 5.91307 30.7033 6.16798 30.6066 6.55034C30.5743 6.69904 30.4024 7.34693 30.8 7.89922C30.8753 8.00544 31.1225 8.35593 31.5846 8.41966C31.6491 8.43028 32.0897 8.48339 32.4122 8.20724ZM47.4265 15.1853C47.3621 15.1535 47.2868 15.2172 47.1793 15.2703C47.1793 15.2703 47.1041 15.3128 46.685 15.4296C46.1368 15.5783 45.2663 15.3553 45.2663 15.3553C43.3425 14.8242 42.3859 14.5693 41.5046 14.1551C40.763 13.8152 39.7743 13.3372 38.678 12.4451C38.1084 11.9777 37.5388 11.4148 37.5818 11.3723C37.6248 11.3192 38.3341 11.9034 39.4626 12.615C40.4836 13.2629 41.4509 13.8577 42.8051 14.2825C42.8051 14.2825 43.9981 14.6649 45.492 14.6649C45.7069 14.6649 46.1583 14.6543 46.642 14.4418C46.8462 14.3569 47.0074 14.2188 47.3191 13.9745C47.4265 13.8895 47.5448 13.7833 47.5448 13.6559C47.5448 13.5709 47.5125 13.4541 47.4265 13.4222C47.3943 13.4116 47.3513 13.401 47.1793 13.4647C47.0289 13.5284 46.9214 13.5922 46.8999 13.6134C46.7494 13.709 46.599 13.709 46.298 13.7196C45.6424 13.7302 45.3093 13.7409 45.1051 13.7196C44.1808 13.624 43.278 13.3372 42.8696 13.1886C41.3219 12.6575 40.3546 12.0308 39.9462 11.7441C39.6345 11.521 39.0972 11.1281 39.1402 11.0643C39.1831 11.0006 39.7313 11.298 40.6556 11.7122C42.0098 12.3282 42.6869 12.6469 43.4714 12.8168C44.7934 13.1142 45.5457 12.923 45.7607 12.8593C46.1046 12.7637 46.6527 12.6044 47.0074 12.0946C47.0826 11.9884 47.3298 11.6272 47.3191 11.1493C47.3083 10.7988 47.1793 10.5439 47.0826 10.3846C46.8247 9.91724 46.4485 9.68358 46.2766 9.58799C46.0616 9.47115 45.7607 9.30122 45.3523 9.35432C45.234 9.36494 44.8794 9.40743 44.6322 9.6942C44.4065 9.93848 44.3957 10.2253 44.385 10.2996C44.385 10.3527 44.3635 10.6395 44.5462 10.905C44.6107 11.0006 44.7074 11.1599 44.8579 11.1599C44.9439 11.1599 45.0406 11.1068 45.0728 11.0325C45.0836 11.0006 45.0836 10.9687 45.0083 10.8094C44.9224 10.6076 44.9009 10.6076 44.8901 10.5439C44.8686 10.3846 44.9546 10.2465 44.9761 10.2253C45.0621 10.0978 45.191 10.0659 45.277 10.0341C45.4382 9.98097 45.5887 9.99159 45.6747 10.0128C45.8896 10.0553 46.0294 10.1721 46.0938 10.2465C46.1798 10.3315 46.2873 10.4271 46.3195 10.5864C46.3625 10.7669 46.298 10.9156 46.2658 10.9687C46.1906 11.1387 46.0509 11.2236 45.9649 11.2767C45.8252 11.3617 45.6962 11.3936 45.5135 11.4254C45.2125 11.4785 44.9976 11.5104 44.6644 11.4998C44.5247 11.4998 44.2023 11.4785 43.6326 11.3086C43.2887 11.213 42.2462 10.905 42.2785 10.6501C42.2892 10.512 42.5901 10.5545 42.8481 10.2465C43.02 10.0341 43.0523 9.80041 43.063 9.71544C43.0738 9.59861 43.0953 9.41805 42.9985 9.23749C42.9663 9.16314 42.8696 8.9932 42.7191 8.98258C42.6009 8.97196 42.5149 9.05693 42.4934 9.06755C42.3967 9.15252 42.4182 9.25873 42.3537 9.37556C42.2785 9.52426 42.1495 9.59861 41.999 9.67296C41.7196 9.82165 41.3757 9.86414 40.935 9.83227C40.6771 9.82165 40.1934 9.76855 39.5808 9.55612C39.1831 9.41805 38.8607 9.25873 38.6458 9.13128C38.2266 8.9932 37.8504 8.70643 37.5388 8.39842C37.4205 8.34531 37.3131 8.29221 37.2056 8.22848C36.8509 8.01606 36.5285 7.72929 36.2061 7.47438C35.9266 7.25134 35.6902 6.94332 35.3893 6.74152V9.24811C35.5505 9.90662 35.4752 10.6501 35.2603 11.2767C35.0346 11.9034 34.7122 12.4982 34.1425 12.8805C33.8416 13.0823 33.4762 13.1886 33.1108 13.1779C32.9603 13.1886 32.8313 13.1779 32.7561 13.1567C32.6271 13.1354 32.3154 13.093 32.0145 12.8912C31.7996 12.7425 31.7673 12.6256 31.5524 12.5725C31.5094 12.5619 31.2192 12.4876 31.0795 12.6363C31.058 12.6575 30.9827 12.7637 31.058 13.0611C31.1869 13.5391 31.5201 13.8364 31.5954 13.9108C31.7028 14.0064 31.8103 14.0807 31.9178 14.1445C32.0253 14.2294 32.1327 14.3038 32.2617 14.3569C33.0678 14.8986 34.1103 14.9941 35.1098 14.9092C35.1098 14.9092 35.1098 14.9198 35.1206 14.9198C35.1206 14.9198 35.1206 14.9198 35.1206 14.9304V16.8422C35.1206 16.9378 35.1958 16.9909 35.271 16.9909C35.271 17.0015 35.271 17.0015 35.271 17.0122C35.5827 17.044 35.9481 17.1821 36.5392 17.437C36.7542 17.522 37.2056 17.83 38.0976 18.4566C38.0976 18.4566 38.5168 18.754 39.0112 19.2851C39.1294 19.4125 39.2799 19.5931 39.3014 19.848C39.3014 19.9224 39.3229 20.1135 39.1939 20.2941C39.0542 20.4747 38.8392 20.4959 38.7532 20.5171C38.5813 20.5384 38.4201 20.4959 38.3448 20.4747C38.1836 20.4215 38.1084 20.3472 38.0654 20.3791C38.0117 20.4216 38.0332 20.5596 38.0869 20.6552C38.1299 20.7296 38.2159 20.8145 38.4846 20.8889C38.7103 20.9526 39.0757 21.0376 39.4841 20.857C39.5916 20.8039 39.9785 20.634 40.1074 20.2304C40.2149 19.9117 40.0967 19.625 40.0107 19.4232C39.8602 19.0514 39.6238 18.8284 39.4733 18.6903C38.6995 17.9681 37.9687 17.3945 37.657 17.1502C37.1196 16.7254 36.8509 16.5236 36.679 16.3537C35.8621 15.5889 35.3355 14.7392 35.4 14.6755C35.486 14.6012 36.3028 15.7907 38.0224 16.9484C38.8822 17.522 38.7747 17.2883 40.5158 18.2761C40.5158 18.2761 40.7415 18.4035 42.2677 18.9027C42.4074 18.9452 42.6869 19.0408 42.7728 18.9346C42.8158 18.8709 42.8051 18.7753 42.7513 18.7009C42.6546 18.5522 42.3967 18.5628 42.3429 18.5628C41.9668 18.5628 41.3219 18.1911 40.1612 17.5114C38.678 16.651 37.9364 16.2156 37.2916 15.6845C35.9374 14.5905 34.9701 13.3691 35.0131 13.3372C35.0346 13.316 35.3355 13.6028 35.9696 14.1551C37.0981 15.1322 38.0224 15.9288 39.2476 16.6404C40.0537 17.1078 40.6556 17.3414 41.8056 17.7981C41.8056 17.7981 43.0738 18.2867 44.7182 18.4142C44.9761 18.4354 45.4597 18.4566 45.6102 18.2124C45.6532 18.138 45.6854 18.0106 45.6317 17.9468C45.5672 17.8725 45.3953 17.9362 45.3415 17.9468C45.0836 18.0212 44.7289 17.9468 44.0303 17.7769C42.5149 17.4158 40.6018 16.428 40.6018 16.428C39.3229 15.7695 38.3126 15.2278 37.2056 14.1976C36.593 13.624 35.9696 12.923 36.0341 12.8487C36.1201 12.7531 37.2808 13.8152 39.4196 15.1641C39.9462 15.4933 41.2144 16.2793 42.7406 16.821C43.3747 17.0546 43.7401 17.1078 44.4602 17.2246C44.4602 17.2246 45.0406 17.3202 45.8896 17.2352C46.1476 17.214 46.4378 17.1609 46.556 16.9591C46.6097 16.8741 46.6312 16.7254 46.5775 16.6723C46.513 16.6086 46.3733 16.6829 46.2336 16.736C46.0079 16.8104 45.8144 16.7785 45.4167 16.7148C43.7509 16.4599 42.7621 16.0987 42.7621 16.0987C41.956 15.8014 40.1182 15.1216 38.2589 13.5497C37.5173 12.923 36.8079 12.1902 36.8402 12.1583C36.8617 12.1264 37.3668 12.5619 37.8612 12.9443C39.828 14.4631 41.6551 15.2066 42.2247 15.419C42.2247 15.419 43.9013 16.0563 45.3845 16.0881C45.8252 16.0987 46.1906 16.0244 46.4055 15.9819C46.5452 15.9501 46.7602 15.8651 47.2008 15.6739C47.2761 15.642 47.4158 15.5889 47.448 15.4615C47.534 15.3446 47.5018 15.2172 47.4265 15.1853Z" fill="#0C0C10"/>
<path d="M33.3146 15.281C33.809 15.281 34.3141 15.281 34.8085 15.281C34.8085 16.9804 34.8085 18.6691 34.8085 20.3685C34.9052 20.4747 35.002 20.5916 35.088 20.6978C35.0987 20.7615 35.0987 20.8146 35.1095 20.8783C34.4109 20.8783 33.7123 20.8783 33.0137 20.8783C33.0137 20.8146 33.0137 20.7509 33.0137 20.6765C33.1104 20.581 33.2071 20.4854 33.3039 20.3898C33.3039 18.6904 33.3146 16.991 33.3146 15.281ZM35.1309 12.2009C35.1309 10.3209 35.1309 8.44099 35.1309 6.56105C35.2169 6.53981 35.3674 6.51856 35.5394 6.55043C35.7221 6.59291 35.851 6.67788 35.9585 6.76285C36.3884 7.10273 36.6249 7.35763 36.6249 7.35763C37.1945 7.97366 37.173 8.00552 37.4632 8.29229C37.9253 8.73838 38.0328 8.67466 38.1188 8.87646C38.3337 9.33317 37.9253 9.91733 37.3557 10.7033C36.7861 11.4893 36.1197 12.4239 35.4211 12.3071C35.2922 12.2858 35.1954 12.2327 35.1309 12.2009Z" fill="#0C0C10"/>
</svg>
