<svg width="80" height="80" viewBox="0 0 80 80" fill="none" xmlns="http://www.w3.org/2000/svg">
<g clip-path="url(#clip0)">
<path fill-rule="evenodd" clip-rule="evenodd" d="M35.3525 31.7432C35.3525 31.7432 35.3525 31.7432 36.923 31.7432C37.4953 31.7432 37.7836 32.0188 37.7836 32.6412C37.7836 32.6412 37.7836 32.6412 37.7836 34.8465C37.7836 34.8465 37.7836 34.8465 40.86 34.8465C40.86 34.8465 40.86 34.8465 40.86 32.6412C40.86 32.0188 41.144 31.7432 41.7894 31.7432C41.7894 31.7432 41.7894 31.7432 43.291 31.7432C43.291 31.7432 43.291 31.7432 43.291 33.1925C43.291 33.1925 43.291 33.1925 42.6499 33.1925L42.5768 33.2635C42.5768 33.2635 42.5768 33.2635 42.5768 39.4701C42.5768 39.4701 42.5768 39.4701 40.86 39.4701C40.86 39.4701 40.86 39.4701 40.86 36.3668C40.86 36.3668 40.86 36.3668 37.7836 36.3668C37.7836 36.3668 37.7836 36.3668 37.7836 39.4701C37.7836 39.4701 37.7836 39.4701 36.0668 39.4701C36.0668 39.4701 36.0668 39.4701 36.0668 33.2635C36.0668 33.2635 36.0668 33.1925 35.9936 33.1925C35.9936 33.1925 35.9936 33.1925 35.3525 33.1925C35.3525 33.1925 35.3525 33.1925 35.3525 31.7432Z" fill="#ED1C24"/>
<path fill-rule="evenodd" clip-rule="evenodd" d="M47.7952 31.6055L47.834 31.6096V33.201L47.7952 33.1926C46.5087 33.1926 45.5062 34.2284 45.5062 35.5399C45.5062 36.9182 46.5087 38.0209 47.7952 38.0209L47.834 38.0125V39.6039L47.7952 39.608C45.5062 39.608 43.6475 37.8162 43.6475 35.5399C43.6475 33.3304 45.5062 31.6055 47.7952 31.6055Z" fill="#ED1C24"/>
<path fill-rule="evenodd" clip-rule="evenodd" d="M47.834 31.6104L48.63 31.6855C50.5189 32.0447 51.9431 33.6068 51.9431 35.5406C51.9431 37.5287 50.5189 39.1535 48.63 39.5252L47.834 39.6046V38.0132L48.7074 37.8295C49.5508 37.4536 50.1574 36.5723 50.1574 35.5406C50.1574 34.5549 49.5508 33.7279 48.7074 33.3771L47.834 33.2017V31.6104Z" fill="#ED1C24"/>
<path fill-rule="evenodd" clip-rule="evenodd" d="M52.3008 31.7432C52.3008 31.7432 52.3008 31.7432 54.6974 31.7432H55.8419V33.1925H55.7343C55.5923 33.1925 55.3041 33.1925 54.7318 33.1925C54.7318 33.1925 54.7318 33.1925 54.7318 34.7796C54.7318 34.7796 54.7318 34.7796 55.218 34.7796H55.8419V36.1579H55.4762C55.2955 36.1579 55.0545 36.1579 54.7318 36.1579C54.7318 36.1579 54.7318 36.1579 54.7318 37.8829C54.7318 37.9539 54.7318 37.9539 54.805 37.9539C54.805 37.9539 54.805 37.9539 55.317 37.9539H55.8419V39.4701H55.6913C55.4331 39.4701 54.9125 39.4701 53.8756 39.4701C53.3033 39.4701 53.0193 39.1944 53.0193 38.5721V33.1925C53.0193 33.1925 53.0193 33.1925 52.3008 33.1925C52.3008 33.1925 52.3008 33.1925 52.3008 31.7432Z" fill="#ED1C24"/>
<path fill-rule="evenodd" clip-rule="evenodd" d="M55.8418 31.7432H55.8762C57.451 31.7432 58.3804 32.5702 58.3804 33.8148C58.3804 34.5708 58.0233 35.0553 57.6661 35.402C58.3115 35.6776 58.7375 36.3668 58.7375 37.1228C58.7375 38.5721 57.593 39.4701 55.9494 39.4701C55.9494 39.4701 55.9494 39.4701 55.9192 39.4701H55.8418V37.9539H56.0182C56.5905 37.9539 56.9519 37.6073 56.9519 37.0559C56.9519 36.5046 56.5905 36.1579 56.0182 36.1579C56.0182 36.1579 56.0182 36.1579 55.859 36.1579H55.8418V34.7796H55.8762C56.3796 34.7796 56.6636 34.433 56.6636 33.9526C56.6636 33.4681 56.3796 33.1925 55.8762 33.1925C55.8762 33.1925 55.8762 33.1925 55.859 33.1925H55.8418V31.7432Z" fill="#ED1C24"/>
<path fill-rule="evenodd" clip-rule="evenodd" d="M62.0293 31.7432C62.0293 31.7432 62.0293 31.7432 62.7521 31.7432H62.8855V33.9526C62.8166 34.0905 62.7435 34.2951 62.7435 34.504C62.7435 34.504 62.7435 34.504 62.1712 36.0911C62.1712 36.0911 62.1712 36.0911 62.7779 36.0911H62.8855V37.5363H62.4982C62.2788 37.5363 62.0292 37.5363 61.7453 37.5363C61.7453 37.5363 61.7453 37.5363 61.2419 38.7809C61.0999 39.2612 60.8159 39.4701 60.2436 39.4701C60.2436 39.4701 60.2436 39.4701 59.168 39.4701C59.168 39.4701 59.168 39.4701 59.168 37.9539C59.168 37.9539 59.168 37.9539 59.5251 37.9539C59.6714 37.9539 59.6714 37.9539 59.7402 37.8829C59.7402 37.8829 59.7402 37.8829 62.0293 31.7432Z" fill="#ED1C24"/>
<path fill-rule="evenodd" clip-rule="evenodd" d="M62.8848 31.7432H63.7453C63.7453 31.7432 63.7453 31.7432 66.0343 37.8829C66.1032 37.9539 66.1032 37.9539 66.2452 37.9539C66.2452 37.9539 66.2452 37.9539 66.5334 37.9539C66.5334 37.9539 66.5334 37.9539 66.5334 39.4701C66.5334 39.4701 66.5334 39.4701 65.5309 39.4701C64.9587 39.4701 64.6747 39.2612 64.5284 38.7099C64.5284 38.7099 64.5284 38.7099 64.0293 37.5363C64.0293 37.5363 64.0293 37.5363 63.0655 37.5363H62.8848V36.0911H63.599C63.599 36.0911 63.599 36.0911 63.0311 34.504C63.0311 34.2951 62.9579 34.0905 62.8848 33.9526V31.7432Z" fill="#ED1C24"/>
<path fill-rule="evenodd" clip-rule="evenodd" d="M35.3525 41.6758C35.3525 41.6758 35.3525 41.6758 41.5742 41.6758C42.1465 41.6758 42.5036 41.9514 42.5036 42.5738C42.5036 42.5738 42.5036 42.5738 42.5036 47.8155C42.5036 47.8824 42.5036 47.8824 42.5767 47.8824C42.5767 47.8824 42.5767 47.8824 43.149 47.8824C43.149 47.8824 43.149 47.8824 43.149 49.4027C43.149 49.4027 43.149 49.4027 41.6474 49.4027C41.002 49.4027 40.718 49.127 40.718 48.5047C40.718 48.5047 40.718 48.5047 40.718 43.1961C40.718 43.1961 40.718 43.1251 40.6448 43.1251C40.6448 43.1251 40.6448 43.1251 37.7836 43.1251C37.7836 43.1251 37.7836 43.1251 37.7836 49.4027C37.7836 49.4027 37.7836 49.4027 36.0668 49.4027C36.0668 49.4027 36.0668 49.4027 36.0668 43.1251C36.0668 43.1251 36.0668 43.1251 35.3525 43.1251C35.3525 43.1251 35.3525 43.1251 35.3525 41.6758Z" fill="#ED1C24"/>
<path fill-rule="evenodd" clip-rule="evenodd" d="M47.6542 41.5381L47.6886 41.5423V43.1336L47.6542 43.1252C46.3633 43.1252 45.3651 44.1611 45.3651 45.4725C45.3651 46.8509 46.3633 47.9535 47.6542 47.9535L47.6886 47.9452V49.5365L47.6542 49.5407C45.3651 49.5407 43.5752 47.7447 43.5752 45.4725C43.5752 43.2631 45.3651 41.5381 47.6542 41.5381Z" fill="#ED1C24"/>
<path fill-rule="evenodd" clip-rule="evenodd" d="M47.6885 41.542L48.5103 41.6172C50.4336 41.9764 51.8018 43.5385 51.8018 45.4723C51.8018 47.4604 50.4336 49.0851 48.5103 49.4569L47.6885 49.5362V47.9449L48.5963 47.7611C49.4526 47.3852 50.0162 46.5039 50.0162 45.4723C50.0162 44.4866 49.4526 43.6596 48.5963 43.3087L47.6885 43.1333V41.542Z" fill="#ED1C24"/>
<path fill-rule="evenodd" clip-rule="evenodd" d="M52.1582 41.6758C52.1582 41.6758 52.1582 41.6758 53.733 41.6758C54.3052 41.6758 54.5892 41.9514 54.5892 42.5738C54.5892 42.5738 54.5892 42.5738 54.5892 47.8155C54.5892 47.8824 54.5892 47.8824 54.6624 47.8824C54.6624 47.8824 54.6624 47.8824 56.7363 47.8824C56.7363 47.8824 56.7363 47.8824 56.7363 41.6758C56.7363 41.6758 56.7363 41.6758 58.453 41.6758C58.453 41.6758 58.453 41.6758 58.453 47.8824C58.453 47.8824 58.453 47.8824 60.5269 47.8824C60.6001 47.8824 60.6001 47.8824 60.6001 47.8155C60.6001 47.8155 60.6001 47.8155 60.6001 42.5738C60.6001 41.9514 60.884 41.6758 61.4563 41.6758C61.4563 41.6758 61.4563 41.6758 63.0311 41.6758C63.0311 41.6758 63.0311 41.6758 63.0311 43.1251C63.0311 43.1251 63.0311 43.1251 62.3857 43.1251C62.3125 43.1251 62.3125 43.1961 62.3125 43.1961C62.3125 43.1961 62.3125 43.1961 62.3125 48.5047C62.3125 49.127 62.0286 49.4027 61.4563 49.4027C61.4563 49.4027 61.4563 49.4027 53.8018 49.4027C53.1607 49.4027 52.8725 49.127 52.8725 48.5047C52.8725 48.5047 52.8725 48.5047 52.8725 43.1961C52.8725 43.1961 52.8724 43.1251 52.8036 43.1251C52.8036 43.1251 52.8036 43.1251 52.1582 43.1251C52.1582 43.1251 52.1582 43.1251 52.1582 41.6758Z" fill="#ED1C24"/>
<path fill-rule="evenodd" clip-rule="evenodd" d="M64.387 41.6758C64.387 41.6758 64.387 41.6758 69.7524 41.6758C70.3978 41.6758 70.613 41.9514 70.613 42.5028C70.613 42.5028 70.613 42.5028 70.613 43.8143H69.0382C69.0382 43.8143 69.0382 43.8143 69.0382 43.1961C69.0382 43.1251 69.0382 43.1251 68.9651 43.1251C68.9651 43.1251 68.9651 43.1251 67.9668 43.1251C67.9668 43.1251 67.9668 43.1251 67.9668 49.4027C67.9668 49.4027 67.9668 49.4027 66.2458 49.4027C66.2458 49.4027 66.2458 49.4027 66.2458 43.1251C66.2458 43.1251 66.2458 43.1251 65.2475 43.1251C65.1744 43.1251 65.1744 43.1251 65.1744 43.1961C65.1744 43.1961 65.1744 43.1961 65.1744 43.8143C65.1744 43.8143 65.1744 43.8143 63.5996 43.8143C63.5996 43.8143 63.5996 43.8143 63.5996 42.5028C63.5996 41.9514 63.8147 41.6758 64.387 41.6758Z" fill="#ED1C24"/>
<path fill-rule="evenodd" clip-rule="evenodd" d="M72.8291 41.6758C72.8291 41.6758 72.8291 41.6758 73.5519 41.6758H73.6853V43.8853C73.6122 44.0231 73.5433 44.2278 73.5433 44.4366C73.5433 44.4366 73.5433 44.4366 72.9711 46.0237C72.9711 46.0237 72.9711 46.0237 73.5734 46.0237H73.6853V47.4689H73.2981C73.0786 47.4689 72.8291 47.4689 72.5408 47.4689C72.5408 47.4689 72.5408 47.4689 72.0417 48.6425C71.8997 49.1939 71.6114 49.4027 71.0391 49.4027C71.0391 49.4027 71.0391 49.4027 69.9678 49.4027C69.9678 49.4027 69.9678 49.4027 69.9678 47.8824C69.9678 47.8824 69.9678 47.8824 70.3249 47.8824C70.4712 47.8824 70.4712 47.8824 70.54 47.8155C70.54 47.8155 70.54 47.8155 72.8291 41.6758Z" fill="#ED1C24"/>
<path fill-rule="evenodd" clip-rule="evenodd" d="M73.6846 41.6758H74.5408C74.5408 41.6758 74.5408 41.6758 76.8341 47.8155C76.903 47.8824 76.903 47.8824 77.0493 47.8824H77.3333C77.3333 47.8824 77.3333 47.8824 77.3333 49.4027C77.3333 49.4027 77.3333 49.4027 76.3307 49.4027C75.7585 49.4027 75.4745 49.1939 75.3282 48.6425C75.3282 48.6425 75.3282 48.6425 74.8291 47.4689C74.8291 47.4689 74.8291 47.4689 73.8653 47.4689H73.6846V46.0237H74.3988C74.3988 46.0237 74.3988 46.0237 73.8266 44.4366C73.8266 44.2278 73.7577 44.0231 73.6846 43.8853V41.6758Z" fill="#ED1C24"/>
<path fill-rule="evenodd" clip-rule="evenodd" d="M24.3287 35.0306C24.4104 35.0056 24.518 35.0557 24.6256 35.1935C24.6256 35.1935 24.6256 35.1935 29.4876 39.813C29.7716 40.0886 29.7716 40.5063 29.4876 40.7109C29.4876 40.7109 29.4876 40.7109 24.6256 45.4014C24.518 45.5392 24.4104 45.5726 24.3287 45.5309C24.2469 45.4891 24.1953 45.368 24.1953 45.1926V35.3313C24.1953 35.1601 24.2469 35.0557 24.3287 35.0306Z" fill="#ED1C24"/>
<path fill-rule="evenodd" clip-rule="evenodd" d="M16.0116 27.333H16.3558L16.6872 27.4667C16.6872 27.4667 16.6872 27.4667 21.6912 32.2949C21.9063 32.5706 21.8332 32.7794 21.476 32.7794C21.476 32.7794 21.476 32.7794 19.4022 32.7794C19.045 32.7794 18.7611 33.0551 18.7611 33.4018C18.7611 33.4018 18.7611 33.4018 18.7611 36.9854C18.7611 37.332 18.4728 37.6077 18.0425 37.6077C18.0425 37.6077 18.0425 37.6077 14.3981 37.6077C14.041 37.6077 13.7527 37.332 13.7527 36.9854C13.7527 36.9854 13.7527 36.9854 13.7527 33.4018C13.7527 33.0551 13.4687 32.7794 13.1073 32.7794H10.8914C10.5343 32.7794 10.4612 32.5706 10.6763 32.2949C10.6763 32.2949 10.6763 32.2949 15.6846 27.4667L16.0116 27.333Z" fill="#ED1C24"/>
<path fill-rule="evenodd" clip-rule="evenodd" d="M8.17228 34.926C8.26264 34.9678 8.31857 35.0889 8.31857 35.2643V45.3302C8.31857 45.5056 8.26264 45.61 8.17228 45.6434C8.08623 45.6768 7.96145 45.6434 7.81516 45.539C7.81516 45.539 7.81516 45.539 2.87998 40.7107C2.596 40.5061 2.596 40.0884 2.87998 39.8127C2.87998 39.8127 2.87998 39.8127 7.81516 35.0555C7.96145 34.9176 8.08623 34.8842 8.17228 34.926Z" fill="#ED1C24"/>
<path fill-rule="evenodd" clip-rule="evenodd" d="M14.3987 42.8496C14.3987 42.8496 14.3987 42.8496 18.043 42.8496C18.4733 42.8496 18.7616 43.1253 18.7616 43.4719C18.7616 43.4719 18.7616 43.4719 18.7616 47.2644C18.7616 47.6779 19.0456 47.9535 19.4027 47.9535H21.3346C21.6917 47.9535 21.8337 48.1582 21.5497 48.367C21.5497 48.367 21.5497 48.367 16.6877 53.1243C16.5414 53.2621 16.365 53.3331 16.1843 53.3331C16.0079 53.3331 15.8271 53.2621 15.6852 53.1243C15.6852 53.1243 15.6852 53.1243 10.8231 48.367C10.5348 48.1582 10.6768 47.9535 11.034 47.9535C11.034 47.9535 11.034 47.9535 13.1078 47.9535C13.4693 47.9535 13.7533 47.6779 13.7533 47.2644C13.7533 47.2644 13.7533 47.2644 13.7533 43.4719C13.7533 43.1253 14.0415 42.8496 14.3987 42.8496Z" fill="#ED1C24"/>
</g>
<defs>
<clipPath id="clip0">
<rect width="74.6667" height="26" fill="white" transform="translate(2.66699 27.333)"/>
</clipPath>
</defs>
</svg>
