<svg width="150" height="21" viewBox="0 0 150 21" fill="none" xmlns="http://www.w3.org/2000/svg">
<path d="M0.333008 3.18099H3.37373V4.98655C4.25216 3.6671 5.67117 2.83377 7.22532 2.90321C8.64432 2.90321 9.99576 3.52821 10.8742 4.63932C11.8878 5.75044 12.3608 7.34766 12.3608 9.36155C12.3608 11.4449 11.8878 13.0421 10.8742 14.2227C9.92819 15.3338 8.64432 15.9588 7.22532 15.9588C6.61717 15.9588 5.94146 15.8199 5.40088 15.5421C4.72517 15.1949 4.11702 14.7088 3.64402 14.1532V20.4032H0.333008V3.18099ZM3.57645 9.15321C3.57645 10.5421 3.84673 11.5838 4.38731 12.2782C4.86031 12.9032 5.6036 13.3199 6.41446 13.2504C7.15775 13.2504 7.83346 12.9032 8.30647 12.3477C8.77947 11.7227 9.04975 10.7504 9.04975 9.36155C9.04975 8.0421 8.77946 7.06987 8.23889 6.44487C7.76589 5.81987 7.09018 5.47266 6.27932 5.47266C5.53603 5.47266 4.79274 5.81988 4.31974 6.37544C3.84674 7.00044 3.57645 7.97266 3.57645 9.15321ZM13.6446 9.22265C13.6446 8.11154 13.9149 7.00044 14.4555 6.02821C14.9961 5.05599 15.7393 4.22265 16.7529 3.66709C17.7665 3.11154 18.9152 2.83376 20.0639 2.83376C21.7532 2.76432 23.4425 3.45877 24.6588 4.63932C25.8751 5.88932 26.4832 7.55599 26.4832 9.2921C26.5508 12.8338 23.9155 15.7504 20.4694 15.8199C20.3342 15.8199 20.1991 15.8199 20.1315 15.8199C18.9828 15.8199 17.9016 15.5421 16.8881 15.056C15.8745 14.5699 15.0636 13.806 14.5231 12.7643C13.8473 11.7227 13.5771 10.4727 13.6446 9.22265ZM17.0232 9.36155C17.0232 10.6115 17.2935 11.5143 17.9016 12.2088C18.9828 13.4588 20.8072 13.5282 21.9559 12.4171C22.0235 12.3477 22.0911 12.2782 22.1587 12.2088C22.7668 11.5838 23.0371 10.6115 23.0371 9.36155C23.0371 8.11155 22.7668 7.20877 22.1587 6.51432C21.0775 5.26432 19.2531 5.19488 18.1044 6.30599C18.0368 6.37543 17.9692 6.44488 17.9016 6.51432C17.2935 7.20877 17.0232 8.11155 17.0232 9.36155ZM42.9707 3.18099V5.81988H40.7409V10.8199C40.7409 11.4449 40.7409 12.0004 40.8084 12.6254C40.876 12.7643 40.9436 12.9727 41.0787 13.0421C41.2139 13.181 41.4166 13.181 41.6193 13.181C42.0923 13.181 42.4977 13.0421 42.9032 12.8338L43.1734 15.4032C42.3626 15.7504 41.4842 15.8893 40.6057 15.8893C40.0652 15.8893 39.5246 15.8199 38.984 15.6116C38.5786 15.4727 38.2407 15.1949 37.9704 14.8477C37.7001 14.431 37.565 14.0143 37.4974 13.5977C37.4299 12.8338 37.3623 12.0699 37.3623 11.306V5.88933H35.8757V3.25043H37.3623V1.58376L40.6733 0.472656V3.31987H42.9707V3.18099ZM44.7276 3.18099H47.7683V4.9171C48.8495 3.59765 50.1333 2.90321 51.6199 2.90321C52.3632 2.90321 53.0389 3.0421 53.7146 3.38932C54.3228 3.73654 54.7958 4.22266 55.1336 4.84766C55.6066 4.22266 56.2148 3.73654 56.8905 3.38932C57.4986 3.0421 58.2419 2.90321 58.9176 2.90321C59.7285 2.90321 60.5394 3.0421 61.2151 3.45877C61.8232 3.80599 62.3638 4.43099 62.6341 5.12543C62.8368 5.68099 62.9719 6.51432 62.9719 7.69488V15.681H59.6609V8.52821C59.6609 7.27821 59.5258 6.51432 59.3231 6.1671C58.9852 5.68099 58.4446 5.40321 57.9041 5.47266C56.8905 5.47266 56.0121 6.1671 55.7418 7.13932C55.5391 7.97265 55.4039 8.87544 55.4715 9.70877V15.681H52.1605V8.87543C52.1605 7.69487 52.0929 6.86154 51.9578 6.51432C51.8902 6.1671 51.6875 5.88932 51.4172 5.75043C51.1469 5.5421 50.7415 5.47266 50.4036 5.47266C49.9306 5.47266 49.4576 5.61155 49.0522 5.88933C48.6468 6.1671 48.3089 6.58377 48.1737 7.06988C47.971 7.90321 47.9035 8.80599 47.9035 9.63932V15.681H44.5924L44.7276 3.18099ZM64.1882 9.22265C64.1882 8.11154 64.4585 7.00044 64.9991 6.02821C65.5397 5.05599 66.283 4.22265 67.2965 3.66709C68.3101 3.11154 69.4588 2.83376 70.6075 2.83376C72.4995 2.83376 73.9861 3.45877 75.2024 4.63932C76.4187 5.88932 77.0268 7.55599 77.0268 9.2921C77.0944 12.8338 74.4591 15.7504 71.013 15.8199C70.8778 15.8199 70.7427 15.8199 70.6751 15.8199C69.5264 15.8199 68.4452 15.5421 67.4317 15.056C66.4181 14.5699 65.6072 13.806 65.0667 12.7643C64.4585 11.7227 64.1882 10.4727 64.1882 9.22265ZM67.5668 9.36155C67.5668 10.6115 67.8371 11.5143 68.4452 12.2088C69.5264 13.4588 71.3508 13.5282 72.4995 12.4171C72.5671 12.3477 72.6347 12.2782 72.7023 12.2088C73.3104 11.5838 73.5807 10.6115 73.5807 9.36155C73.5807 8.11155 73.3104 7.20877 72.7023 6.51432C71.6211 5.26432 69.7967 5.19488 68.648 6.30599C68.5804 6.37543 68.5128 6.44488 68.4452 6.51432C67.8371 7.20877 67.5668 8.11155 67.5668 9.36155ZM89.5276 15.6116H86.2842V9.22265C86.2842 7.90321 86.2166 7.00044 86.0814 6.58377C85.9463 6.23655 85.7436 5.88932 85.4057 5.68099C85.0679 5.47266 84.6624 5.33377 84.257 5.33377C83.7164 5.33377 83.1759 5.47266 82.7029 5.81988C82.2974 6.09766 81.9596 6.58377 81.7569 7.06988C81.6217 7.55599 81.4866 8.52821 81.4866 9.9171V15.5421H78.1756V3.11155H81.2163V4.9171C82.1623 3.59765 83.7164 2.76432 85.2706 2.83376C85.9463 2.83376 86.622 2.97266 87.2302 3.25043C87.7707 3.45877 88.2437 3.80599 88.5816 4.22265C88.9195 4.63932 89.1222 5.12543 89.1897 5.61154C89.3249 6.37543 89.3925 7.06987 89.3925 7.83376L89.5276 15.6116ZM99.2579 11.6532L102.501 12.2088C102.164 13.3199 101.42 14.2921 100.542 14.9865C99.5282 15.681 98.3119 15.9588 97.1632 15.9588C95.0009 15.9588 93.4468 15.2643 92.3656 13.806C91.5547 12.6949 91.1493 11.2365 91.1493 9.50044C91.1493 7.4171 91.6899 5.81988 92.771 4.63932C93.7846 3.45877 95.2712 2.83377 96.8253 2.90321C98.6498 2.90321 100.136 3.52821 101.15 4.70876C102.231 5.95876 102.704 7.83377 102.704 10.3338H94.5279C94.5279 11.1671 94.7982 12.0004 95.3388 12.6254C95.8118 13.181 96.4875 13.4588 97.2308 13.4588C97.7038 13.4588 98.1768 13.3199 98.5146 13.0421C98.8525 12.6254 99.1228 12.1393 99.2579 11.6532ZM99.4606 8.31988C99.4606 7.34766 99.1904 6.65321 98.7174 6.1671C97.7714 5.19488 96.2848 5.19487 95.3388 6.09765L95.2712 6.1671C94.7982 6.7921 94.5279 7.55599 94.5955 8.31988H99.4606ZM33.7134 6.09765C32.2268 6.09765 31.0781 7.06987 31.0781 9.22265V15.681H27.7671V3.25043H30.6051V5.40321H30.6727C31.2808 3.80598 32.5647 2.97265 33.7134 2.97265C33.9837 2.97265 34.1864 2.97265 34.4567 3.0421V6.1671C34.254 6.09766 33.9837 6.02821 33.7134 6.09765Z" fill="#FF0000"/>
<path d="M104.664 15.473V13.1119H107.029V15.5424H104.664V15.473ZM117.097 10.9591L119.192 11.2369C119.057 12.5563 118.449 13.7369 117.435 14.5702C116.489 15.4035 115.273 15.8202 114.057 15.7508C112.367 15.7508 111.016 15.1952 110.002 14.0841C108.989 12.973 108.448 11.3758 108.448 9.29242C108.448 8.11187 108.651 6.86187 109.124 5.75075C109.529 4.77853 110.205 4.01465 111.151 3.4591C112.029 2.97299 113.043 2.6952 114.124 2.6952C115.273 2.62576 116.489 2.97298 117.435 3.73687C118.314 4.43131 118.922 5.47298 119.057 6.65353L117.03 6.93132C116.895 6.23687 116.557 5.54242 116.016 5.05631C115.543 4.63964 114.867 4.43131 114.259 4.43131C113.313 4.36187 112.367 4.84799 111.692 5.54243C111.016 6.30632 110.678 7.48687 110.678 9.15354C110.678 10.8202 111.016 12.0702 111.624 12.7646C112.232 13.5285 113.178 13.9452 114.124 13.8758C114.867 13.8758 115.611 13.598 116.151 13.1119C116.624 12.7646 116.962 12.0008 117.097 10.9591ZM120.138 9.29242C120.138 7.00076 120.746 5.26465 122.03 4.15354C123.111 3.25076 124.53 2.76465 125.882 2.76465C127.436 2.69521 128.922 3.3202 130.071 4.43131C131.152 5.54243 131.693 7.0702 131.693 9.08409C131.693 10.6813 131.422 11.9313 130.949 12.8341C130.476 13.7369 129.733 14.5008 128.855 14.9869C127.909 15.473 126.895 15.7508 125.882 15.7508C124.125 15.7508 122.773 15.1952 121.692 14.0841C120.679 12.973 120.138 11.3758 120.138 9.29242ZM122.3 9.29242C122.3 10.8896 122.638 12.0702 123.314 12.9035C124.598 14.3619 126.828 14.5008 128.247 13.1813C128.314 13.1119 128.449 12.973 128.517 12.9035C129.193 12.0702 129.53 10.8896 129.53 9.29242C129.53 7.76465 129.193 6.58409 128.517 5.8202C127.233 4.36187 125.003 4.22299 123.584 5.54243C123.517 5.61187 123.381 5.68131 123.314 5.8202C122.638 6.51465 122.3 7.6952 122.3 9.29242ZM132.909 15.473V3.04243H134.801V4.77854C135.206 4.15354 135.747 3.66742 136.355 3.3202C137.031 2.97298 137.774 2.76465 138.517 2.76465C139.328 2.76465 140.072 2.90353 140.747 3.3202C141.355 3.66742 141.761 4.29242 141.964 4.91742C142.977 3.45909 144.193 2.76465 145.815 2.76465C147.031 2.76465 147.977 3.11187 148.653 3.80632C149.329 4.50076 149.667 5.54243 149.667 6.93132V15.473H147.572V7.62576C147.572 7.00076 147.504 6.37576 147.369 5.8202C147.234 5.47298 146.964 5.12576 146.626 4.91742C146.221 4.70909 145.815 4.5702 145.342 4.5702C144.531 4.5702 143.72 4.84798 143.18 5.47298C142.639 6.02854 142.301 7.00076 142.301 8.25076V15.473H140.207V7.41743C140.207 6.44521 140.004 5.75076 139.666 5.33409C139.328 4.84798 138.788 4.63965 137.977 4.63965C137.369 4.63965 136.828 4.77854 136.355 5.12576C135.882 5.47298 135.477 5.88965 135.274 6.51465C135.004 7.34798 134.869 8.25076 134.936 9.08409V15.5424L132.909 15.473Z" fill="#A7A9AB"/>
</svg>
