<svg width="48" height="48" viewBox="0 0 48 48" fill="none" xmlns="http://www.w3.org/2000/svg">
<path d="M2 6H46V44C46 45.1046 45.1046 46 44 46H4C2.89543 46 2 45.1046 2 44V6Z" fill="#FBEC9E"/>
<circle cx="24" cy="27" r="16" fill="white"/>
<path d="M2 4C2 2.89543 2.89543 2 4 2H44C45.1046 2 46 2.89543 46 4V8H2V4Z" fill="#F5692D"/>
<path d="M17.9328 22.7121C18.0758 21.7291 18.9186 21 19.912 21H28.088C29.0814 21 29.9242 21.7291 30.0672 22.7121L31.6672 33.7121C31.8427 34.9186 30.9072 36 29.688 36H18.312C17.0928 36 16.1573 34.9186 16.3328 33.7121L17.9328 22.7121Z" fill="#59DED6"/>
<path d="M21.5 29L24 31L28 27" stroke="#192966" stroke-width="2"/>
<path d="M26 21V20C26 18.8954 25.1046 18 24 18V18C22.8954 18 22 18.8954 22 20V21" stroke="#192966" stroke-width="2"/>
<path d="M21 21H23V22C23 22.5523 22.5523 23 22 23C21.4477 23 21 22.5523 21 22V21Z" fill="white"/>
<path d="M25 21H27V22C27 22.5523 26.5523 23 26 23C25.4477 23 25 22.5523 25 22V21Z" fill="white"/>
</svg>
