<svg width="120" height="120" viewBox="0 0 120 120" fill="none" xmlns="http://www.w3.org/2000/svg">
<path d="M76.7997 56.9357C76.7997 58.0502 76.5925 58.928 76.1845 59.5484C75.7812 60.1623 75.1708 60.4613 74.3197 60.4613C73.467 60.4613 72.8597 60.1639 72.4628 59.5484C72.0612 58.9296 71.8572 58.0502 71.8572 56.9357C71.8572 55.8229 72.0612 54.9467 72.4628 54.3327C72.8597 53.7251 73.467 53.4293 74.3197 53.4293C75.1708 53.4293 75.7812 53.7251 76.1861 54.3327C76.5925 54.9467 76.7997 55.8229 76.7997 56.9357Z" fill="#00A1E0"/>
<path d="M97.7997 55.8682C97.8905 55.2494 98.061 54.7345 98.324 54.3332C98.7209 53.724 99.3266 53.3898 100.178 53.3898C101.029 53.3898 101.591 53.7256 101.995 54.3332C102.262 54.7345 102.379 55.2718 102.425 55.8682H97.7997Z" fill="#00A1E0"/>
<path d="M46.3858 54.3332C46.1228 54.7345 45.9539 55.2494 45.8614 55.8682H50.4868C50.4405 55.2718 50.3242 54.7345 50.058 54.3332C49.6532 53.7256 49.0906 53.3898 48.2394 53.3898C47.3883 53.3898 46.7827 53.724 46.3858 54.3332Z" fill="#00A1E0"/>
<path d="M31.8435 60.1281C31.5901 59.9251 31.555 59.8739 31.469 59.7428C31.3415 59.5429 31.2761 59.2583 31.2761 58.897C31.2761 58.3246 31.4642 57.9136 31.8547 57.637C31.8499 57.6386 32.4125 57.1494 33.7354 57.1669C34.6646 57.1797 35.495 57.3172 35.495 57.3172V60.2752H35.4966C35.4966 60.2752 34.6726 60.4527 33.745 60.5087C32.4253 60.5886 31.8387 60.1265 31.8435 60.1281Z" fill="#00A1E0"/>
<path fill-rule="evenodd" clip-rule="evenodd" d="M50.6172 28.6247C54.2256 24.8529 59.2494 22.5137 64.8056 22.5137C72.1915 22.5137 78.6354 26.6453 82.0669 32.7787C85.049 31.442 88.3499 30.6985 91.8229 30.6985C105.144 30.6985 115.944 41.627 115.944 55.1074C115.944 68.5894 105.144 79.5179 91.8229 79.5179C90.1972 79.5179 88.6081 79.3548 87.0716 79.043C84.0497 84.4505 78.2911 88.104 71.6814 88.104C68.9145 88.104 66.2974 87.4628 63.9672 86.3228C60.9039 93.5515 53.7666 98.62 45.4483 98.62C36.7858 98.62 29.4031 93.1214 26.5692 85.4099C25.3308 85.6737 24.0478 85.8112 22.7312 85.8112C12.4175 85.8112 4.05615 77.337 4.05615 66.8817C4.05615 59.8753 7.81285 53.7579 13.3945 50.485C12.2453 47.8324 11.6062 44.9048 11.6062 41.8269C11.6062 29.8031 21.3366 20.0562 33.3383 20.0562C40.3847 20.0562 46.6469 23.4171 50.6172 28.6247ZM20.2621 60.7974C20.2041 60.9496 20.2596 61.0021 20.2931 61.0338C20.3 61.0404 20.3061 61.0461 20.3099 61.0516C20.4762 61.173 20.6446 61.2673 20.8141 61.3624C20.859 61.3875 20.904 61.4128 20.9491 61.4386C22.0902 62.0462 23.1677 62.2236 24.2945 62.2236C26.5897 62.2236 28.0146 60.9989 28.0146 59.0274V58.989C28.0146 57.1663 26.4064 56.5043 24.897 56.0263L24.6998 55.962C23.5623 55.5912 22.5812 55.2713 22.5812 54.5201V54.4801C22.5812 53.8374 23.1549 53.3641 24.0443 53.3641C25.0325 53.3641 26.2056 53.6935 26.961 54.1124C26.961 54.1124 27.1826 54.2563 27.2639 54.0404C27.3085 53.9253 27.691 52.8924 27.7309 52.7805C27.7739 52.659 27.6974 52.5694 27.6193 52.5215C26.757 51.9954 25.5648 51.6357 24.3312 51.6357L24.1017 51.6373C22.001 51.6373 20.5347 52.91 20.5347 54.7344V54.7727C20.5347 56.6962 22.1524 57.3198 23.6682 57.7547L23.912 57.8298L23.9153 57.8309C25.0185 58.171 25.9681 58.4638 25.9681 59.2433V59.2816C25.9681 59.9948 25.3497 60.5256 24.3519 60.5256C23.9646 60.5256 22.7294 60.5176 21.3953 59.6718C21.3029 59.6176 21.2326 59.5719 21.1659 59.5286C21.1165 59.4964 21.0689 59.4655 21.016 59.4335C20.9506 59.392 20.7865 59.32 20.7148 59.5375L20.2621 60.7974ZM53.8929 61.0338C53.8594 61.0021 53.8039 60.9496 53.862 60.7974L54.3146 59.5375C54.3815 59.3312 54.576 59.4064 54.6174 59.4335C54.6438 59.4506 54.669 59.467 54.6938 59.4833C54.7833 59.5418 54.8692 59.598 54.9952 59.6718C56.3292 60.5176 57.5645 60.5256 57.9518 60.5256C58.9495 60.5256 59.5695 59.9948 59.5695 59.2816V59.2433C59.5695 58.4643 58.6195 58.1714 57.5173 57.8315L57.268 57.7547C55.7523 57.3198 54.1345 56.6962 54.1345 54.7727V54.7344C54.1345 52.91 55.6008 51.6373 57.7015 51.6373L57.931 51.6357C59.1647 51.6357 60.3569 51.9954 61.2192 52.5215C61.2973 52.5694 61.3738 52.659 61.3307 52.7805C61.2909 52.8924 60.9084 53.9253 60.8637 54.0404C60.7824 54.2563 60.5609 54.1124 60.5609 54.1124C59.8054 53.6935 58.6323 53.3641 57.6442 53.3641C56.7548 53.3641 56.181 53.8374 56.181 54.4801V54.5201C56.181 55.2713 57.1622 55.5912 58.2997 55.962L58.4969 56.0263C60.0062 56.5043 61.6144 57.1663 61.6144 58.989V59.0274C61.6144 60.9989 60.1895 62.2236 57.8944 62.2236C56.7675 62.2236 55.6901 62.0462 54.5489 61.4386C54.504 61.4129 54.4592 61.3877 54.4144 61.3626C54.2449 61.2676 54.0761 61.173 53.9098 61.0516C53.9059 61.0461 53.8999 61.0404 53.8929 61.0338ZM78.7155 54.87C78.5274 54.232 78.2342 53.6692 77.8437 53.2007C77.4532 52.7306 76.9591 52.3533 76.3725 52.0783C75.7876 51.8049 75.0959 51.6657 74.3197 51.6657C73.5419 51.6657 72.8501 51.8049 72.2652 52.0783C71.6787 52.3533 71.1846 52.7306 70.7925 53.2007C70.4036 53.6708 70.1103 54.2336 69.9207 54.87C69.7342 55.5047 69.6401 56.1986 69.6401 56.9357C69.6401 57.6728 69.7342 58.3684 69.9207 59.0015C70.1103 59.6379 70.402 60.2007 70.7941 60.6708C71.1846 61.1409 71.6803 61.5166 72.2652 61.7836C72.8517 62.0506 73.5419 62.1865 74.3197 62.1865C75.0959 62.1865 75.786 62.0506 76.3725 61.7836C76.9575 61.5166 77.4532 61.1409 77.8437 60.6708C78.2342 60.2023 78.5274 59.6395 78.7155 59.0015C78.9036 58.3668 78.9976 57.6712 78.9976 56.9357C78.9976 56.2002 78.9036 55.5047 78.7155 54.87ZM94.2039 60.047C94.2039 60.047 94.384 59.9767 94.4477 60.1638L94.9179 61.4669C94.9785 61.6284 94.8398 61.6955 94.8398 61.6955C94.1162 61.9817 93.1089 62.1816 92.1271 62.1816C90.4663 62.1816 89.1928 61.7003 88.3449 60.7538C87.4986 59.8104 87.0698 58.5217 87.0698 56.9276C87.0698 56.1905 87.175 55.4934 87.3822 54.8586C87.591 54.2222 87.9034 53.6594 88.3146 53.1893C88.7258 52.7193 89.2454 52.3419 89.8575 52.0685C90.4711 51.7935 91.1883 51.656 91.9932 51.656C92.5319 51.656 93.0164 51.6896 93.4308 51.7535C93.8739 51.8207 94.4605 51.979 94.7091 52.0765C94.7537 52.0941 94.8781 52.1564 94.827 52.3019C94.7058 52.6507 94.6095 52.9167 94.5077 53.1979L94.5073 53.1992L94.5058 53.2034C94.4584 53.3343 94.4098 53.4686 94.3569 53.6162C94.2851 53.8145 94.1337 53.749 94.1337 53.749C93.5026 53.5491 92.9001 53.458 92.1096 53.458C91.1612 53.458 90.4504 53.7761 89.9834 54.3965C89.5132 55.0201 89.2518 55.8387 89.2486 56.9276C89.2454 58.1236 89.5419 59.0078 90.071 59.5546C90.5986 60.1014 91.3349 60.378 92.2626 60.378C92.6403 60.378 92.9925 60.3524 93.3129 60.3029C93.6285 60.2533 93.9249 60.1542 94.2039 60.047ZM104.25 54.5075C104.087 53.8919 103.684 53.2699 103.42 52.9853C103.002 52.5344 102.594 52.2194 102.189 52.0436C101.66 51.8165 101.026 51.6662 100.331 51.6662C99.521 51.6662 98.7862 51.8021 98.1901 52.0835C97.5925 52.3649 97.0904 52.7487 96.6967 53.2268C96.303 53.7032 96.0066 54.2708 95.8185 54.9152C95.6288 55.5564 95.5332 56.2551 95.5332 56.9922C95.5332 57.7421 95.632 58.4408 95.8281 59.0692C96.0257 59.7023 96.3413 60.2603 96.7684 60.7224C97.194 61.1877 97.7423 61.5523 98.3989 61.8065C99.0508 62.0591 99.843 62.1902 100.753 62.1886C102.626 62.1822 103.612 61.7633 104.019 61.5379C104.091 61.4979 104.159 61.4276 104.073 61.2261L103.649 60.0349C103.585 59.8574 103.405 59.923 103.405 59.923C103.381 59.932 103.356 59.9414 103.331 59.9512L103.279 59.971C102.82 60.1474 102.147 60.4056 100.743 60.4027C99.7378 60.4011 98.9919 60.1037 98.5249 59.6384C98.0451 59.1619 97.8108 58.4616 97.7694 57.4735L104.255 57.4799C104.255 57.4799 104.425 57.4767 104.443 57.3104L104.444 57.2981L104.447 57.2804C104.475 57.069 104.638 55.8751 104.25 54.5075ZM51.4813 52.9853C51.7459 53.2699 52.1476 53.8919 52.3101 54.5075C52.6997 55.8752 52.5372 57.069 52.5084 57.2803L52.5055 57.302L52.5046 57.3104C52.487 57.4767 52.3165 57.4799 52.3165 57.4799L45.8311 57.4735C45.8726 58.4616 46.1069 59.1619 46.5866 59.6384C47.0536 60.1037 47.7995 60.4011 48.8037 60.4027C50.2096 60.4056 50.8808 60.1477 51.3399 59.9713C51.3841 59.9544 51.4263 59.9381 51.467 59.923C51.467 59.923 51.6471 59.8574 51.7124 60.0349L52.1348 61.2261C52.2209 61.4276 52.1523 61.4979 52.0806 61.5379C51.6742 61.7633 50.6876 62.1822 48.8148 62.1886C47.9047 62.1902 47.1126 62.0591 46.4607 61.8065C45.804 61.5523 45.2558 61.1877 44.8302 60.7224C44.4031 60.2603 44.0875 59.7023 43.8898 59.0692C43.6938 58.4408 43.595 57.7421 43.595 56.9922C43.595 56.2551 43.6922 55.5564 43.8803 54.9152C44.0683 54.2708 44.3648 53.7032 44.7585 53.2268C45.1522 52.7487 45.6542 52.3649 46.2519 52.0835C46.848 51.8021 47.5844 51.6662 48.3924 51.6662C49.0874 51.6662 49.7217 51.8165 50.2509 52.0436C50.6557 52.2194 51.0637 52.5344 51.4813 52.9853ZM34.424 55.5568C34.161 55.5377 33.8199 55.5265 33.4119 55.5265C32.8556 55.5265 32.3185 55.5968 31.8148 55.7327C31.308 55.8686 30.8521 56.0813 30.4601 56.3627C30.0664 56.6457 29.7492 57.0071 29.5197 57.4356C29.2902 57.8641 29.1738 58.3693 29.1738 58.9353C29.1738 59.5109 29.2726 60.0114 29.4703 60.4207C29.6679 60.8316 29.9532 61.1738 30.3166 61.4376C30.6768 61.7014 31.1215 61.8949 31.6379 62.0116C32.1464 62.1284 32.7233 62.1875 33.3545 62.1875C34.0191 62.1875 34.6822 62.1332 35.3245 62.0228C35.9604 61.9141 36.7414 61.7558 36.9582 61.7062C37.1733 61.6551 37.4124 61.5895 37.4124 61.5895C37.5734 61.5496 37.5606 61.3769 37.5606 61.3769L37.5575 55.4273C37.5575 54.1226 37.21 53.1553 36.5262 52.5557C35.8457 51.9577 34.8431 51.6555 33.5473 51.6555C33.0612 51.6555 32.2786 51.7227 31.81 51.817C31.81 51.817 30.3931 52.092 29.8098 52.5493C29.8098 52.5493 29.6823 52.6292 29.7524 52.8083L30.2114 54.0459C30.2688 54.2058 30.4234 54.1514 30.4234 54.1514C30.4234 54.1514 30.4728 54.1322 30.5302 54.0986C31.7782 53.4175 33.3561 53.4383 33.3561 53.4383C34.0574 53.4383 34.5961 53.579 34.9595 53.8588C35.3133 54.1306 35.4934 54.5415 35.4934 55.4081V55.6832C34.9356 55.6032 34.424 55.5568 34.424 55.5568ZM86.6338 51.9711C86.6768 51.9871 86.7804 52.0575 86.731 52.2046C86.6704 52.3821 86.3549 53.2726 86.2433 53.57C86.2018 53.6836 86.1317 53.7603 86.0074 53.7459C86.0074 53.7459 85.6344 53.658 85.295 53.658C85.0591 53.658 84.7259 53.6884 84.4247 53.7811C84.1299 53.8722 83.8605 54.0337 83.623 54.264C83.3871 54.4958 83.1959 54.8188 83.0556 55.2217C82.9121 55.6294 82.8404 56.2786 82.8404 56.9293V61.7772C82.8404 61.886 82.7528 61.9755 82.6444 61.9755H80.9406C80.8322 61.9755 80.7429 61.886 80.7429 61.7772V52.0735C80.7429 51.9631 80.821 51.8752 80.9294 51.8752H82.5918C82.7002 51.8752 82.7783 51.9631 82.7783 52.0735V52.8649C83.0269 52.5308 83.4732 52.2366 83.8748 52.0543C84.2797 51.872 84.7323 51.7345 85.5468 51.7841C85.9723 51.8113 86.5238 51.928 86.6338 51.9711ZM70.7381 47.7072C70.5309 47.6432 70.3428 47.6001 70.0974 47.5537C69.8487 47.5089 69.5523 47.4865 69.216 47.4865C68.0429 47.4865 67.1185 47.8191 66.4698 48.4747C65.8243 49.127 65.386 50.1199 65.166 51.4262L65.0863 51.8659H63.6136C63.6136 51.8659 63.4351 51.8595 63.3969 52.0546L63.1562 53.4089C63.1387 53.5368 63.1944 53.6183 63.3666 53.6183H64.7994L63.3458 61.76C63.2327 62.4155 63.102 62.9544 62.957 63.3637C62.8151 63.7666 62.6764 64.0688 62.5043 64.2894C62.3385 64.5005 62.1823 64.6572 61.9114 64.7483C61.6883 64.8235 61.43 64.8587 61.1479 64.8587C60.9917 64.8587 60.7829 64.8331 60.6283 64.8011C60.4753 64.7707 60.394 64.7371 60.2777 64.6876C60.2777 64.6876 60.1103 64.6236 60.0434 64.7915C59.9908 64.9306 59.6083 65.9843 59.5621 66.1138C59.5174 66.2433 59.5812 66.344 59.6625 66.3744C59.8537 66.4416 59.9956 66.4863 60.2554 66.5487C60.6156 66.6334 60.92 66.6382 61.2053 66.6382C61.8014 66.6382 62.3465 66.5535 62.7976 66.3904C63.2502 66.2257 63.6455 65.9395 63.9961 65.5526C64.3739 65.1337 64.6114 64.6956 64.8377 64.096C65.0624 63.5044 65.2553 62.7689 65.4083 61.9119L66.8698 53.6183H69.0056C69.0056 53.6183 69.1857 53.6247 69.2224 53.4281L69.4646 52.0754C69.4806 51.9459 69.4264 51.8659 69.2526 51.8659H67.1791C67.1794 51.8644 67.1799 51.862 67.1805 51.8588C67.1824 51.8484 67.1854 51.8296 67.1895 51.8034C67.2209 51.6053 67.3191 50.986 67.5217 50.3981C67.6237 50.1055 67.815 49.8673 67.976 49.7042C68.1354 49.5443 68.3186 49.4308 68.5195 49.3652C68.7251 49.2981 68.9594 49.2661 69.216 49.2661C69.4104 49.2661 69.6033 49.2885 69.7483 49.3189C69.9492 49.3621 70.0272 49.3844 70.0798 49.4004C70.2918 49.4644 70.3205 49.402 70.362 49.2997L70.8576 47.9342C70.9086 47.7871 70.7827 47.7248 70.7381 47.7072ZM41.5795 61.9744C41.6878 61.9744 41.7659 61.8864 41.7659 61.7777V47.8928C41.7659 47.7841 41.6878 47.6961 41.5795 47.6961H39.8597C39.7513 47.6961 39.6748 47.7841 39.6748 47.8928V61.7777C39.6748 61.8864 39.7513 61.9744 39.8597 61.9744H41.5795Z" fill="#00A1E0"/>
</svg>
