<svg width="120" height="120" viewBox="0 0 120 120" fill="none" xmlns="http://www.w3.org/2000/svg">
<path d="M41.4796 64.4412C42.5755 64.8366 43.6714 65.0625 44.9865 65.0625C46.3015 65.0625 47.3974 64.8496 48.4933 64.476L44.9865 53.5103L41.4796 64.4412Z" fill="#014185"/>
<path d="M68.6577 58.7759H71.0687C74.3563 58.7759 76.9865 57.7136 76.9865 54.3249C76.9865 51.0295 74.3563 49.9629 71.0687 49.9629H68.6577V58.7759Z" fill="#014185"/>
<path fill-rule="evenodd" clip-rule="evenodd" d="M61 87H4V32H116L61 87ZM59.4522 42.8139L70.4111 42.8161C81.1508 42.8161 85.9728 46.5415 85.9728 54.6572C85.9728 61.9474 80.9317 66.2942 72.3837 66.2942H68.6577V76.7842H52.4385L50.6851 71.7683C48.9317 72.3201 47.1783 72.6481 44.9865 72.6481C42.7947 72.6481 40.8221 72.3092 39.0687 71.7271L37.5344 76.7842H27.4522L28.5481 73.8668C28.4363 73.9222 28.3816 73.9776 28.3257 74.0341C28.2719 74.0884 28.2172 74.1438 28.1098 74.2013C25.6988 76.1955 22.4111 77.2925 18.6851 77.362L18.0276 77.3663C13.644 77.3663 9.26045 76.1455 5.53442 74.0688L9.04127 67.3673C12.7673 69.5244 14.9591 70.0088 18.0276 69.9523C19.781 69.9154 20.8769 69.6199 21.7536 68.8401C22.192 68.3687 22.4111 67.7822 22.4111 67.137C22.4111 65.3905 20.0002 64.5759 16.9317 63.6353C14.3015 62.8728 11.6714 61.8323 9.26045 60.2357C6.84949 58.3393 5.53442 55.9584 5.53442 52.6022C5.53442 50.1628 6.63031 47.9622 8.16456 46.2287C10.5755 43.7371 14.5207 42.2339 19.3426 42.2339C23.2878 42.2382 28.1098 43.37 31.8358 45.16L27.8906 51.7789C23.9454 49.9151 21.9728 49.7348 19.781 49.624C16.4933 49.4502 14.9591 50.6146 14.9591 51.8832C14.7399 53.4125 18.0276 54.8115 20.8769 55.7629C25.4796 57.1792 31.1783 59.0713 32.055 64.5455L40.3837 42.8139H49.8084L59.4522 68.7988V42.8139Z" fill="#014185"/>
<path d="M74.8235 83.4733C74.8235 81.8252 76.0588 80.5693 77.5 80.5693C78.9412 80.5693 80.1765 81.8252 80.1765 83.4733C80.1765 85.1834 78.9412 86.4158 77.5 86.4158C76.0588 86.4158 74.8235 85.1834 74.8235 83.4733ZM77.5 87C79.3529 87 81 85.5053 81 83.4733C81 81.4712 79.3529 80 77.5 80C75.6471 80 74 81.4712 74 83.4733C74 85.5053 75.6471 87 77.5 87ZM76.8824 83.7655H77.5L78.5294 85.5053H79.1471L78.1176 83.7313C78.5294 83.6588 79.1471 83.3454 79.1471 82.629C79.1471 81.8252 78.5294 81.4712 77.7059 81.4712H76.2647V85.5053H76.8824V83.7655ZM76.8824 83.2452V81.9851H77.7059C77.9118 81.9851 78.5294 82.0832 78.5294 82.5928C78.5294 83.2047 77.9118 83.2452 77.5 83.2452H76.8824Z" fill="#014185"/>
</svg>
