<svg width="150" height="108" viewBox="0 0 150 108" fill="none" xmlns="http://www.w3.org/2000/svg">
<path d="M50.0571 91.1431C51.0242 92.0162 51.4272 93.3654 51.4272 94.9528V106.381V107.016H50.7825H47.8811H47.2365V106.381V95.1114C47.2365 94.794 47.2365 94.5558 47.1559 94.3178C47.0754 94.0797 46.9946 93.9209 46.9141 93.7622C46.7529 93.5242 46.5111 93.4448 46.2693 93.3654C45.7052 93.2066 45.2216 93.1273 44.6576 93.2066C42.9652 93.2066 41.9982 93.3654 41.5952 93.6829C41.2728 93.8416 41.031 94.3178 41.031 95.1908V106.46V107.096H40.3864H37.4851H36.8403V106.46V90.9051V90.2702H37.4851H40.3864H41.031V90.9051C41.1921 90.8257 41.434 90.667 41.5952 90.5876C42.5622 90.1908 43.8517 89.9527 45.4634 89.9527C47.4782 89.8733 49.09 90.1908 50.0571 91.1431ZM9.92325 93.7622H7.42495C6.1355 93.7622 5.41022 93.6035 5.08788 93.3654C4.76543 93.2066 4.60432 92.8893 4.60432 92.3337V89.9527C4.60432 89.159 4.84617 88.7622 5.24911 88.5241C5.49083 88.3655 5.89378 88.2861 6.45795 88.2067C7.10262 88.1273 7.90851 88.0479 8.87564 88.0479C10.1651 88.0479 12.0186 88.2067 14.3557 88.6035L15.0811 88.6829V87.9686V85.5877V85.032L14.5169 84.9528C12.744 84.7146 10.8904 84.6352 9.11735 84.5558C5.97439 84.5558 3.6372 84.9528 2.34774 85.8257C0.977671 86.7781 0.333008 88.2067 0.333008 90.0321L0.333008 91.6988C0.333008 93.4448 0.735954 94.8734 1.78369 95.9051C2.8313 96.9369 4.52371 97.3336 6.61906 97.3336H9.03674C10.3262 97.3336 11.0516 97.4924 11.3739 97.7304C11.6157 97.9686 11.8574 98.3653 11.8574 99.0796V101.778C11.8574 102.175 11.7768 102.493 11.6157 102.731C11.4544 102.969 11.3739 103.128 11.0515 103.207C10.4068 103.525 9.35907 103.683 7.90851 103.683C6.1355 103.683 3.95953 103.445 1.46123 102.89L0.65534 102.731L0.65534 103.525V106.143L0.65534 106.699L1.21952 106.778C3.31487 107.096 5.49083 107.254 7.66679 107.334C10.4068 107.334 12.5022 106.937 13.9527 105.984C15.4839 104.952 16.1287 103.207 16.1287 100.826V99.3178C16.1287 97.5718 15.7257 96.1432 14.7586 95.1908C13.7916 94.1591 12.0992 93.7622 9.92325 93.7622ZM33.2943 95.8257V99.2384V99.8733H32.6496H22.8982V101.54C22.8982 102.493 23.2206 102.969 23.7041 103.287C24.3489 103.683 25.316 103.922 26.7665 103.922C28.2172 103.922 29.829 103.683 31.8437 103.207L32.6496 102.969V103.763V105.984V106.46L32.1661 106.54C30.3124 106.937 28.2977 107.175 26.4442 107.175C24.0265 107.175 22.0924 106.778 20.7223 105.905C19.3523 104.952 18.627 103.604 18.627 101.778L18.627 95.667C18.627 93.6829 19.1912 92.0162 20.5612 91.0638C21.8507 90.1115 23.7042 89.7147 26.2025 89.7147C28.5396 89.7147 30.3126 90.1114 31.5214 90.9844C32.8109 92.0956 33.2943 93.7622 33.2943 95.8257ZM29.1037 94.8734C29.1037 94.0797 28.8619 93.6828 28.5396 93.4448C28.1366 93.2066 27.3307 93.0479 25.9606 93.0479C24.6712 93.0479 23.8654 93.2066 23.4625 93.4448C23.14 93.6035 22.8982 94.0003 22.8982 94.8734L22.8982 96.6987H29.1037L29.1037 94.8734ZM69.4793 84.8734H70.1241V85.5083V106.381V107.016H69.4793H66.6587H66.0139V106.381C65.8526 106.46 65.6915 106.54 65.5303 106.619C64.4827 107.096 63.1126 107.334 61.4203 107.334C59.1638 107.334 57.3908 107.016 56.2625 106.143C55.1343 105.27 54.6507 103.683 54.6507 101.778V94.9528C54.6507 93.286 55.2148 91.9368 56.343 91.0638C57.4714 90.2702 59.2443 89.9527 61.5815 89.9527C62.7903 89.9527 63.9991 90.1115 65.1274 90.4288C65.3692 90.5082 65.6915 90.5876 65.9333 90.7464C65.9333 89.8733 65.9333 89.159 65.9333 88.6035V85.5877V84.9528H66.578H68.8345H69.4793V84.8734ZM65.9333 94.6352C65.9333 94.2385 65.7722 93.9209 65.208 93.6829C64.6438 93.3654 63.6768 93.2066 62.3067 93.2066C61.5008 93.2066 60.7756 93.2066 60.292 93.286C59.7278 93.3654 59.4056 93.4448 59.2444 93.5242C59.0832 93.6035 58.8414 93.8416 58.8414 94.6352V102.334C58.8414 103.048 59.0832 103.445 59.4055 103.683C59.8084 103.922 60.6951 104.158 62.065 104.158C63.5963 104.158 64.6438 104 65.208 103.683C65.6915 103.445 65.9333 103.048 65.9333 102.413V94.6352ZM130.888 97.6512C129.921 96.9369 128.552 96.6194 126.779 96.6194H126.134H125.006C124.119 96.6194 123.475 96.4606 123.152 96.302C122.91 96.1432 122.75 95.9844 122.75 95.667V94.3178C122.75 93.8416 122.91 93.5242 123.233 93.3654C123.636 93.1273 124.523 92.9685 126.054 92.9685C127.665 92.9685 129.196 93.1273 130.809 93.4448L131.534 93.6035V92.8099V90.7464V90.1115H130.888C128.229 89.9527 126.698 89.8733 126.134 89.8733C123.798 89.8733 121.944 90.1908 120.654 90.8257C119.283 91.54 118.558 92.6511 118.558 94.1591V95.5877C118.558 96.9369 119.042 98.0479 120.01 98.8416C120.977 99.6353 122.427 100.032 124.119 100.032H125.892C126.859 100.032 127.423 100.191 127.746 100.35C127.988 100.508 128.148 100.746 128.148 101.223V102.81C128.148 103.128 128.148 103.287 127.988 103.445C127.907 103.604 127.827 103.683 127.585 103.763C127.021 104 126.215 104.079 124.925 104.079C123.958 104.079 122.185 103.922 119.606 103.445L118.881 103.287V104.001V106.222V106.778L119.445 106.857C121.218 107.096 123.071 107.254 124.844 107.254C127.101 107.254 128.874 106.937 130.163 106.222C131.615 105.429 132.259 104 132.259 102.175V100.826C132.34 99.5559 131.936 98.3655 130.888 97.6512ZM111.789 84.8734H111.145V85.5083V106.381V107.016H111.789H114.691H115.335V106.381V85.5083V84.8734H114.691H111.789ZM103.73 90.1908H103.086V90.8257V102.572C103.086 103.207 102.844 103.445 102.521 103.604C102.038 103.842 101.071 104.001 99.4587 104.001C98.8947 104.001 98.4111 103.922 97.8469 103.842C97.5246 103.763 97.3635 103.683 97.2023 103.445C97.041 103.287 96.9604 103.128 96.9604 102.89C96.8799 102.651 96.8799 102.334 96.8799 102.096V90.8257V90.1908H96.2352H93.3339H92.6892V90.8257V102.255C92.6892 103.842 93.0922 105.19 94.0593 106.064C95.0263 107.016 96.6382 107.334 98.7336 107.334C100.345 107.334 101.634 107.175 102.602 106.699C102.844 106.619 103.005 106.54 103.165 106.381V107.016H103.811H106.712H107.357V106.381V90.8257V90.1908H106.712H103.73ZM89.0627 87.4924C89.385 88.1273 89.5463 88.921 89.5463 89.6353V94.0003C89.5463 95.9844 88.7404 97.4924 87.1285 98.3655C85.5973 99.159 83.5019 99.5559 80.923 99.5559H78.4247V106.46V107.096H77.7801H74.6371H73.9923V106.46V85.5877V84.9528H74.6371H81.4066C82.2931 84.9528 83.0184 84.9528 83.6632 85.032C84.3885 85.1114 85.0331 85.1908 85.7584 85.3495C86.4032 85.5083 87.048 85.7463 87.612 86.1432C88.2568 86.3813 88.7404 86.9369 89.0627 87.4924ZM85.1944 89.9527C85.1944 89.5559 85.1137 89.2384 84.872 88.921C84.6302 88.6035 84.3078 88.4447 83.9855 88.3653C83.5826 88.2067 83.1796 88.1273 82.6961 88.1273C82.3737 88.1273 81.8902 88.0479 81.326 88.0479H78.5054V96.1432H81.4066C82.6156 96.1432 83.5019 95.9844 84.2273 95.5083C84.872 95.1908 85.1944 94.6352 85.1944 93.6829V89.9527ZM149.666 95.8257V99.2384V99.8733H149.022H139.27V101.54C139.27 102.493 139.593 102.969 140.076 103.287C140.72 103.683 141.688 103.922 143.139 103.922C144.589 103.922 146.201 103.683 148.216 103.207L149.022 102.969V103.763V105.984V106.46L148.538 106.54C146.685 106.937 144.67 107.175 142.816 107.175C140.399 107.175 138.464 106.778 137.095 105.905C135.724 104.952 134.999 103.604 134.999 101.778V95.667C134.999 93.6829 135.563 92.0162 136.933 91.0638C138.222 90.1115 140.076 89.7147 142.574 89.7147C144.912 89.7147 146.685 90.1114 147.893 90.9844C149.183 92.0956 149.666 93.7622 149.666 95.8257ZM145.476 94.8734C145.476 94.0797 145.234 93.6828 144.912 93.4448C144.508 93.2066 143.703 93.0479 142.333 93.0479C141.043 93.0479 140.237 93.2066 139.834 93.4448C139.512 93.6035 139.27 94.0003 139.27 94.8734V96.6987H145.476V94.8734ZM106.39 46.2226C107.195 45.8257 108.001 45.3495 108.647 44.6352C109.291 44.0003 109.774 43.2066 110.097 42.3337C110.42 41.4607 110.499 40.5082 110.499 39.6353C110.42 38.6829 110.178 37.8098 109.774 37.0161C109.372 36.2226 108.807 35.5083 108.082 34.8734C107.357 34.3178 106.551 33.8416 105.664 33.6035C104.778 33.3654 103.891 33.286 102.924 33.3654C102.844 33.3654 102.763 33.3654 102.682 33.3654C102.44 33.3654 102.199 33.4448 101.957 33.5242H101.876C101.634 33.6035 101.312 33.6828 101.071 33.8416C100.99 33.8416 100.99 33.9209 100.909 33.9209C100.668 34.0003 100.426 34.1591 100.265 34.3177C100.265 34.3177 100.184 34.3178 100.184 34.3971C99.7006 34.7146 99.217 35.1114 98.8141 35.5877C98.4111 36.0638 98.0888 36.54 97.7663 37.0955H85.1944L80.6813 0.666992L74.2342 0.666992L59.728 55.7463L55.0537 36.0638H38.4521V42.0162H50.2988L56.5044 67.8892H62.7903L76.3294 17.2543L79.7948 43.0479H97.6858C97.9276 43.6035 98.3306 44.0797 98.7336 44.5559C99.1365 45.032 99.62 45.3495 100.104 45.7463C100.104 45.7463 100.184 45.7463 100.184 45.8257C100.426 45.9844 100.668 46.0638 100.829 46.2226C100.909 46.2226 100.909 46.302 100.99 46.302C101.232 46.3812 101.554 46.54 101.796 46.6194H101.876C102.118 46.6987 102.361 46.6987 102.602 46.7781C102.682 46.7781 102.763 46.7781 102.844 46.7781C103.165 46.8575 103.407 46.8575 103.73 46.8575C104.617 46.7781 105.584 46.54 106.39 46.2226Z" fill="#009FC1"/>
</svg>
