<svg width="48" height="48" viewBox="0 0 48 48" fill="none" xmlns="http://www.w3.org/2000/svg">
<g clip-path="url(#clip0)">
<path d="M23.2137 46.0003V39.6882C15.1594 39.2785 8.72179 32.8409 8.31168 24.7866H2C2.42546 36.3218 11.6785 45.5748 23.2137 46.0003Z" fill="#FBEC9E"/>
<path d="M28 24C28 26.209 26.209 28 24 28C21.7908 28 20 26.209 20 24C20 21.7908 21.7908 20 24 20C26.209 20 28 21.7908 28 24Z" fill="#59DED6"/>
<path d="M23.2139 31.824C19.4953 31.4454 16.5547 28.5052 16.1761 24.7866H9.88477C10.2914 31.9727 16.0275 37.7091 23.2139 38.1154V31.824Z" fill="white"/>
<path d="M16.1761 23.2134C16.5547 19.4948 19.4953 16.5542 23.2139 16.1756V9.88428C16.0275 10.2909 10.2914 16.027 9.88477 23.2134H16.1761Z" fill="white"/>
<path d="M8.31168 23.2137C8.72179 15.1594 15.1594 8.72179 23.2137 8.31168V2C11.6785 2.42546 2.42546 11.6785 2 23.2137H8.31168Z" fill="#192966"/>
<path d="M24.7861 2V8.31168C32.8404 8.72179 39.278 15.1594 39.6877 23.2137H45.9998C45.5743 11.6785 36.3213 2.42546 24.7861 2Z" fill="#59DED6"/>
<path d="M39.6877 24.7866C39.278 32.8409 32.8404 39.2785 24.7861 39.6882V46.0003C36.3213 45.5748 45.5743 36.3218 45.9998 24.7866H39.6877Z" fill="#F5692D"/>
<path d="M24.7861 9.88428V16.1756C28.5047 16.5542 31.4449 19.4948 31.8236 23.2134H38.1149C37.7086 16.027 31.9722 10.2909 24.7861 9.88428Z" fill="#59DED6"/>
<path d="M24.7861 31.824V38.1154C31.9722 37.7091 37.7086 31.9727 38.1149 24.7866H31.8236C31.4449 28.5052 28.5047 31.4454 24.7861 31.824Z" fill="white"/>
</g>
<defs>
<clipPath id="clip0">
<rect width="44" height="44" fill="white" transform="translate(2 2)"/>
</clipPath>
</defs>
</svg>
