<svg width="80" height="80" viewBox="0 0 80 80" fill="none" xmlns="http://www.w3.org/2000/svg">
<g clip-path="url(#clip0)">
<path fill-rule="evenodd" clip-rule="evenodd" d="M76.4618 40.8492C76.4618 35.565 73.927 31.3955 69.0823 31.3955C64.2171 31.3955 61.2734 35.565 61.2734 40.8079C61.2734 47.0209 64.7486 50.1584 69.7364 50.1584C72.169 50.1584 74.0088 49.601 75.3988 48.8167V44.6884C74.0088 45.3902 72.4143 45.8237 70.3906 45.8237C68.4077 45.8237 66.6497 45.1219 66.4248 42.6862H76.4209C76.4209 42.4179 76.4618 41.3446 76.4618 40.8492ZM66.3635 38.8883C66.3635 36.5558 67.774 35.5857 69.0618 35.5857C70.3088 35.5857 71.6375 36.5558 71.6375 38.8883H66.3635Z" fill="#6772E5"/>
<path fill-rule="evenodd" clip-rule="evenodd" d="M53.3829 31.3955C51.3796 31.3955 50.0917 32.345 49.3763 33.0055L49.1105 31.7258H44.6133V55.7934L49.7238 54.6994L49.7442 48.858C50.4801 49.3946 51.5636 50.1584 53.3624 50.1584C57.0216 50.1584 60.3536 47.186 60.3536 40.6428C60.3332 34.6568 56.9602 31.3955 53.3829 31.3955ZM52.1564 45.6173C50.9503 45.6173 50.2348 45.1838 49.7442 44.6472L49.7238 36.9893C50.2553 36.3907 50.9912 35.9779 52.1564 35.9779C54.0166 35.9779 55.3044 38.0833 55.3044 40.7873C55.3044 43.5532 54.037 45.6173 52.1564 45.6173Z" fill="#6772E5"/>
<path fill-rule="evenodd" clip-rule="evenodd" d="M42.713 29.0632V24.873L37.582 25.967V30.1778L42.713 29.0632Z" fill="#6772E5"/>
<path d="M42.713 31.7461H37.582V49.8071H42.713V31.7461Z" fill="#6772E5"/>
<path fill-rule="evenodd" clip-rule="evenodd" d="M32.0824 33.274L31.7553 31.7466H27.3398V49.8076H32.4503V37.5674C33.6564 35.978 35.7006 36.267 36.3343 36.494V31.7466C35.6802 31.4989 33.2885 31.0448 32.0824 33.274Z" fill="#6772E5"/>
<path fill-rule="evenodd" clip-rule="evenodd" d="M21.8618 27.2676L16.874 28.3409L16.8535 44.8745C16.8535 47.9294 19.1226 50.1793 22.148 50.1793C23.8242 50.1793 25.0507 49.8697 25.7253 49.4981V45.308C25.0712 45.5763 21.8414 46.5258 21.8414 43.4709V36.1433H25.7253V31.7467H21.8414L21.8618 27.2676Z" fill="#6772E5"/>
<path fill-rule="evenodd" clip-rule="evenodd" d="M8.04292 36.9893C8.04292 36.1843 8.69706 35.8746 9.78049 35.8746C11.3341 35.8746 13.2965 36.3494 14.8501 37.1957V32.345C13.1534 31.6638 11.4772 31.3955 9.78049 31.3955C5.63076 31.3955 2.87109 33.5835 2.87109 37.237C2.87109 42.9339 10.639 42.0257 10.639 44.482C10.639 45.4315 9.82137 45.7411 8.67662 45.7411C6.97993 45.7411 4.81308 45.0393 3.09596 44.0898V49.0024C4.99706 49.8281 6.91861 50.179 8.67662 50.179C12.9286 50.179 15.8518 48.053 15.8518 44.3582C15.8313 38.2071 8.04292 39.3011 8.04292 36.9893Z" fill="#6772E5"/>
</g>
<defs>
<clipPath id="clip0">
<rect width="74.6667" height="31.3333" fill="white" transform="translate(2.66699 24.667)"/>
</clipPath>
</defs>
</svg>
