<svg width="77" height="42" viewBox="0 0 77 42" fill="none" xmlns="http://www.w3.org/2000/svg">
<path d="M15.9896 23.9352V17.1785H13.4443V23.9352H15.9896Z" fill="white"/>
<path d="M16.0574 17.1108H13.376V24.0026L16.0574 24.0027V17.1108ZM15.921 17.2456V23.8679L13.5124 23.8678V17.2456H15.921ZM45.2744 17.1782L41.8411 17.1786L40.7842 19.9755C40.6974 20.2069 40.6719 20.6489 40.6719 20.6489C40.6719 20.6489 40.6351 20.2001 40.551 19.9755L39.5028 17.1786L36.0821 17.1782L36.0789 23.9362L38.2741 23.9353V19.9153C38.2741 19.9153 38.2741 20.1539 38.3677 20.3689L39.9214 23.9362H41.4224L42.9762 20.2863C43.0684 20.0699 43.0684 19.8314 43.0684 19.8314V23.9352H45.2744V17.1782Z" fill="white"/>
<path d="M38.3424 24.0027L38.3424 20.481L39.8767 24.0037H41.4679L43.0003 20.4037L43.0003 24.0026H45.3427V17.1108L41.7939 17.1112L40.7204 19.9519L40.7162 19.9634C40.6998 20.0092 40.6852 20.0625 40.6721 20.1222L40.668 20.1414L40.6664 20.134C40.6508 20.0633 40.6338 20.0021 40.6151 19.9521L39.5504 17.1112L36.0141 17.1108L36.0107 24.0037L38.3424 24.0027ZM36.1504 17.2456L39.4554 17.246L40.4872 19.9989C40.5112 20.063 40.5332 20.153 40.5527 20.2615C40.5681 20.3472 40.581 20.4395 40.5916 20.5317L40.5951 20.5632C40.5967 20.5786 40.5983 20.5933 40.5996 20.6072L40.604 20.6543L40.7401 20.6528L40.7424 20.6189C40.7434 20.6055 40.7446 20.5899 40.7461 20.5723C40.7509 20.5162 40.757 20.4572 40.7645 20.3976L40.7667 20.38C40.7873 20.2222 40.8146 20.0888 40.8483 19.999L41.8885 17.246L45.2063 17.2456V23.8678H43.1367V19.8321L43.0003 19.8317L43 19.8443C42.9998 19.8526 42.9993 19.863 42.9985 19.8752C42.9966 19.9064 42.9933 19.9405 42.9883 19.9765L42.9854 19.9965C42.9711 20.0897 42.9477 20.1798 42.9134 20.2602L41.3773 23.8688H39.9664L38.4305 20.3423C38.3938 20.258 38.3693 20.1627 38.3551 20.0639C38.3499 20.0281 38.3465 19.994 38.3444 19.9626L38.3435 19.9483C38.3428 19.9348 38.3425 19.924 38.3424 19.9161L38.206 19.9167L38.206 23.868L36.1472 23.8688L36.1504 17.2456ZM64.2651 17.1782H61.8631V20.8884C61.8631 20.8884 61.8631 20.6498 61.7054 20.4683L58.8511 17.1782H56.3204V23.9352H58.8511V20.2259C58.8511 20.2259 58.8511 20.4639 59.0026 20.645L61.7509 23.9369L64.2651 23.9356V17.1782Z" fill="white"/>
<path d="M58.8821 17.1108H56.2518V24.0026H58.9189L58.9189 20.6481L58.9216 20.6519C58.9305 20.6642 58.9398 20.6762 58.9496 20.6879L61.7183 24.0043L64.3329 24.003V17.1108H61.7945L61.7945 20.4723L61.7855 20.4601C61.7764 20.4479 61.7668 20.436 61.7567 20.4244L58.8821 17.1108ZM64.1964 17.2456V23.8682L61.7826 23.8694L59.0548 20.6021C58.9975 20.5336 58.9595 20.45 58.9377 20.3592C58.9241 20.3027 58.9192 20.2553 58.9189 20.2258L58.7825 20.2265L58.7825 23.8678H56.3882V17.2456H58.8193L61.6532 20.5122C61.7121 20.5799 61.7513 20.6624 61.7741 20.752C61.7824 20.7846 61.788 20.816 61.7913 20.8454L61.7927 20.8586C61.7939 20.871 61.7944 20.881 61.7945 20.888L61.9309 20.887V17.2456H64.1964ZM55.4983 23.9362L52.0408 17.1791H49.3529L45.8955 23.9362H48.5834L49.2225 22.6864L52.1708 22.6869L52.8103 23.9362H52.9159V23.9367H55.2651L55.2646 23.9362H55.4983ZM49.8694 20.9759L50.5903 19.5622C50.6967 19.3533 50.6967 19.1152 50.6967 19.1152C50.6967 19.1152 50.6967 19.3533 50.8036 19.5631L51.5276 20.9826L49.8694 20.9759Z" fill="white"/>
<path d="M49.3115 17.1116H52.0833L55.6098 24.0035L55.4298 24.0034L55.4304 24.004H52.8482L52.8482 24.0034L52.769 24.0035L52.1294 22.7542L49.265 22.7536L48.6259 24.0035H45.7852L49.3115 17.1116ZM51.9994 17.2464H49.3954L46.007 23.8686H48.542L49.1811 22.6188L52.2133 22.6194L52.8528 23.8686L52.9846 23.8687L52.9846 23.8692H55.1011L55.1005 23.8687L55.3879 23.8686L51.9994 17.2464ZM50.6291 19.1145L50.7655 19.1158L50.7659 19.1295C50.7662 19.1384 50.7668 19.1491 50.7678 19.1616C50.7701 19.1925 50.774 19.2261 50.7799 19.2613C50.7949 19.3518 50.82 19.4388 50.8569 19.5161L50.865 19.5326L51.6391 21.0503L49.7594 21.0426L50.5299 19.5317C50.5706 19.4518 50.598 19.3605 50.6141 19.265C50.6201 19.23 50.6241 19.1964 50.6265 19.1653C50.6277 19.1506 50.6284 19.1379 50.6288 19.1274L50.6291 19.1145ZM50.6973 19.4865L50.6916 19.502C50.6822 19.5268 50.6718 19.5511 50.6605 19.5747L50.6517 19.5923L49.9804 20.9087L51.4171 20.9145L50.7432 19.5932C50.7281 19.5635 50.7146 19.5328 50.7027 19.5013L50.6973 19.4865Z" fill="white"/>
<path d="M20.7019 22.1329L20.7024 21.1958H24.52V19.6748H20.7019V18.8375H25.3488V17.1785H18.29V23.9352H25.5342V22.1334L20.7019 22.1329Z" fill="white"/>
<path d="M25.4164 17.1112L18.2209 17.1108V24.0026H25.6018V22.0661L20.7692 22.0657L20.7697 21.263L24.5872 21.263V19.6076L20.7696 19.6076V18.905L25.4164 18.905V17.1112ZM18.3573 17.2456L25.2799 17.246V18.7702L20.6332 18.7702V19.7424L24.4508 19.7424V21.1282L20.6334 21.1282L20.6328 22.2005L25.4654 22.2009V23.8678H18.3573V17.2456ZM2.13867 17.1777L5.79527 23.9444H8.74131L12.3496 17.1782H9.49227L7.45439 21.293C7.34898 21.5055 7.34898 21.7436 7.34898 21.7436C7.34898 21.7436 7.34898 21.5055 7.24082 21.2873L5.20347 17.1782L2.13867 17.1777Z" fill="white"/>
<path d="M5.24648 17.1108L2.02539 17.1102L5.75484 24.0117H8.78293L12.4632 17.1108H9.45019L7.39361 21.2633L7.38499 21.2812C7.37375 21.3052 7.36351 21.3298 7.35421 21.3549L7.34922 21.3687L7.34384 21.3537C7.3317 21.3208 7.31798 21.2888 7.30254 21.2576L5.24648 17.1108ZM2.25289 17.2451L5.16141 17.2456L7.18005 21.3169C7.22287 21.4033 7.25115 21.5002 7.26734 21.6C7.27739 21.6619 7.28104 21.7122 7.28125 21.7433L7.41765 21.7438L7.4179 21.7324C7.41825 21.722 7.41895 21.7089 7.42016 21.6934C7.4226 21.6621 7.42658 21.6284 7.43244 21.5931L7.43579 21.5739C7.45212 21.4845 7.47832 21.3988 7.51611 21.3226L9.53527 17.2456H12.2371L8.70062 23.8769H5.83665L2.25289 17.2451ZM34.3127 13.654L28.7019 13.6499C28.7019 13.6499 26.5014 13.7034 26.5014 15.8507C26.5014 18.0595 28.7019 18.0096 28.7019 18.0096L32.0361 18.0051C32.0361 18.0051 32.4762 18.0051 32.4762 18.4611C32.4762 18.856 32.0348 18.856 32.0348 18.856H26.655V20.709L32.2294 20.7094C32.2294 20.7094 34.6023 20.7989 34.6023 18.3852C34.6023 16.308 32.2294 16.247 32.2294 16.247H29.0697C29.0697 16.247 28.5793 16.247 28.5793 15.8511C28.5793 15.4685 29.0697 15.4685 29.0697 15.4685H34.3127V13.654Z" fill="white"/>
<path d="M34.3813 15.5359V13.5867L28.7007 13.5825L28.6882 13.583C28.6841 13.5832 28.6792 13.5834 28.6737 13.5837L28.6517 13.5851C28.6363 13.5862 28.6195 13.5876 28.6014 13.5893C28.5241 13.5966 28.4382 13.6083 28.3459 13.6256C28.0819 13.6749 27.8178 13.7587 27.5707 13.8852C26.8613 14.2486 26.4336 14.885 26.4336 15.8507C26.4336 16.8436 26.8618 17.4786 27.5723 17.8191C27.8106 17.9333 28.0651 18.0059 28.3209 18.0454C28.4037 18.0582 28.4822 18.0668 28.555 18.0718L28.579 18.0734C28.6199 18.0758 28.6539 18.0769 28.6803 18.0771L28.7039 18.077L32.037 18.0725C32.0516 18.0727 32.075 18.0749 32.1037 18.0805C32.1488 18.0892 32.1931 18.1041 32.2334 18.1263C32.3438 18.187 32.4085 18.2916 32.4085 18.4611C32.4085 18.6032 32.3449 18.6908 32.2335 18.7427C32.1922 18.7619 32.1469 18.7747 32.1009 18.7822C32.0721 18.7868 32.0491 18.7885 32.0352 18.7886L26.5873 18.7886V20.7764L32.2303 20.7769L32.2368 20.777C32.2723 20.7777 32.3204 20.777 32.3793 20.7739C32.4657 20.7694 32.5592 20.7603 32.6578 20.7458C32.9275 20.7059 33.195 20.6313 33.4456 20.5133C34.2103 20.1532 34.6709 19.4678 34.6709 18.3852C34.6709 17.4482 34.2092 16.8301 33.4453 16.4761C33.1797 16.353 32.896 16.2712 32.6123 16.2225C32.5131 16.2055 32.4208 16.1938 32.3379 16.1865L32.3137 16.1845C32.2981 16.1832 32.2836 16.1822 32.2702 16.1814L32.2449 16.1801C32.2391 16.1798 32.2347 16.1797 32.2317 16.1796L29.0696 16.1796L29.0609 16.1793C29.045 16.1788 29.0222 16.1769 28.995 16.1729C28.9428 16.1653 28.8912 16.1521 28.8442 16.1324C28.7186 16.0797 28.6479 15.9917 28.6479 15.8511C28.6479 15.7157 28.7193 15.631 28.8467 15.5803C28.8942 15.5614 28.9462 15.5489 28.9986 15.5418C29.0135 15.5398 29.0276 15.5383 29.0407 15.5374L29.0503 15.5367C29.0598 15.5361 29.0666 15.5359 29.0703 15.5359L34.3813 15.5359ZM28.7031 13.7173L34.2449 13.7214V15.4011L29.07 15.4011L29.0589 15.4013C29.0391 15.4019 29.0121 15.4039 28.9801 15.4083C28.9173 15.4168 28.8547 15.4318 28.7958 15.4553C28.6209 15.5248 28.5115 15.6546 28.5115 15.8511C28.5115 16.0509 28.6186 16.1841 28.7909 16.2565C28.8496 16.2811 28.9121 16.2971 28.9751 16.3063C28.9977 16.3096 29.0189 16.3117 29.0385 16.3131L29.0559 16.314C29.061 16.3142 29.0654 16.3143 29.069 16.3144L32.2299 16.3144C32.2321 16.3144 32.2404 16.3148 32.2527 16.3154C32.2737 16.3166 32.2982 16.3183 32.3258 16.3208C32.4051 16.3278 32.4936 16.339 32.589 16.3554C32.8614 16.4021 33.1338 16.4806 33.3873 16.5981C34.1064 16.9314 34.5345 17.5046 34.5345 18.3852C34.5345 19.4146 34.1052 20.0533 33.387 20.3916C33.1495 20.5034 32.8948 20.5744 32.6376 20.6124C32.5435 20.6264 32.4543 20.635 32.372 20.6393C32.3251 20.6418 32.2858 20.6426 32.2553 20.6425L32.2325 20.6421L26.7237 20.6416V18.9234L32.0358 18.9234L32.0482 18.9231C32.068 18.9223 32.0933 18.92 32.1228 18.9152C32.1805 18.9059 32.2378 18.8897 32.2917 18.8646C32.4484 18.7916 32.5449 18.6586 32.5449 18.4611C32.5449 18.2418 32.4527 18.0926 32.2997 18.0085C32.2459 17.9789 32.1883 17.9595 32.13 17.9482C32.0962 17.9416 32.0672 17.9386 32.0452 17.9379L32.0373 17.9377L28.6804 17.9423C28.675 17.9422 28.6691 17.9421 28.6625 17.942C28.6401 17.9415 28.6149 17.9405 28.5873 17.9388C28.512 17.9343 28.4296 17.9258 28.3419 17.9122C28.0987 17.8747 27.857 17.8057 27.6318 17.6978C26.967 17.3792 26.57 16.7905 26.57 15.8507C26.57 14.9375 26.9675 14.346 27.6335 14.0049C27.8678 13.8849 28.1194 13.8051 28.3712 13.758C28.4593 13.7416 28.5411 13.7304 28.6143 13.7235L28.6388 13.7213C28.6544 13.72 28.6687 13.719 28.6816 13.7183L28.7031 13.7173ZM74.3607 17.1791H71.9586V20.8892C71.9586 20.8892 71.9586 20.6506 71.8014 20.4692L68.9472 17.1791H66.4165V23.9367H68.9472V20.2266C68.9472 20.2266 68.9472 20.4651 69.0985 20.6461L71.8468 23.9376L74.3604 23.9367L74.3607 17.1791Z" fill="white"/>
<path d="M68.9783 17.1116H66.3481V24.004H69.0152L69.0152 20.6492L69.018 20.6533C69.0268 20.6655 69.036 20.6773 69.0457 20.6889L71.8144 24.0049L74.4285 24.004L74.4287 17.1116H71.8902L71.8902 20.4725L71.8821 20.4614C71.8729 20.449 71.8632 20.437 71.853 20.4252L68.9783 17.1116ZM74.2923 17.2464L74.292 23.8692L71.8787 23.8701L69.1509 20.6031C69.0944 20.5355 69.0567 20.4531 69.0348 20.3634C69.0268 20.3307 69.0214 20.2992 69.0182 20.2697L69.0169 20.2564C69.0158 20.2439 69.0153 20.2339 69.0152 20.2268L68.8788 20.2278L68.8787 23.8692H66.4845V17.2464H68.9156L71.7494 20.5129C71.8088 20.5815 71.8482 20.6652 71.8708 20.756C71.8848 20.8125 71.8899 20.8598 71.8902 20.8891L72.0266 20.8885V17.2464H74.2923ZM34.3148 21.7291L28.704 21.7254C28.704 21.7254 26.5029 21.7784 26.5029 23.9262C26.5029 26.1347 28.704 26.0848 28.704 26.0848L32.0377 26.0806C32.0377 26.0806 32.4778 26.0806 32.4778 26.5366C32.4778 26.9316 32.0369 26.9316 32.0369 26.9316H26.6571V28.7846H32.231C32.231 28.7846 34.6044 28.8744 34.6044 26.4607C34.6044 24.3831 32.231 24.3224 32.231 24.3224L29.0718 24.322C29.0718 24.322 28.5814 24.322 28.5814 23.9262C28.5814 23.5435 29.0718 23.5435 29.0718 23.5435L34.3148 23.5439V21.7291Z" fill="white"/>
<path d="M34.3829 23.6115V21.6618L28.7022 21.6582L28.6853 21.6589L28.6753 21.6594C28.6543 21.6606 28.63 21.6624 28.6029 21.665C28.5256 21.6722 28.4397 21.6839 28.3473 21.7012C28.0832 21.7505 27.8191 21.8342 27.572 21.9607C26.8623 22.324 26.4346 22.9604 26.4346 23.9264C26.4346 24.9192 26.8629 25.554 27.5736 25.8945C27.8119 26.0086 28.0665 26.0813 28.3223 26.1207C28.4144 26.1349 28.501 26.1439 28.5805 26.1487L28.6124 26.1504C28.6461 26.152 28.674 26.1525 28.6954 26.1524L28.7054 26.1523L32.0376 26.1482C32.0394 26.1482 32.0441 26.1483 32.0514 26.1489C32.0643 26.1498 32.0788 26.1516 32.0946 26.1543C32.1396 26.1621 32.1846 26.176 32.2259 26.1975C32.3415 26.2573 32.4095 26.3629 32.4095 26.5368C32.4095 26.6789 32.346 26.7665 32.2347 26.8184C32.1935 26.8376 32.1482 26.8504 32.1023 26.8579C32.0736 26.8625 32.0506 26.8642 32.0367 26.8643H26.5888V28.8521L32.2339 28.8522L32.2379 28.8523C32.2734 28.853 32.3216 28.8523 32.3804 28.8492C32.467 28.8447 32.5605 28.8357 32.6591 28.8211C32.9287 28.7813 33.1963 28.7067 33.4469 28.5888C34.2117 28.2288 34.6724 27.5435 34.6724 26.4609C34.6724 25.5238 34.2106 24.9056 33.4465 24.5516C33.1809 24.4285 32.8971 24.3467 32.6134 24.2981C32.5141 24.281 32.4218 24.2694 32.3389 24.262L32.3147 24.26C32.2991 24.2588 32.2845 24.2578 32.2711 24.257L32.2505 24.2559C32.2424 24.2555 32.2364 24.2552 32.2326 24.2551L29.0714 24.2547L29.0617 24.2545C29.0457 24.2539 29.0232 24.252 28.9965 24.2481C28.9442 24.2405 28.8927 24.2273 28.8457 24.2076C28.7201 24.1549 28.6494 24.0669 28.6494 23.9264C28.6494 23.7898 28.7221 23.7047 28.8515 23.6542C28.8994 23.6355 28.9516 23.6233 29.0039 23.6165C29.0186 23.6146 29.0324 23.6132 29.0451 23.6123L29.0622 23.6113C29.0667 23.6112 29.0699 23.6111 29.0716 23.6111L34.3829 23.6115ZM28.7046 21.793L34.2464 21.7965V23.4767L29.0716 23.4763L29.0616 23.4764C29.0434 23.4769 29.0175 23.4788 28.9861 23.4828C28.9235 23.491 28.8607 23.5057 28.8014 23.5288C28.6242 23.598 28.513 23.7281 28.513 23.9264C28.513 24.1262 28.6201 24.2593 28.7924 24.3317C28.8511 24.3563 28.9136 24.3723 28.9766 24.3814C28.9992 24.3847 29.0204 24.3869 29.04 24.3882L29.052 24.3889C29.0557 24.3891 29.0591 24.3893 29.0622 24.3894L29.0713 24.3895L32.2309 24.3899L32.2537 24.391L32.2726 24.3921C32.2889 24.3932 32.3071 24.3946 32.3268 24.3963C32.4061 24.4033 32.4946 24.4145 32.59 24.4309C32.8626 24.4776 33.135 24.5561 33.3886 24.6736C34.1078 25.0068 34.536 25.5801 34.536 26.4609C34.536 27.4902 34.1067 28.1289 33.3882 28.4671C33.1508 28.5788 32.896 28.6498 32.6389 28.6878C32.5447 28.7017 32.4555 28.7103 32.3732 28.7146L32.3484 28.7158C32.3083 28.7175 32.2746 28.718 32.2482 28.7177L32.2335 28.7174L26.7252 28.7173V26.9991L32.0373 26.9991C32.0584 26.9989 32.0882 26.9967 32.1243 26.9909C32.1819 26.9816 32.2392 26.9654 32.2929 26.9403C32.4495 26.8673 32.5459 26.7343 32.5459 26.5368C32.5459 26.3116 32.4488 26.1607 32.2893 26.0781C32.2344 26.0496 32.1762 26.0315 32.1181 26.0215C32.0859 26.0159 32.0597 26.0137 32.0421 26.0134L28.6819 26.0176C28.6765 26.0175 28.6705 26.0174 28.664 26.0173L28.6406 26.0166C28.6245 26.016 28.6072 26.0152 28.5887 26.0141C28.5134 26.0096 28.431 26.0011 28.3433 25.9875C28.1 25.95 27.8582 25.881 27.6331 25.7731C26.9681 25.4546 26.571 24.866 26.571 23.9264C26.571 23.013 26.9686 22.4214 27.6347 22.0804C27.869 21.9604 28.1208 21.8807 28.3726 21.8337C28.4608 21.8172 28.5425 21.806 28.6157 21.7992L28.6402 21.797C28.652 21.796 28.6629 21.7952 28.6731 21.7946L28.7046 21.793Z" fill="white"/>
</svg>
