<svg width="160" height="160" viewBox="0 0 160 160" fill="none" xmlns="http://www.w3.org/2000/svg">
<path d="M76.8412 43.555V90.6163H38.3848L76.8412 43.555ZM76.8412 26.667C76.8412 31.8361 74.8154 36.7934 71.2094 40.4485C67.6034 44.1036 62.7127 46.157 57.613 46.157C52.5134 46.157 47.6226 44.1036 44.0166 40.4485C40.4106 36.7934 38.3848 31.8361 38.3848 26.667L76.8412 26.667ZM83.1766 90.6205C83.1766 85.4514 85.2024 80.494 88.8084 76.839C92.4144 73.1839 97.3052 71.1305 102.405 71.1305C107.504 71.1305 112.395 73.1839 116.001 76.839C119.607 80.494 121.633 85.4514 121.633 90.6205H83.1766ZM83.1766 73.7325V26.667H121.641L83.1766 73.7283V73.7325ZM104.684 130.885C106.662 130.93 108.577 130.18 110.011 128.8L112.652 131.69C110.908 133.508 108.489 134.859 104.729 134.859C98.2827 134.859 94.1154 130.522 94.1154 124.659C94.0892 123.316 94.3304 121.98 94.8244 120.733C95.3185 119.486 96.0553 118.352 96.991 117.4C97.9266 116.448 99.0419 115.696 100.27 115.19C101.499 114.684 102.815 114.435 104.141 114.456C110.542 114.456 114.17 119.393 113.85 126.24H98.7188C99.2536 129.083 101.228 130.897 104.672 130.897L104.684 130.885ZM109.279 122.975C108.868 120.318 107.304 118.363 104.178 118.363C101.269 118.363 99.2412 120.031 98.7188 122.975H109.283H109.279ZM5.33398 130.664L16.9762 118.671H5.60961V114.91H22.3777V118.746L10.7355 130.735H22.5423V134.5H5.33398V130.664ZM35.612 130.881C37.5897 130.926 39.5047 130.176 40.9395 128.796L43.5806 131.686C41.8363 133.504 39.4174 134.855 35.6573 134.855C29.2109 134.855 25.0435 130.518 25.0435 124.655C25.0174 123.311 25.2586 121.976 25.7526 120.729C26.2467 119.482 26.9835 118.348 27.9191 117.396C28.8548 116.444 29.9701 115.692 31.1985 115.186C32.4269 114.68 33.7433 114.43 35.069 114.451C41.4702 114.451 45.0986 119.389 44.7777 126.235H29.6552C30.19 129.079 32.1646 130.893 35.6079 130.893L35.612 130.881ZM40.2155 122.97C39.8041 120.314 38.2408 118.359 35.1143 118.359C32.2058 118.359 30.1776 120.027 29.6552 122.97H40.2196H40.2155ZM69.9299 124.651C69.9299 118.396 74.5498 114.46 79.6387 114.46C80.8597 114.443 82.0695 114.698 83.1832 115.206C84.2968 115.714 85.2873 116.462 86.0851 117.399V105.841H90.199V134.446H86.0851V131.748C85.3026 132.724 84.3135 133.508 83.1912 134.044C82.0689 134.58 80.8421 134.852 79.6016 134.842C74.665 134.842 69.934 130.881 69.934 124.655L69.9299 124.651ZM86.3155 124.613C86.2831 123.39 85.8957 122.204 85.2017 121.203C84.5077 120.202 83.5379 119.431 82.4137 118.985C81.2895 118.54 80.0606 118.441 78.8809 118.7C77.7012 118.959 76.623 119.564 75.7812 120.441C74.9393 121.318 74.3712 122.427 74.1479 123.629C73.9245 124.831 74.0559 126.074 74.5255 127.201C74.9952 128.328 75.7822 129.29 76.7883 129.966C77.7943 130.642 78.9747 131.002 80.1817 131.002C83.7196 131.002 86.3113 128.141 86.3113 124.613H86.3155ZM116.54 130.284L120.267 128.325C120.76 129.215 121.483 129.952 122.359 130.456C123.235 130.96 124.23 131.212 125.237 131.185C127.565 131.185 128.775 129.976 128.775 128.6C128.775 127.032 126.524 126.682 124.077 126.169C120.786 125.46 117.359 124.363 117.359 120.331C117.359 117.233 120.267 114.368 124.846 114.41C128.454 114.41 131.14 115.861 132.662 118.204L129.207 120.122C128.729 119.406 128.079 118.824 127.318 118.433C126.558 118.042 125.711 117.854 124.858 117.887C122.645 117.887 121.518 118.984 121.518 120.239C121.518 121.649 123.303 122.041 126.101 122.67C129.285 123.379 132.889 124.434 132.889 128.508C132.889 131.21 130.56 134.855 125.048 134.817C121.016 134.817 118.177 133.17 116.544 130.272L116.54 130.284ZM144.066 125.739L140.804 129.346V134.433H136.69V105.828H140.804V124.563L149.537 114.848H154.548L146.979 123.229L154.746 134.438H150.089L144.07 125.739H144.066ZM57.4978 114.456C52.6023 114.456 48.509 117.666 48.509 123.004V134.45H52.7052V123.533C52.7052 120.323 54.5276 118.396 57.6418 118.396C60.756 118.396 62.3028 120.314 62.3028 123.533V134.45H66.4743V123.004C66.4743 117.675 62.3604 114.456 57.4855 114.456" fill="#03363D"/>
</svg>
